{
.appVersion = "3112";
DisplayStrings = (
"banbbnbibfbrbsbtbxnb\012oanobnoionoforosotoxof\012nntnnbn/space vn\012znzozbnr\012\012tbnb\012\012be",
"/b.mlp.med/cnct.mlp_b_e/e.ful.fin_o_",
"/cnct.mod_c_s",
"/f.mrr.ini"
);
customParameters = (
{
disabled = 1;
name = "EditView Line Height";
value = 2000;
},
{
name = glyphOrder;
value = (
a,
b,
c,
d,
e,
f,
g,
h,
i,
idotless,
j,
jdotless,
k,
l,
m,
n,
o,
p,
q,
r,
s,
t,
u,
v,
w,
x,
y,
z,
a.mod,
a.mod.ini,
a.mod.med,
a.mod.fin,
b.mod,
b.mod.ini,
b.mod.med,
b.mod.fin,
c.mod,
c.mod.ini,
c.mod.med,
c.mod.fin,
d.mod,
d.mod.ini,
d.mod.med,
d.mod.fin,
e.mod,
e.mod.ini,
e.mod.med,
e.mod.fin,
e.mod.med_b_,
e.mod.fin_b_,
e.mod.med_n_,
e.mod.fin_n_,
f.mod,
f.mod.ini,
f.mod.med,
f.mod.fin,
f.mod.med_o_,
f.mod.fin_o_,
g.mod,
g.mod.ini,
g.mod.med,
g.mod.fin,
h.mod,
h.mod.ini,
h.mod.med,
h.mod.fin,
i.mod,
i.mod.ini,
i.mod.med,
i.mod.fin,
j.mod,
j.mod.ini,
j.mod.med,
j.mod.fin,
k.mod,
k.mod.ini,
k.mod.med,
k.mod.fin,
l.mod,
l.mod.ini,
l.mod.med,
l.mod.fin,
m.mod,
m.mod.ini,
m.mod.med,
m.mod.fin,
n.mod,
n.mod.ini,
n.mod.med,
n.mod.fin,
o.mod,
o.mod.ini,
o.mod.med,
o.mod.fin,
p.mod,
p.mod.ini,
p.mod.med,
p.mod.fin,
q.mod,
q.mod.ini,
q.mod.med,
q.mod.fin,
r.mod,
r.mod.ini,
r.mod.med,
r.mod.fin,
s.mod,
s.mod.ini,
s.mod.med,
s.mod.fin,
t.mod,
t.mod.ini,
t.mod.med,
t.mod.fin,
t.mod.med_o_,
t.mod.fin_o_,
u.mod,
u.mod.ini,
u.mod.med,
u.mod.fin,
v.mod,
v.mod.ini,
v.mod.med,
v.mod.fin,
w.mod,
w.mod.ini,
w.mod.med,
w.mod.fin,
x.mod,
x.mod.ini,
x.mod.med,
x.mod.fin,
y.mod,
y.mod.ini,
y.mod.med,
y.mod.fin,
z.mod,
z.mod.ini,
z.mod.med,
z.mod.fin,
cnct.mod_n_o,
cnct.mod_n_b,
cnct.mod_n_e,
cnct.mod_n_n,
cnct.mod_n_s,
cnct.mod_n_t,
cnct.mod_n_v,
cnct.mod_n_x,
cnct.mod_n_z,
cnct.mod_c_o,
cnct.mod_c_b,
cnct.mod_c_e,
cnct.mod_c_n,
cnct.mod_c_s,
cnct.mod_c_t,
cnct.mod_c_v,
cnct.mod_c_x,
cnct.mod_c_z,
cnct.mod_e_o,
cnct.mod_e_b,
cnct.mod_e_e,
cnct.mod_e_n,
cnct.mod_e_s,
cnct.mod_e_t,
cnct.mod_e_v,
cnct.mod_e_x,
cnct.mod_e_z,
cnct.mod_o_o,
cnct.mod_o_b,

glyphs = (
{
glyphname = a;
lastChange = "2022-08-29 06:03:06 +0000";
layers = (
{
anchors = (
{
name = bottom;
position = "{230, 0}";
},
{
name = ogonek;
position = "{423, 0}";
},
{
name = top;
position = "{247, 400}";
}
);
background = {
anchors = (
{
name = bottom;
position = "{230, 0}";
},
{
name = ogonek;
position = "{423, 0}";
},
{
name = top;
position = "{247, 400}";
}
);
paths = (
{
closed = 1;
nodes = (
"265 -14 OFFCURVE",
"337 8 OFFCURVE",
"370 123 CURVE",
"354 150 LINE",
"330 46 OFFCURVE",
"273 14 OFFCURVE",
"221 14 CURVE SMOOTH",
"136 14 OFFCURVE",
"92 90 OFFCURVE",
"92 194 CURVE SMOOTH",
"92 317 OFFCURVE",
"151 388 OFFCURVE",
"244 388 CURVE SMOOTH",
"281 388 OFFCURVE",
"317 378 OFFCURVE",
"359 349 CURVE",
"359 379 LINE",
"320 404 OFFCURVE",
"286 415 OFFCURVE",
"247 415 CURVE SMOOTH",
"125 415 OFFCURVE",
"60 321 OFFCURVE",
"60 191 CURVE SMOOTH",
"60 61 OFFCURVE",
"126 -14 OFFCURVE",
"215 -14 CURVE SMOOTH"
);
},
{
closed = 1;
nodes = (
"447 -14 OFFCURVE",
"477 3 OFFCURVE",
"495 28 CURVE SMOOTH",
"499 34 OFFCURVE",
"497 39 OFFCURVE",
"492 44 CURVE SMOOTH",
"486 50 OFFCURVE",
"481 50 OFFCURVE",
"476 44 CURVE SMOOTH",
"458 22 OFFCURVE",
"440 13 OFFCURVE",
"423 13 CURVE SMOOTH",
"395 13 OFFCURVE",
"383 32 OFFCURVE",
"383 70 CURVE SMOOTH",
"383 400 LINE",
"383 409 OFFCURVE",
"379 412 OFFCURVE",
"369 412 CURVE SMOOTH",
"359 412 OFFCURVE",
"354 409 OFFCURVE",
"354 400 CURVE SMOOTH",
"354 61 LINE SMOOTH",
"354 11 OFFCURVE",
"380 -14 OFFCURVE",
"420 -14 CURVE SMOOTH"
);
}
);
};
layerId = m01;
paths = (
{
closed = 1;
nodes = (
"265 -14 OFFCURVE",
"337 8 OFFCURVE",
"370 123 CURVE",
"354 150 LINE",
"330 46 OFFCURVE",
"273 14 OFFCURVE",
"221 14 CURVE SMOOTH",
"136 14 OFFCURVE",
"92 90 OFFCURVE",
"92 194 CURVE SMOOTH",
"92 317 OFFCURVE",
"151 388 OFFCURVE",
"244 388 CURVE SMOOTH",
"281 388 OFFCURVE",
"317 378 OFFCURVE",
"359 349 CURVE",
"359 379 LINE",
"320 404 OFFCURVE",
"286 415 OFFCURVE",
"247 415 CURVE SMOOTH",
"125 415 OFFCURVE",
"60 321 OFFCURVE",
"60 191 CURVE SMOOTH",
"60 61 OFFCURVE",
"126 -14 OFFCURVE",
"215 -14 CURVE SMOOTH"
);
},
{
closed = 1;
nodes = (
"447 -14 OFFCURVE",
"477 3 OFFCURVE",
"495 28 CURVE SMOOTH",
"499 34 OFFCURVE",
"497 39 OFFCURVE",
"492 44 CURVE SMOOTH",
"486 50 OFFCURVE",
"481 50 OFFCURVE",
"476 44 CURVE SMOOTH",
"458 22 OFFCURVE",
"440 13 OFFCURVE",
"423 13 CURVE SMOOTH",
"395 13 OFFCURVE",
"383 32 OFFCURVE",
"383 70 CURVE SMOOTH",
"383 400 LINE",
"383 409 OFFCURVE",
"379 412 OFFCURVE",
"369 412 CURVE SMOOTH",
"359 412 OFFCURVE",
"354 409 OFFCURVE",
"354 400 CURVE SMOOTH",
"354 61 LINE SMOOTH",
"354 11 OFFCURVE",
"380 -14 OFFCURVE",
"420 -14 CURVE SMOOTH"
);
}
);
width = 498;
},
{
anchors = (
{
name = bottom;
position = "{176, 0}";
},
{
name = ogonek;
position = "{377, 0}";
},
{
name = top;
position = "{306, 400}";
}
);
background = {
anchors = (
{
name = bottom;
position = "{176, 0}";
},
{
name = ogonek;
position = "{377, 0}";
},
{
name = top;
position = "{306, 400}";
}
);
paths = (
{
closed = 1;
nodes = (
"205 -14 OFFCURVE",
"286 8 OFFCURVE",
"348 123 CURVE",
"341 153 LINE",
"285 49 OFFCURVE",
"221 14 OFFCURVE",
"166 14 CURVE SMOOTH",
"86 14 OFFCURVE",
"66 95 OFFCURVE",
"91 199 CURVE SMOOTH",
"121 325 OFFCURVE",
"208 388 OFFCURVE",
"300 388 CURVE SMOOTH",
"331 388 OFFCURVE",
"366 380 OFFCURVE",
"410 350 CURVE",
"419 375 LINE",
"387 400 OFFCURVE",
"342 415 OFFCURVE",
"305 415 CURVE SMOOTH",
"182 415 OFFCURVE",
"89 329 OFFCURVE",
"57 196 CURVE SMOOTH",
"27 70 OFFCURVE",
"69 -14 OFFCURVE",
"160 -14 CURVE SMOOTH"
);
},
{
closed = 1;
nodes = (
"422 -14 OFFCURVE",
"450 19 OFFCURVE",
"470 53 CURVE SMOOTH",
"475 60 OFFCURVE",
"474 68 OFFCURVE",
"465 72 CURVE SMOOTH",
"455 77 OFFCURVE",
"449 71 OFFCURVE",
"445 65 CURVE SMOOTH",
"429 37 OFFCURVE",
"406 13 OFFCURVE",
"377 13 CURVE SMOOTH",
"350 13 OFFCURVE",
"333 37 OFFCURVE",
"351 92 CURVE SMOOTH",
"450 395 LINE SMOOTH",
"453 404 OFFCURVE",
"451 412 OFFCURVE",
"438 412 CURVE SMOOTH",
"427 412 OFFCURVE",
"423 409 OFFCURVE",
"420 400 CURVE SMOOTH",
"320 91 LINE SMOOTH",
"298 24 OFFCURVE",
"325 -14 OFFCURVE",
"373 -14 CURVE SMOOTH"
);
}
);
};
layerId = m002;
paths = (
{
closed = 1;
nodes = (
"205 -14 OFFCURVE",
"286 8 OFFCURVE",
"348 123 CURVE",
"341 153 LINE",
"285 49 OFFCURVE",
"221 14 OFFCURVE",
"166 14 CURVE SMOOTH",
"86 14 OFFCURVE",
"66 95 OFFCURVE",
"91 199 CURVE SMOOTH",
"121 325 OFFCURVE",
"208 388 OFFCURVE",
"300 388 CURVE SMOOTH",
"331 388 OFFCURVE",
"366 380 OFFCURVE",
"410 350 CURVE",
"419 375 LINE",
"387 400 OFFCURVE",
"342 415 OFFCURVE",
"305 415 CURVE SMOOTH",
"182 415 OFFCURVE",
"89 329 OFFCURVE",
"57 196 CURVE SMOOTH",
"27 70 OFFCURVE",
"69 -14 OFFCURVE",
"160 -14 CURVE SMOOTH"
);
},
{
closed = 1;
nodes = (
"422 -14 OFFCURVE",
"450 19 OFFCURVE",
"470 53 CURVE SMOOTH",
"475 60 OFFCURVE",
"474 68 OFFCURVE",
"465 72 CURVE SMOOTH",
"455 77 OFFCURVE",
"449 71 OFFCURVE",
"445 65 CURVE SMOOTH",
"429 37 OFFCURVE",
"406 13 OFFCURVE",
"377 13 CURVE SMOOTH",
"350 13 OFFCURVE",
"333 37 OFFCURVE",
"351 92 CURVE SMOOTH",
"450 395 LINE SMOOTH",
"453 404 OFFCURVE",
"451 412 OFFCURVE",
"438 412 CURVE SMOOTH",
"427 412 OFFCURVE",
"423 409 OFFCURVE",
"420 400 CURVE SMOOTH",
"320 91 LINE SMOOTH",
"298 24 OFFCURVE",
"325 -14 OFFCURVE",
"373 -14 CURVE SMOOTH"
);
}
);
width = 498;
},
{
anchors = (
{
name = bottom;
position = "{240, 0}";
},
{
name = ogonek;
position = "{409, 0}";
},
{
name = top;
position = "{247, 400}";
}
);
background = {
anchors = (
{
name = bottom;
position = "{240, 0}";
},
{
name = ogonek;
position = "{409, 0}";
},
{
name = top;
position = "{247, 400}";
}
);
paths = (
{
closed = 1;
nodes = (
"273 -14 OFFCURVE",
"337 63 OFFCURVE",
"370 273 CURVE",
"354 323 LINE",
"330 99 OFFCURVE",
"262 14 OFFCURVE",
"187 14 CURVE SMOOTH",
"118 14 OFFCURVE",
"92 92 OFFCURVE",
"92 179 CURVE SMOOTH",
"92 314 OFFCURVE",
"148 388 OFFCURVE",
"244 388 CURVE SMOOTH",
"275 388 OFFCURVE",
"315 380 OFFCURVE",
"359 349 CURVE",
"359 379 LINE",
"319 404 OFFCURVE",
"286 415 OFFCURVE",
"247 415 CURVE SMOOTH",
"120 415 OFFCURVE",
"60 318 OFFCURVE",
"60 178 CURVE SMOOTH",
"60 57 OFFCURVE",
"106 -14 OFFCURVE",
"183 -14 CURVE SMOOTH"
);
},
{
closed = 1;
nodes = (
"438 -14 OFFCURVE",
"474 15 OFFCURVE",
"494 71 CURVE SMOOTH",
"496 76 OFFCURVE",
"494 82 OFFCURVE",
"486 85 CURVE SMOOTH",
"479 88 OFFCURVE",
"472 88 OFFCURVE",
"469 80 CURVE SMOOTH",
"449 32 OFFCURVE",
"432 13 OFFCURVE",
"409 13 CURVE SMOOTH",
"387 13 OFFCURVE",
"383 37 OFFCURVE",
"383 71 CURVE SMOOTH",
"383 400 LINE",
"383 409 OFFCURVE",
"379 412 OFFCURVE",
"369 412 CURVE SMOOTH",
"359 412 OFFCURVE",
"354 409 OFFCURVE",
"354 400 CURVE SMOOTH",
"354 52 LINE SMOOTH",
"354 9 OFFCURVE",
"371 -14 OFFCURVE",
"405 -14 CURVE SMOOTH"
);
}
);
};
layerId = m003;
paths = (
{
closed = 1;
nodes = (
"273 -14 OFFCURVE",
"337 63 OFFCURVE",
"370 273 CURVE",
"354 323 LINE",
"330 99 OFFCURVE",
"262 14 OFFCURVE",
"187 14 CURVE SMOOTH",
"118 14 OFFCURVE",
"92 92 OFFCURVE",
"92 179 CURVE SMOOTH",
"92 314 OFFCURVE",
"148 388 OFFCURVE",
"244 388 CURVE SMOOTH",
"275 388 OFFCURVE",
"315 380 OFFCURVE",
"359 349 CURVE",
"359 379 LINE",
"319 404 OFFCURVE",
"286 415 OFFCURVE",
"247 415 CURVE SMOOTH",
"120 415 OFFCURVE",
"60 318 OFFCURVE",
"60 178 CURVE SMOOTH",
"60 57 OFFCURVE",
"106 -14 OFFCURVE",
"183 -14 CURVE SMOOTH"
);
},
{
closed = 1;
nodes = (
"438 -14 OFFCURVE",
"474 15 OFFCURVE",
"494 71 CURVE SMOOTH",
"496 76 OFFCURVE",
"494 82 OFFCURVE",
"486 85 CURVE SMOOTH",
"479 88 OFFCURVE",
"472 88 OFFCURVE",
"469 80 CURVE SMOOTH",
"449 32 OFFCURVE",
"432 13 OFFCURVE",
"409 13 CURVE SMOOTH",
"387 13 OFFCURVE",
"383 37 OFFCURVE",
"383 71 CURVE SMOOTH",
"383 400 LINE",
"383 409 OFFCURVE",
"379 412 OFFCURVE",
"369 412 CURVE SMOOTH",
"359 412 OFFCURVE",
"354 409 OFFCURVE",
"354 400 CURVE SMOOTH",
"354 52 LINE SMOOTH",
"354 9 OFFCURVE",
"371 -14 OFFCURVE",
"405 -14 CURVE SMOOTH"
);
}
);
width = 498;
},
{
anchors = (
{
name = bottom;
position = "{181, 0}";
},
{
name = ogonek;
position = "{352, 0}";
},
{
name = top;
position = "{309, 400}";
}
);
background = {
anchors = (
{
name = bottom;
position = "{181, 0}";
},
{
name = ogonek;
position = "{352, 0}";
},
{
name = top;
position = "{309, 400}";
}
);
paths = (
{
closed = 1;
nodes = (
"211 -14 OFFCURVE",
"301 78 OFFCURVE",
"400 292 CURVE",
"393 322 LINE",
"298 116 OFFCURVE",
"202 14 OFFCURVE",
"135 14 CURVE SMOOTH",
"73 14 OFFCURVE",
"57 92 OFFCURVE",
"84 185 CURVE SMOOTH",
"125 325 OFFCURVE",
"225 387 OFFCURVE",
"300 387 CURVE SMOOTH",
"331 387 OFFCURVE",
"365 382 OFFCURVE",
"409 354 CURVE",
"418 379 LINE",
"386 402 OFFCURVE",
"342 415 OFFCURVE",
"305 415 CURVE SMOOTH",
"199 415 OFFCURVE",
"95 329 OFFCURVE",
"53 187 CURVE SMOOTH",
"18 68 OFFCURVE",
"58 -14 OFFCURVE",
"130 -14 CURVE SMOOTH"
);
},
{
closed = 1;
nodes = (
"394 -14 OFFCURVE",
"440 39 OFFCURVE",
"461 69 CURVE SMOOTH",
"465 74 OFFCURVE",
"466 79 OFFCURVE",
"458 85 CURVE SMOOTH",
"452 90 OFFCURVE",
"448 90 OFFCURVE",
"442 83 CURVE SMOOTH",
"421 56 OFFCURVE",
"382 14 OFFCURVE",
"352 14 CURVE SMOOTH",
"330 14 OFFCURVE",
"330 35 OFFCURVE",
"342 72 CURVE SMOOTH",
"448 396 LINE SMOOTH",
"451 405 OFFCURVE",
"447 412 OFFCURVE",
"436 412 CURVE SMOOTH",
"425 412 OFFCURVE",
"420 409 OFFCURVE",
"417 400 CURVE SMOOTH",
"312 71 LINE SMOOTH",
"293 13 OFFCURVE",
"309 -14 OFFCURVE",
"346 -14 CURVE SMOOTH"
);
}
);
};
layerId = m004;
paths = (
{
closed = 1;
nodes = (
"211 -14 OFFCURVE",
"301 78 OFFCURVE",
"400 292 CURVE",
"393 322 LINE",
"298 116 OFFCURVE",
"202 14 OFFCURVE",
"135 14 CURVE SMOOTH",
"73 14 OFFCURVE",
"57 92 OFFCURVE",
"84 185 CURVE SMOOTH",
"125 325 OFFCURVE",
"225 387 OFFCURVE",
"300 387 CURVE SMOOTH",
"331 387 OFFCURVE",
"365 382 OFFCURVE",
"409 354 CURVE",
"418 379 LINE",
"386 402 OFFCURVE",
"342 415 OFFCURVE",
"305 415 CURVE SMOOTH",
"199 415 OFFCURVE",
"95 329 OFFCURVE",
"53 187 CURVE SMOOTH",
"18 68 OFFCURVE",
"58 -14 OFFCURVE",
"130 -14 CURVE SMOOTH"
);
},
{
closed = 1;
nodes = (
"394 -14 OFFCURVE",
"440 39 OFFCURVE",
"461 69 CURVE SMOOTH",
"465 74 OFFCURVE",
"466 79 OFFCURVE",
"458 85 CURVE SMOOTH",
"452 90 OFFCURVE",
"448 90 OFFCURVE",
"442 83 CURVE SMOOTH",
"421 56 OFFCURVE",
"382 14 OFFCURVE",
"352 14 CURVE SMOOTH",
"330 14 OFFCURVE",
"330 35 OFFCURVE",
"342 72 CURVE SMOOTH",
"448 396 LINE SMOOTH",
"451 405 OFFCURVE",
"447 412 OFFCURVE",
"436 412 CURVE SMOOTH",
"425 412 OFFCURVE",
"420 409 OFFCURVE",
"417 400 CURVE SMOOTH",
"312 71 LINE SMOOTH",
"293 13 OFFCURVE",
"309 -14 OFFCURVE",
"346 -14 CURVE SMOOTH"
);
}
);
width = 498;
}
);
leftMetricsKey = "=o";
rightMetricsKey = "=n";
unicode = 0061;
},
{
glyphname = b;
lastChange = "2022-08-29 06:03:06 +0000";
layers = (
{
background = {
paths = (
{
closed = 1;
nodes = (
"213 415 OFFCURVE",
"147 393 OFFCURVE",
"110 287 CURVE",
"124 262 LINE",
"154 353 OFFCURVE",
"205 387 OFFCURVE",
"262 387 CURVE SMOOTH",
"346 387 OFFCURVE",
"386 320 OFFCURVE",
"386 210 CURVE SMOOTH",
"386 78 OFFCURVE",
"327 13 OFFCURVE",
"237 13 CURVE SMOOTH",
"197 13 OFFCURVE",
"160 26 OFFCURVE",
"119 60 CURVE",
"119 30 LINE",
"157 0 OFFCURVE",
"192 -14 OFFCURVE",
"234 -14 CURVE SMOOTH",
"353 -14 OFFCURVE",
"418 74 OFFCURVE",
"418 213 CURVE SMOOTH",
"418 349 OFFCURVE",
"356 415 OFFCURVE",
"268 415 CURVE SMOOTH"
);
},
{
closed = 1;
nodes = (
"100 713 OFFCURVE",
"95 710 OFFCURVE",
"95 701 CURVE SMOOTH",
"95 1 LINE SMOOTH",
"95 -8 OFFCURVE",
"99 -11 OFFCURVE",
"109 -11 CURVE SMOOTH",
"119 -11 OFFCURVE",
"124 -8 OFFCURVE",
"124 1 CURVE SMOOTH",
"124 701 LINE SMOOTH",
"124 710 OFFCURVE",
"120 713 OFFCURVE",
"110 713 CURVE SMOOTH"
);
}
);
};
layerId = m01;
paths = (
{
closed = 1;
nodes = (
"213 415 OFFCURVE",
"147 393 OFFCURVE",
"110 287 CURVE",
"124 262 LINE",
"154 353 OFFCURVE",
"205 387 OFFCURVE",
"262 387 CURVE SMOOTH",
"346 387 OFFCURVE",
"386 320 OFFCURVE",
"386 210 CURVE SMOOTH",
"386 78 OFFCURVE",
"327 13 OFFCURVE",
"237 13 CURVE SMOOTH",
"197 13 OFFCURVE",
"160 26 OFFCURVE",
"119 60 CURVE",
"119 30 LINE",
"157 0 OFFCURVE",
"192 -14 OFFCURVE",
"234 -14 CURVE SMOOTH",
"353 -14 OFFCURVE",
"418 74 OFFCURVE",
"418 213 CURVE SMOOTH",
"418 349 OFFCURVE",
"356 415 OFFCURVE",
"268 415 CURVE SMOOTH"
);
},
{
closed = 1;
nodes = (
"100 713 OFFCURVE",
"95 710 OFFCURVE",
"95 701 CURVE SMOOTH",
"95 1 LINE SMOOTH",
"95 -8 OFFCURVE",
"99 -11 OFFCURVE",
"109 -11 CURVE SMOOTH",
"119 -11 OFFCURVE",
"124 -8 OFFCURVE",
"124 1 CURVE SMOOTH",
"124 701 LINE SMOOTH",
"124 710 OFFCURVE",
"120 713 OFFCURVE",
"110 713 CURVE SMOOTH"
);
}
);
width = 478;
},
{
background = {
paths = (
{
closed = 1;
nodes = (
"275 415 OFFCURVE",
"194 393 OFFCURVE",
"132 278 CURVE",
"139 248 LINE",
"195 352 OFFCURVE",
"259 387 OFFCURVE",
"314 387 CURVE SMOOTH",
"392 387 OFFCURVE",
"412 306 OFFCURVE",
"387 202 CURVE SMOOTH",
"357 76 OFFCURVE",
"270 13 OFFCURVE",
"180 13 CURVE SMOOTH",
"149 13 OFFCURVE",
"114 22 OFFCURVE",
"68 54 CURVE",
"59 30 LINE",
"93 3 OFFCURVE",
"138 -14 OFFCURVE",
"175 -14 CURVE SMOOTH",
"296 -14 OFFCURVE",
"389 72 OFFCURVE",
"421 205 CURVE SMOOTH",
"451 331 OFFCURVE",
"409 415 OFFCURVE",
"320 415 CURVE SMOOTH"
);
},
{
closed = 1;
nodes = (
"262 713 OFFCURVE",
"259 710 OFFCURVE",
"256 701 CURVE SMOOTH",
"30 6 LINE SMOOTH",
"27 -3 OFFCURVE",
"29 -11 OFFCURVE",
"42 -11 CURVE SMOOTH",
"53 -11 OFFCURVE",
"57 -8 OFFCURVE",
"60 1 CURVE SMOOTH",
"288 701 LINE SMOOTH",
"291 709 OFFCURVE",
"284 713 OFFCURVE",
"274 713 CURVE SMOOTH"
);
}
);
};
layerId = m002;
paths = (
{
closed = 1;
nodes = (
"275 415 OFFCURVE",
"194 393 OFFCURVE",
"132 278 CURVE",
"139 248 LINE",
"195 352 OFFCURVE",
"259 387 OFFCURVE",
"314 387 CURVE SMOOTH",
"392 387 OFFCURVE",
"412 306 OFFCURVE",
"387 202 CURVE SMOOTH",
"357 76 OFFCURVE",
"270 13 OFFCURVE",
"180 13 CURVE SMOOTH",
"149 13 OFFCURVE",
"114 22 OFFCURVE",
"68 54 CURVE",
"59 30 LINE",
"93 3 OFFCURVE",
"138 -14 OFFCURVE",
"175 -14 CURVE SMOOTH",
"296 -14 OFFCURVE",
"389 72 OFFCURVE",
"421 205 CURVE SMOOTH",
"451 331 OFFCURVE",
"409 415 OFFCURVE",
"320 415 CURVE SMOOTH"
);
},
{
closed = 1;
nodes = (
"262 713 OFFCURVE",
"259 710 OFFCURVE",
"256 701 CURVE SMOOTH",
"30 6 LINE SMOOTH",
"27 -3 OFFCURVE",
"29 -11 OFFCURVE",
"42 -11 CURVE SMOOTH",
"53 -11 OFFCURVE",
"57 -8 OFFCURVE",
"60 1 CURVE SMOOTH",
"288 701 LINE SMOOTH",
"291 709 OFFCURVE",
"284 713 OFFCURVE",
"274 713 CURVE SMOOTH"
);
}
);
width = 478;
},
{
background = {
paths = (
{
closed = 1;
nodes = (
"205 415 OFFCURVE",
"141 338 OFFCURVE",
"108 128 CURVE",
"124 78 LINE",
"148 302 OFFCURVE",
"216 387 OFFCURVE",
"291 387 CURVE SMOOTH",
"360 387 OFFCURVE",
"386 309 OFFCURVE",
"386 222 CURVE SMOOTH",
"386 87 OFFCURVE",
"330 13 OFFCURVE",
"234 13 CURVE SMOOTH",
"203 13 OFFCURVE",
"163 22 OFFCURVE",
"119 56 CURVE",
"119 26 LINE",
"159 -2 OFFCURVE",
"192 -14 OFFCURVE",
"231 -14 CURVE SMOOTH",
"358 -14 OFFCURVE",
"418 83 OFFCURVE",
"418 223 CURVE SMOOTH",
"418 344 OFFCURVE",
"372 415 OFFCURVE",
"295 415 CURVE SMOOTH"
);
},
{
closed = 1;
nodes = (
"100 713 OFFCURVE",
"95 710 OFFCURVE",
"95 701 CURVE SMOOTH",
"95 1 LINE SMOOTH",
"95 -8 OFFCURVE",
"99 -11 OFFCURVE",
"109 -11 CURVE SMOOTH",
"119 -11 OFFCURVE",
"124 -8 OFFCURVE",
"124 1 CURVE SMOOTH",
"124 701 LINE SMOOTH",
"124 710 OFFCURVE",
"120 713 OFFCURVE",
"110 713 CURVE SMOOTH"
);
}
);
};
layerId = m003;
paths = (
{
closed = 1;
nodes = (
"205 415 OFFCURVE",
"141 338 OFFCURVE",
"108 128 CURVE",
"124 78 LINE",
"148 302 OFFCURVE",
"216 387 OFFCURVE",
"291 387 CURVE SMOOTH",
"360 387 OFFCURVE",
"386 309 OFFCURVE",
"386 222 CURVE SMOOTH",
"386 87 OFFCURVE",
"330 13 OFFCURVE",
"234 13 CURVE SMOOTH",
"203 13 OFFCURVE",
"163 22 OFFCURVE",
"119 56 CURVE",
"119 26 LINE",
"159 -2 OFFCURVE",
"192 -14 OFFCURVE",
"231 -14 CURVE SMOOTH",
"358 -14 OFFCURVE",
"418 83 OFFCURVE",
"418 223 CURVE SMOOTH",
"418 344 OFFCURVE",
"372 415 OFFCURVE",
"295 415 CURVE SMOOTH"
);
},
{
closed = 1;
nodes = (
"100 713 OFFCURVE",
"95 710 OFFCURVE",
"95 701 CURVE SMOOTH",
"95 1 LINE SMOOTH",
"95 -8 OFFCURVE",
"99 -11 OFFCURVE",
"109 -11 CURVE SMOOTH",
"119 -11 OFFCURVE",
"124 -8 OFFCURVE",
"124 1 CURVE SMOOTH",
"124 701 LINE SMOOTH",
"124 710 OFFCURVE",
"120 713 OFFCURVE",
"110 713 CURVE SMOOTH"
);
}
);
width = 478;
},
{
background = {
paths = (
{
closed = 1;
nodes = (
"267 415 OFFCURVE",
"176 323 OFFCURVE",
"77 109 CURVE",
"84 79 LINE",
"179 285 OFFCURVE",
"276 387 OFFCURVE",
"343 387 CURVE SMOOTH",
"405 387 OFFCURVE",
"421 309 OFFCURVE",
"394 216 CURVE SMOOTH",
"353 76 OFFCURVE",
"253 14 OFFCURVE",
"177 14 CURVE SMOOTH",
"146 14 OFFCURVE",
"112 19 OFFCURVE",
"68 47 CURVE",
"59 25 LINE",
"91 -1 OFFCURVE",
"135 -14 OFFCURVE",
"172 -14 CURVE SMOOTH",
"279 -14 OFFCURVE",
"383 72 OFFCURVE",
"425 214 CURVE SMOOTH",
"460 333 OFFCURVE",
"420 415 OFFCURVE",
"348 415 CURVE SMOOTH"
);
},
{
closed = 1;
nodes = (
"262 713 OFFCURVE",
"259 710 OFFCURVE",
"256 701 CURVE SMOOTH",
"30 6 LINE SMOOTH",
"27 -3 OFFCURVE",
"29 -11 OFFCURVE",
"42 -11 CURVE SMOOTH",
"53 -11 OFFCURVE",
"57 -8 OFFCURVE",
"60 1 CURVE SMOOTH",
"288 701 LINE SMOOTH",
"291 709 OFFCURVE",
"284 713 OFFCURVE",
"274 713 CURVE SMOOTH"
);
}
);
};
layerId = m004;
paths = (
{
closed = 1;
nodes = (
"267 415 OFFCURVE",
"176 323 OFFCURVE",
"77 109 CURVE",
"84 79 LINE",
"179 285 OFFCURVE",
"276 387 OFFCURVE",
"343 387 CURVE SMOOTH",
"405 387 OFFCURVE",
"421 309 OFFCURVE",
"394 216 CURVE SMOOTH",
"353 76 OFFCURVE",
"253 14 OFFCURVE",
"177 14 CURVE SMOOTH",
"146 14 OFFCURVE",
"112 19 OFFCURVE",
"68 47 CURVE",
"59 25 LINE",
"91 -1 OFFCURVE",
"135 -14 OFFCURVE",
"172 -14 CURVE SMOOTH",
"279 -14 OFFCURVE",
"383 72 OFFCURVE",
"425 214 CURVE SMOOTH",
"460 333 OFFCURVE",
"420 415 OFFCURVE",
"348 415 CURVE SMOOTH"
);
},
{
closed = 1;
nodes = (
"262 713 OFFCURVE",
"259 710 OFFCURVE",
"256 701 CURVE SMOOTH",
"30 6 LINE SMOOTH",
"27 -3 OFFCURVE",
"29 -11 OFFCURVE",
"42 -11 CURVE SMOOTH",
"53 -11 OFFCURVE",
"57 -8 OFFCURVE",
"60 1 CURVE SMOOTH",
"288 701 LINE SMOOTH",
"291 709 OFFCURVE",
"284 713 OFFCURVE",
"274 713 CURVE SMOOTH"
);
}
);
width = 478;
}
);
rightMetricsKey = "=o";
unicode = 0062;
},
{
glyphname = c;
lastChange = "2022-08-29 06:03:06 +0000";
layers = (
{
background = {
paths = (
{
closed = 1;
nodes = (
"351 63 OFFCURVE",
"349 70 OFFCURVE",
"344 74 CURVE SMOOTH",
"340 78 OFFCURVE",
"334 80 OFFCURVE",
"327 74 CURVE SMOOTH",
"275 29 OFFCURVE",
"237 12 OFFCURVE",
"189 12 CURVE SMOOTH",
"114 12 OFFCURVE",
"85 67 OFFCURVE",
"85 139 CURVE SMOOTH",
"85 270 OFFCURVE",
"170 388 OFFCURVE",
"291 388 CURVE SMOOTH",
"344 388 OFFCURVE",
"368 367 OFFCURVE",
"389 341 CURVE SMOOTH",
"392 337 OFFCURVE",
"398 333 OFFCURVE",
"409 341 CURVE SMOOTH",
"418 348 OFFCURVE",
"418 352 OFFCURVE",
"416 357 CURVE SMOOTH",
"400 388 OFFCURVE",
"353 415 OFFCURVE",
"295 415 CURVE SMOOTH",
"158 415 OFFCURVE",
"54 294 OFFCURVE",
"54 139 CURVE SMOOTH",
"54 45 OFFCURVE",
"100 -15 OFFCURVE",
"185 -15 CURVE SMOOTH",
"235 -15 OFFCURVE",
"295 7 OFFCURVE",
"345 57 CURVE SMOOTH"
);
}
);
};
layerId = m002;
paths = (
{
closed = 1;
nodes = (
"351 63 OFFCURVE",
"349 70 OFFCURVE",
"344 74 CURVE SMOOTH",
"340 78 OFFCURVE",
"334 80 OFFCURVE",
"327 74 CURVE SMOOTH",
"275 29 OFFCURVE",
"237 12 OFFCURVE",
"189 12 CURVE SMOOTH",
"114 12 OFFCURVE",
"85 67 OFFCURVE",
"85 139 CURVE SMOOTH",
"85 270 OFFCURVE",
"170 388 OFFCURVE",
"291 388 CURVE SMOOTH",
"344 388 OFFCURVE",
"368 367 OFFCURVE",
"389 341 CURVE SMOOTH",
"392 337 OFFCURVE",
"398 333 OFFCURVE",
"409 341 CURVE SMOOTH",
"418 348 OFFCURVE",
"418 352 OFFCURVE",
"416 357 CURVE SMOOTH",
"400 388 OFFCURVE",
"353 415 OFFCURVE",
"295 415 CURVE SMOOTH",
"158 415 OFFCURVE",
"54 294 OFFCURVE",
"54 139 CURVE SMOOTH",
"54 45 OFFCURVE",
"100 -15 OFFCURVE",
"185 -15 CURVE SMOOTH",
"235 -15 OFFCURVE",
"295 7 OFFCURVE",
"345 57 CURVE SMOOTH"
);
}
);
width = 418;
},
{
background = {
paths = (
{
closed = 1;
nodes = (
"384 101 OFFCURVE",
"380 108 OFFCURVE",
"374 112 CURVE SMOOTH",
"368 116 OFFCURVE",
"362 116 OFFCURVE",
"357 110 CURVE SMOOTH",
"320 59 OFFCURVE",
"281 12 OFFCURVE",
"218 12 CURVE SMOOTH",
"134 12 OFFCURVE",
"91 84 OFFCURVE",
"91 189 CURVE SMOOTH",
"91 312 OFFCURVE",
"152 388 OFFCURVE",
"236 388 CURVE SMOOTH",
"284 388 OFFCURVE",
"310 371 OFFCURVE",
"342 339 CURVE SMOOTH",
"346 335 OFFCURVE",
"353 332 OFFCURVE",
"360 339 CURVE SMOOTH",
"369 348 OFFCURVE",
"367 352 OFFCURVE",
"364 357 CURVE SMOOTH",
"335 392 OFFCURVE",
"288 415 OFFCURVE",
"239 415 CURVE SMOOTH",
"127 415 OFFCURVE",
"60 316 OFFCURVE",
"60 186 CURVE SMOOTH",
"60 56 OFFCURVE",
"122 -15 OFFCURVE",
"214 -15 CURVE SMOOTH",
"282 -15 OFFCURVE",
"335 29 OFFCURVE",
"378 93 CURVE SMOOTH"
);
}
);
};
layerId = m003;
paths = (
{
closed = 1;
nodes = (
"384 101 OFFCURVE",
"380 108 OFFCURVE",
"374 112 CURVE SMOOTH",
"368 116 OFFCURVE",
"362 116 OFFCURVE",
"357 110 CURVE SMOOTH",
"320 59 OFFCURVE",
"281 12 OFFCURVE",
"218 12 CURVE SMOOTH",
"134 12 OFFCURVE",
"91 84 OFFCURVE",
"91 189 CURVE SMOOTH",
"91 312 OFFCURVE",
"152 388 OFFCURVE",
"236 388 CURVE SMOOTH",
"284 388 OFFCURVE",
"310 371 OFFCURVE",
"342 339 CURVE SMOOTH",
"346 335 OFFCURVE",
"353 332 OFFCURVE",
"360 339 CURVE SMOOTH",
"369 348 OFFCURVE",
"367 352 OFFCURVE",
"364 357 CURVE SMOOTH",
"335 392 OFFCURVE",
"288 415 OFFCURVE",
"239 415 CURVE SMOOTH",
"127 415 OFFCURVE",
"60 316 OFFCURVE",
"60 186 CURVE SMOOTH",
"60 56 OFFCURVE",
"122 -15 OFFCURVE",
"214 -15 CURVE SMOOTH",
"282 -15 OFFCURVE",
"335 29 OFFCURVE",
"378 93 CURVE SMOOTH"
);
}
);
width = 418;
},
{
background = {
paths = (
{
closed = 1;
nodes = (
"369 94 OFFCURVE",
"368 101 OFFCURVE",
"363 105 CURVE SMOOTH",
"359 109 OFFCURVE",
"353 112 OFFCURVE",
"346 105 CURVE SMOOTH",
"294 48 OFFCURVE",
"244 12 OFFCURVE",
"182 12 CURVE SMOOTH",
"118 12 OFFCURVE",
"84 55 OFFCURVE",
"84 134 CURVE SMOOTH",
"84 265 OFFCURVE",
"168 388 OFFCURVE",
"289 388 CURVE SMOOTH",
"342 388 OFFCURVE",
"368 366 OFFCURVE",
"389 341 CURVE SMOOTH",
"392 337 OFFCURVE",
"399 334 OFFCURVE",
"408 341 CURVE SMOOTH",
"418 348 OFFCURVE",
"417 352 OFFCURVE",
"415 357 CURVE SMOOTH",
"399 388 OFFCURVE",
"351 415 OFFCURVE",
"293 415 CURVE SMOOTH",
"156 415 OFFCURVE",
"53 289 OFFCURVE",
"53 134 CURVE SMOOTH",
"53 41 OFFCURVE",
"96 -15 OFFCURVE",
"179 -15 CURVE SMOOTH",
"246 -15 OFFCURVE",
"315 27 OFFCURVE",
"364 88 CURVE SMOOTH"
);
}
);
};
layerId = m004;
paths = (
{
closed = 1;
nodes = (
"369 94 OFFCURVE",
"368 101 OFFCURVE",
"363 105 CURVE SMOOTH",
"359 109 OFFCURVE",
"353 112 OFFCURVE",
"346 105 CURVE SMOOTH",
"294 48 OFFCURVE",
"244 12 OFFCURVE",
"182 12 CURVE SMOOTH",
"118 12 OFFCURVE",
"84 55 OFFCURVE",
"84 134 CURVE SMOOTH",
"84 265 OFFCURVE",
"168 388 OFFCURVE",
"289 388 CURVE SMOOTH",
"342 388 OFFCURVE",
"368 366 OFFCURVE",
"389 341 CURVE SMOOTH",
"392 337 OFFCURVE",
"399 334 OFFCURVE",
"408 341 CURVE SMOOTH",
"418 348 OFFCURVE",
"417 352 OFFCURVE",
"415 357 CURVE SMOOTH",
"399 388 OFFCURVE",
"351 415 OFFCURVE",
"293 415 CURVE SMOOTH",
"156 415 OFFCURVE",
"53 289 OFFCURVE",
"53 134 CURVE SMOOTH",
"53 41 OFFCURVE",
"96 -15 OFFCURVE",
"179 -15 CURVE SMOOTH",
"246 -15 OFFCURVE",
"315 27 OFFCURVE",
"364 88 CURVE SMOOTH"
);
}
);
width = 418;
},
{
background = {
paths = (
{
closed = 1;
nodes = (
"384 65 OFFCURVE",
"381 71 OFFCURVE",
"375 75 CURVE SMOOTH",
"369 79 OFFCURVE",
"362 80 OFFCURVE",
"357 74 CURVE SMOOTH",
"320 29 OFFCURVE",
"287 12 OFFCURVE",
"239 12 CURVE SMOOTH",
"136 12 OFFCURVE",
"91 89 OFFCURVE",
"91 194 CURVE SMOOTH",
"91 317 OFFCURVE",
"148 388 OFFCURVE",
"234 388 CURVE SMOOTH",
"282 388 OFFCURVE",
"310 371 OFFCURVE",
"342 339 CURVE SMOOTH",
"346 335 OFFCURVE",
"353 332 OFFCURVE",
"360 339 CURVE SMOOTH",
"369 348 OFFCURVE",
"367 352 OFFCURVE",
"364 357 CURVE SMOOTH",
"335 392 OFFCURVE",
"286 415 OFFCURVE",
"237 415 CURVE SMOOTH",
"123 415 OFFCURVE",
"60 321 OFFCURVE",
"60 191 CURVE SMOOTH",
"60 61 OFFCURVE",
"128 -15 OFFCURVE",
"238 -15 CURVE SMOOTH",
"288 -15 OFFCURVE",
"346 9 OFFCURVE",
"380 59 CURVE SMOOTH"
);
}
);
};
guideLines = (
{
angle = 90;
position = "{336, 145}";
},
{
position = "{222, 128}";
}
);
layerId = m01;
paths = (
{
closed = 1;
nodes = (
"384 65 OFFCURVE",
"381 71 OFFCURVE",
"375 75 CURVE SMOOTH",
"369 79 OFFCURVE",
"362 80 OFFCURVE",
"357 74 CURVE SMOOTH",
"320 29 OFFCURVE",
"287 12 OFFCURVE",
"239 12 CURVE SMOOTH",
"136 12 OFFCURVE",
"91 89 OFFCURVE",
"91 194 CURVE SMOOTH",
"91 317 OFFCURVE",
"148 388 OFFCURVE",
"234 388 CURVE SMOOTH",
"282 388 OFFCURVE",
"310 371 OFFCURVE",
"342 339 CURVE SMOOTH",
"346 335 OFFCURVE",
"353 332 OFFCURVE",
"360 339 CURVE SMOOTH",
"369 348 OFFCURVE",
"367 352 OFFCURVE",
"364 357 CURVE SMOOTH",
"335 392 OFFCURVE",
"286 415 OFFCURVE",
"237 415 CURVE SMOOTH",
"123 415 OFFCURVE",
"60 321 OFFCURVE",
"60 191 CURVE SMOOTH",
"60 61 OFFCURVE",
"128 -15 OFFCURVE",
"238 -15 CURVE SMOOTH",
"288 -15 OFFCURVE",
"346 9 OFFCURVE",
"380 59 CURVE SMOOTH"
);
}
);
width = 418;
}
);
leftMetricsKey = "=o";
unicode = 0063;
},
{
glyphname = d;
lastChange = "2022-08-29 06:03:06 +0000";
layers = (
{
background = {
paths = (
{
closed = 1;
nodes = (
"265 -14 OFFCURVE",
"337 8 OFFCURVE",
"370 123 CURVE",
"354 150 LINE",
"330 46 OFFCURVE",
"273 14 OFFCURVE",
"221 14 CURVE SMOOTH",
"136 14 OFFCURVE",
"92 90 OFFCURVE",
"92 194 CURVE SMOOTH",
"92 317 OFFCURVE",
"151 388 OFFCURVE",
"244 388 CURVE SMOOTH",
"281 388 OFFCURVE",
"317 378 OFFCURVE",
"359 349 CURVE",
"359 379 LINE",
"320 404 OFFCURVE",
"286 415 OFFCURVE",
"247 415 CURVE SMOOTH",
"125 415 OFFCURVE",
"60 321 OFFCURVE",
"60 191 CURVE SMOOTH",
"60 61 OFFCURVE",
"126 -14 OFFCURVE",
"215 -14 CURVE SMOOTH"
);
},
{
closed = 1;
nodes = (
"447 -14 OFFCURVE",
"477 3 OFFCURVE",
"495 28 CURVE SMOOTH",
"499 34 OFFCURVE",
"497 39 OFFCURVE",
"492 44 CURVE SMOOTH",
"486 50 OFFCURVE",
"481 50 OFFCURVE",
"476 44 CURVE SMOOTH",
"458 22 OFFCURVE",
"440 13 OFFCURVE",
"423 13 CURVE SMOOTH",
"395 13 OFFCURVE",
"383 32 OFFCURVE",
"383 70 CURVE SMOOTH",
"383 700 LINE SMOOTH",
"383 709 OFFCURVE",
"379 712 OFFCURVE",
"369 712 CURVE SMOOTH",
"359 712 OFFCURVE",
"354 709 OFFCURVE",
"354 700 CURVE SMOOTH",
"354 61 LINE SMOOTH",
"354 11 OFFCURVE",
"380 -14 OFFCURVE",
"420 -14 CURVE SMOOTH"
);
}
);
};
layerId = m01;
paths = (
{
closed = 1;
nodes = (
"265 -14 OFFCURVE",
"337 8 OFFCURVE",
"370 123 CURVE",
"354 150 LINE",
"330 46 OFFCURVE",
"273 14 OFFCURVE",
"221 14 CURVE SMOOTH",
"136 14 OFFCURVE",
"92 90 OFFCURVE",
"92 194 CURVE SMOOTH",
"92 317 OFFCURVE",
"151 388 OFFCURVE",
"244 388 CURVE SMOOTH",
"281 388 OFFCURVE",
"317 378 OFFCURVE",
"359 349 CURVE",
"359 379 LINE",
"320 404 OFFCURVE",
"286 415 OFFCURVE",
"247 415 CURVE SMOOTH",
"125 415 OFFCURVE",
"60 321 OFFCURVE",
"60 191 CURVE SMOOTH",
"60 61 OFFCURVE",
"126 -14 OFFCURVE",
"215 -14 CURVE SMOOTH"
);
},
{
closed = 1;
nodes = (
"447 -14 OFFCURVE",
"477 3 OFFCURVE",
"495 28 CURVE SMOOTH",
"499 34 OFFCURVE",
"497 39 OFFCURVE",
"492 44 CURVE SMOOTH",
"486 50 OFFCURVE",
"481 50 OFFCURVE",
"476 44 CURVE SMOOTH",
"458 22 OFFCURVE",
"440 13 OFFCURVE",
"423 13 CURVE SMOOTH",
"395 13 OFFCURVE",
"383 32 OFFCURVE",
"383 70 CURVE SMOOTH",
"383 700 LINE SMOOTH",
"383 709 OFFCURVE",
"379 712 OFFCURVE",
"369 712 CURVE SMOOTH",
"359 712 OFFCURVE",
"354 709 OFFCURVE",
"354 700 CURVE SMOOTH",
"354 61 LINE SMOOTH",
"354 11 OFFCURVE",
"380 -14 OFFCURVE",
"420 -14 CURVE SMOOTH"
);
}
);
width = 503;
},
{
background = {
paths = (
{
closed = 1;
nodes = (
"203 -14 OFFCURVE",
"284 8 OFFCURVE",
"346 123 CURVE",
"339 153 LINE",
"283 49 OFFCURVE",
"219 14 OFFCURVE",
"164 14 CURVE SMOOTH",
"86 14 OFFCURVE",
"66 95 OFFCURVE",
"91 199 CURVE SMOOTH",
"121 325 OFFCURVE",
"208 388 OFFCURVE",
"298 388 CURVE SMOOTH",
"329 388 OFFCURVE",
"364 380 OFFCURVE",
"408 350 CURVE",
"417 375 LINE",
"385 400 OFFCURVE",
"340 415 OFFCURVE",
"303 415 CURVE SMOOTH",
"182 415 OFFCURVE",
"89 329 OFFCURVE",
"57 196 CURVE SMOOTH",
"27 70 OFFCURVE",
"69 -14 OFFCURVE",
"158 -14 CURVE SMOOTH"
);
},
{
closed = 1;
nodes = (
"418 -14 OFFCURVE",
"446 19 OFFCURVE",
"466 53 CURVE SMOOTH",
"471 60 OFFCURVE",
"470 68 OFFCURVE",
"461 72 CURVE SMOOTH",
"451 77 OFFCURVE",
"445 71 OFFCURVE",
"441 65 CURVE SMOOTH",
"425 37 OFFCURVE",
"402 13 OFFCURVE",
"375 13 CURVE SMOOTH",
"348 13 OFFCURVE",
"331 38 OFFCURVE",
"349 92 CURVE SMOOTH",
"546 695 LINE SMOOTH",
"549 704 OFFCURVE",
"547 712 OFFCURVE",
"534 712 CURVE SMOOTH",
"523 712 OFFCURVE",
"519 709 OFFCURVE",
"516 700 CURVE SMOOTH",
"318 91 LINE SMOOTH",
"296 24 OFFCURVE",
"323 -14 OFFCURVE",
"371 -14 CURVE SMOOTH"
);
}
);
};
layerId = m002;
rightMetricsKey = "=n+9";
paths = (
{
closed = 1;
nodes = (
"203 -14 OFFCURVE",
"284 8 OFFCURVE",
"346 123 CURVE",
"339 153 LINE",
"283 49 OFFCURVE",
"219 14 OFFCURVE",
"164 14 CURVE SMOOTH",
"86 14 OFFCURVE",
"66 95 OFFCURVE",
"91 199 CURVE SMOOTH",
"121 325 OFFCURVE",
"208 388 OFFCURVE",
"298 388 CURVE SMOOTH",
"329 388 OFFCURVE",
"364 380 OFFCURVE",
"408 350 CURVE",
"417 375 LINE",
"385 400 OFFCURVE",
"340 415 OFFCURVE",
"303 415 CURVE SMOOTH",
"182 415 OFFCURVE",
"89 329 OFFCURVE",
"57 196 CURVE SMOOTH",
"27 70 OFFCURVE",
"69 -14 OFFCURVE",
"158 -14 CURVE SMOOTH"
);
},
{
closed = 1;
nodes = (
"418 -14 OFFCURVE",
"446 19 OFFCURVE",
"466 53 CURVE SMOOTH",
"471 60 OFFCURVE",
"470 68 OFFCURVE",
"461 72 CURVE SMOOTH",
"451 77 OFFCURVE",
"445 71 OFFCURVE",
"441 65 CURVE SMOOTH",
"425 37 OFFCURVE",
"402 13 OFFCURVE",
"375 13 CURVE SMOOTH",
"348 13 OFFCURVE",
"331 38 OFFCURVE",
"349 92 CURVE SMOOTH",
"546 695 LINE SMOOTH",
"549 704 OFFCURVE",
"547 712 OFFCURVE",
"534 712 CURVE SMOOTH",
"523 712 OFFCURVE",
"519 709 OFFCURVE",
"516 700 CURVE SMOOTH",
"318 91 LINE SMOOTH",
"296 24 OFFCURVE",
"323 -14 OFFCURVE",
"371 -14 CURVE SMOOTH"
);
}
);
width = 503;
},
{
background = {
paths = (
{
closed = 1;
nodes = (
"273 -14 OFFCURVE",
"337 63 OFFCURVE",
"370 273 CURVE",
"354 323 LINE",
"330 99 OFFCURVE",
"262 14 OFFCURVE",
"187 14 CURVE SMOOTH",
"118 14 OFFCURVE",
"92 92 OFFCURVE",
"92 179 CURVE SMOOTH",
"92 314 OFFCURVE",
"148 388 OFFCURVE",
"244 388 CURVE SMOOTH",
"275 388 OFFCURVE",
"315 380 OFFCURVE",
"359 349 CURVE",
"359 379 LINE",
"319 404 OFFCURVE",
"286 415 OFFCURVE",
"247 415 CURVE SMOOTH",
"120 415 OFFCURVE",
"60 318 OFFCURVE",
"60 178 CURVE SMOOTH",
"60 57 OFFCURVE",
"106 -14 OFFCURVE",
"183 -14 CURVE SMOOTH"
);
},
{
closed = 1;
nodes = (
"438 -14 OFFCURVE",
"474 15 OFFCURVE",
"494 71 CURVE SMOOTH",
"496 76 OFFCURVE",
"494 82 OFFCURVE",
"486 85 CURVE SMOOTH",
"479 88 OFFCURVE",
"472 88 OFFCURVE",
"469 80 CURVE SMOOTH",
"449 32 OFFCURVE",
"432 13 OFFCURVE",
"409 13 CURVE SMOOTH",
"387 13 OFFCURVE",
"383 37 OFFCURVE",
"383 71 CURVE SMOOTH",
"383 700 LINE SMOOTH",
"383 709 OFFCURVE",
"379 712 OFFCURVE",
"369 712 CURVE SMOOTH",
"359 712 OFFCURVE",
"354 709 OFFCURVE",
"354 700 CURVE SMOOTH",
"354 52 LINE SMOOTH",
"354 9 OFFCURVE",
"371 -14 OFFCURVE",
"405 -14 CURVE SMOOTH"
);
}
);
};
layerId = m003;
paths = (
{
closed = 1;
nodes = (
"273 -14 OFFCURVE",
"337 63 OFFCURVE",
"370 273 CURVE",
"354 323 LINE",
"330 99 OFFCURVE",
"262 14 OFFCURVE",
"187 14 CURVE SMOOTH",
"118 14 OFFCURVE",
"92 92 OFFCURVE",
"92 179 CURVE SMOOTH",
"92 314 OFFCURVE",
"148 388 OFFCURVE",
"244 388 CURVE SMOOTH",
"275 388 OFFCURVE",
"315 380 OFFCURVE",
"359 349 CURVE",
"359 379 LINE",
"319 404 OFFCURVE",
"286 415 OFFCURVE",
"247 415 CURVE SMOOTH",
"120 415 OFFCURVE",
"60 318 OFFCURVE",
"60 178 CURVE SMOOTH",
"60 57 OFFCURVE",
"106 -14 OFFCURVE",
"183 -14 CURVE SMOOTH"
);
},
{
closed = 1;
nodes = (
"438 -14 OFFCURVE",
"474 15 OFFCURVE",
"494 71 CURVE SMOOTH",
"496 76 OFFCURVE",
"494 82 OFFCURVE",
"486 85 CURVE SMOOTH",
"479 88 OFFCURVE",
"472 88 OFFCURVE",
"469 80 CURVE SMOOTH",
"449 32 OFFCURVE",
"432 13 OFFCURVE",
"409 13 CURVE SMOOTH",
"387 13 OFFCURVE",
"383 37 OFFCURVE",
"383 71 CURVE SMOOTH",
"383 700 LINE SMOOTH",
"383 709 OFFCURVE",
"379 712 OFFCURVE",
"369 712 CURVE SMOOTH",
"359 712 OFFCURVE",
"354 709 OFFCURVE",
"354 700 CURVE SMOOTH",
"354 52 LINE SMOOTH",
"354 9 OFFCURVE",
"371 -14 OFFCURVE",
"405 -14 CURVE SMOOTH"
);
}
);
width = 503;
},
{
background = {
paths = (
{
closed = 1;
nodes = (
"211 -14 OFFCURVE",
"302 78 OFFCURVE",
"401 292 CURVE",
"394 322 LINE",
"299 116 OFFCURVE",
"202 14 OFFCURVE",
"135 14 CURVE SMOOTH",
"73 14 OFFCURVE",
"57 92 OFFCURVE",
"84 185 CURVE SMOOTH",
"125 325 OFFCURVE",
"225 387 OFFCURVE",
"301 387 CURVE SMOOTH",
"332 387 OFFCURVE",
"366 382 OFFCURVE",
"410 354 CURVE",
"419 379 LINE",
"387 402 OFFCURVE",
"343 415 OFFCURVE",
"306 415 CURVE SMOOTH",
"199 415 OFFCURVE",
"95 329 OFFCURVE",
"53 187 CURVE SMOOTH",
"18 68 OFFCURVE",
"58 -14 OFFCURVE",
"130 -14 CURVE SMOOTH"
);
},
{
closed = 1;
nodes = (
"396 -12 OFFCURVE",
"442 41 OFFCURVE",
"463 71 CURVE SMOOTH",
"467 76 OFFCURVE",
"468 81 OFFCURVE",
"460 87 CURVE SMOOTH",
"454 92 OFFCURVE",
"450 92 OFFCURVE",
"444 85 CURVE SMOOTH",
"423 58 OFFCURVE",
"384 16 OFFCURVE",
"353 16 CURVE SMOOTH",
"331 16 OFFCURVE",
"331 38 OFFCURVE",
"343 74 CURVE SMOOTH",
"546 696 LINE SMOOTH",
"549 705 OFFCURVE",
"545 712 OFFCURVE",
"534 712 CURVE SMOOTH",
"523 712 OFFCURVE",
"518 709 OFFCURVE",
"515 700 CURVE SMOOTH",
"313 73 LINE SMOOTH",
"295 16 OFFCURVE",
"310 -12 OFFCURVE",
"347 -12 CURVE SMOOTH"
);
}
);
};
guideLines = (
{
angle = 72;
position = "{350, 96}";
}
);
layerId = m004;
paths = (
{
closed = 1;
nodes = (
"211 -14 OFFCURVE",
"302 78 OFFCURVE",
"401 292 CURVE",
"394 322 LINE",
"299 116 OFFCURVE",
"202 14 OFFCURVE",
"135 14 CURVE SMOOTH",
"73 14 OFFCURVE",
"57 92 OFFCURVE",
"84 185 CURVE SMOOTH",
"125 325 OFFCURVE",
"225 387 OFFCURVE",
"301 387 CURVE SMOOTH",
"332 387 OFFCURVE",
"366 382 OFFCURVE",
"410 354 CURVE",
"419 379 LINE",
"387 402 OFFCURVE",
"343 415 OFFCURVE",
"306 415 CURVE SMOOTH",
"199 415 OFFCURVE",
"95 329 OFFCURVE",
"53 187 CURVE SMOOTH",
"18 68 OFFCURVE",
"58 -14 OFFCURVE",
"130 -14 CURVE SMOOTH"
);
},
{
closed = 1;
nodes = (
"396 -12 OFFCURVE",
"442 41 OFFCURVE",
"463 71 CURVE SMOOTH",
"467 76 OFFCURVE",
"468 81 OFFCURVE",
"460 87 CURVE SMOOTH",
"454 92 OFFCURVE",
"450 92 OFFCURVE",
"444 85 CURVE SMOOTH",
"423 58 OFFCURVE",
"384 16 OFFCURVE",
"353 16 CURVE SMOOTH",
"331 16 OFFCURVE",
"331 38 OFFCURVE",
"343 74 CURVE SMOOTH",
"546 696 LINE SMOOTH",
"549 705 OFFCURVE",
"545 712 OFFCURVE",
"534 712 CURVE SMOOTH",
"523 712 OFFCURVE",
"518 709 OFFCURVE",
"515 700 CURVE SMOOTH",
"313 73 LINE SMOOTH",
"295 16 OFFCURVE",
"310 -12 OFFCURVE",
"347 -12 CURVE SMOOTH"
);
}
);
width = 503;
}
);
leftMetricsKey = "=o";
unicode = 0064;
},
{
glyphname = e;
lastChange = "2022-08-29 06:03:06 +0000";
layers = (
{
background = {
paths = (
{
closed = 1;
nodes = (
"316 -14 OFFCURVE",
"360 30 OFFCURVE",
"379 58 CURVE SMOOTH",
"384 65 OFFCURVE",
"379 71 OFFCURVE",
"374 75 CURVE SMOOTH",
"368 79 OFFCURVE",
"362 81 OFFCURVE",
"357 75 CURVE SMOOTH",
"340 54 OFFCURVE",
"311 13 OFFCURVE",
"237 13 CURVE SMOOTH",
"161 13 OFFCURVE",
"91 62 OFFCURVE",
"91 190 CURVE SMOOTH",
"91 330 OFFCURVE",
"166 388 OFFCURVE",
"244 388 CURVE SMOOTH",
"303 388 OFFCURVE",
"337 363 OFFCURVE",
"337 316 CURVE SMOOTH",
"337 230 OFFCURVE",
"221 193 OFFCURVE",
"86 194 CURVE",
"86 167 LINE",
"246 168 OFFCURVE",
"369 216 OFFCURVE",
"369 317 CURVE SMOOTH",
"369 365 OFFCURVE",
"336 415 OFFCURVE",
"247 415 CURVE SMOOTH",
"130 415 OFFCURVE",
"60 322 OFFCURVE",
"60 183 CURVE SMOOTH",
"60 71 OFFCURVE",
"119 -14 OFFCURVE",
"234 -14 CURVE SMOOTH"
);
}
);
};
layerId = m01;
paths = (
{
closed = 1;
nodes = (
"316 -14 OFFCURVE",
"360 30 OFFCURVE",
"379 58 CURVE SMOOTH",
"384 65 OFFCURVE",
"379 71 OFFCURVE",
"374 75 CURVE SMOOTH",
"368 79 OFFCURVE",
"362 81 OFFCURVE",
"357 75 CURVE SMOOTH",
"340 54 OFFCURVE",
"311 13 OFFCURVE",
"237 13 CURVE SMOOTH",
"161 13 OFFCURVE",
"91 62 OFFCURVE",
"91 190 CURVE SMOOTH",
"91 330 OFFCURVE",
"166 388 OFFCURVE",
"244 388 CURVE SMOOTH",
"303 388 OFFCURVE",
"337 363 OFFCURVE",
"337 316 CURVE SMOOTH",
"337 230 OFFCURVE",
"221 193 OFFCURVE",
"86 194 CURVE",
"86 167 LINE",
"246 168 OFFCURVE",
"369 216 OFFCURVE",
"369 317 CURVE SMOOTH",
"369 365 OFFCURVE",
"336 415 OFFCURVE",
"247 415 CURVE SMOOTH",
"130 415 OFFCURVE",
"60 322 OFFCURVE",
"60 183 CURVE SMOOTH",
"60 71 OFFCURVE",
"119 -14 OFFCURVE",
"234 -14 CURVE SMOOTH"
);
}
);
width = 421;
},
{
background = {
paths = (
{
closed = 1;
nodes = (
"260 -15 OFFCURVE",
"317 27 OFFCURVE",
"346 55 CURVE SMOOTH",
"353 62 OFFCURVE",
"349 70 OFFCURVE",
"345 74 CURVE SMOOTH",
"340 78 OFFCURVE",
"335 80 OFFCURVE",
"328 74 CURVE SMOOTH",
"304 53 OFFCURVE",
"261 12 OFFCURVE",
"190 12 CURVE SMOOTH",
"132 12 OFFCURVE",
"85 47 OFFCURVE",
"85 137 CURVE SMOOTH",
"85 268 OFFCURVE",
"169 388 OFFCURVE",
"296 388 CURVE SMOOTH",
"347 388 OFFCURVE",
"377 368 OFFCURVE",
"377 329 CURVE SMOOTH",
"377 231 OFFCURVE",
"227 196 OFFCURVE",
"86 194 CURVE",
"77 167 LINE",
"231 169 OFFCURVE",
"410 201 OFFCURVE",
"410 334 CURVE SMOOTH",
"410 377 OFFCURVE",
"380 415 OFFCURVE",
"300 415 CURVE SMOOTH",
"160 415 OFFCURVE",
"54 293 OFFCURVE",
"54 138 CURVE SMOOTH",
"54 56 OFFCURVE",
"87 -15 OFFCURVE",
"189 -15 CURVE SMOOTH"
);
}
);
};
layerId = m002;
rightMetricsKey = "=o-31";
paths = (
{
closed = 1;
nodes = (
"260 -15 OFFCURVE",
"317 27 OFFCURVE",
"346 55 CURVE SMOOTH",
"353 62 OFFCURVE",
"349 70 OFFCURVE",
"345 74 CURVE SMOOTH",
"340 78 OFFCURVE",
"335 80 OFFCURVE",
"328 74 CURVE SMOOTH",
"304 53 OFFCURVE",
"261 12 OFFCURVE",
"190 12 CURVE SMOOTH",
"132 12 OFFCURVE",
"85 47 OFFCURVE",
"85 137 CURVE SMOOTH",
"85 268 OFFCURVE",
"169 388 OFFCURVE",
"296 388 CURVE SMOOTH",
"347 388 OFFCURVE",
"377 368 OFFCURVE",
"377 329 CURVE SMOOTH",
"377 231 OFFCURVE",
"227 196 OFFCURVE",
"86 194 CURVE",
"77 167 LINE",
"231 169 OFFCURVE",
"410 201 OFFCURVE",
"410 334 CURVE SMOOTH",
"410 377 OFFCURVE",
"380 415 OFFCURVE",
"300 415 CURVE SMOOTH",
"160 415 OFFCURVE",
"54 293 OFFCURVE",
"54 138 CURVE SMOOTH",
"54 56 OFFCURVE",
"87 -15 OFFCURVE",
"189 -15 CURVE SMOOTH"
);
}
);
width = 421;
},
{
background = {
paths = (
{
closed = 1;
nodes = (
"291 -15 OFFCURVE",
"353 52 OFFCURVE",
"379 93 CURVE SMOOTH",
"384 100 OFFCURVE",
"379 106 OFFCURVE",
"374 110 CURVE SMOOTH",
"368 114 OFFCURVE",
"362 116 OFFCURVE",
"357 110 CURVE SMOOTH",
"333 76 OFFCURVE",
"286 12 OFFCURVE",
"217 12 CURVE SMOOTH",
"152 12 OFFCURVE",
"91 61 OFFCURVE",
"91 183 CURVE SMOOTH",
"91 330 OFFCURVE",
"172 388 OFFCURVE",
"244 388 CURVE SMOOTH",
"303 388 OFFCURVE",
"335 363 OFFCURVE",
"335 322 CURVE SMOOTH",
"335 235 OFFCURVE",
"177 185 OFFCURVE",
"86 165 CURVE",
"86 138 LINE",
"202 160 OFFCURVE",
"367 221 OFFCURVE",
"367 322 CURVE SMOOTH",
"367 365 OFFCURVE",
"336 415 OFFCURVE",
"247 415 CURVE SMOOTH",
"136 415 OFFCURVE",
"60 322 OFFCURVE",
"60 180 CURVE SMOOTH",
"60 70 OFFCURVE",
"108 -15 OFFCURVE",
"216 -15 CURVE SMOOTH"
);
}
);
};
layerId = m003;
paths = (
{
closed = 1;
nodes = (
"291 -15 OFFCURVE",
"353 52 OFFCURVE",
"379 93 CURVE SMOOTH",
"384 100 OFFCURVE",
"379 106 OFFCURVE",
"374 110 CURVE SMOOTH",
"368 114 OFFCURVE",
"362 116 OFFCURVE",
"357 110 CURVE SMOOTH",
"333 76 OFFCURVE",
"286 12 OFFCURVE",
"217 12 CURVE SMOOTH",
"152 12 OFFCURVE",
"91 61 OFFCURVE",
"91 183 CURVE SMOOTH",
"91 330 OFFCURVE",
"172 388 OFFCURVE",
"244 388 CURVE SMOOTH",
"303 388 OFFCURVE",
"335 363 OFFCURVE",
"335 322 CURVE SMOOTH",
"335 235 OFFCURVE",
"177 185 OFFCURVE",
"86 165 CURVE",
"86 138 LINE",
"202 160 OFFCURVE",
"367 221 OFFCURVE",
"367 322 CURVE SMOOTH",
"367 365 OFFCURVE",
"336 415 OFFCURVE",
"247 415 CURVE SMOOTH",
"136 415 OFFCURVE",
"60 322 OFFCURVE",
"60 180 CURVE SMOOTH",
"60 70 OFFCURVE",
"108 -15 OFFCURVE",
"216 -15 CURVE SMOOTH"
);
}
);
width = 421;
},
{
background = {
paths = (
{
closed = 1;
nodes = (
"261 -15 OFFCURVE",
"331 48 OFFCURVE",
"365 88 CURVE SMOOTH",
"371 96 OFFCURVE",
"368 102 OFFCURVE",
"363 106 CURVE SMOOTH",
"357 111 OFFCURVE",
"352 111 OFFCURVE",
"345 104 CURVE SMOOTH",
"316 72 OFFCURVE",
"256 12 OFFCURVE",
"184 12 CURVE SMOOTH",
"115 12 OFFCURVE",
"83 54 OFFCURVE",
"83 134 CURVE SMOOTH",
"83 263 OFFCURVE",
"168 388 OFFCURVE",
"295 388 CURVE SMOOTH",
"341 388 OFFCURVE",
"368 368 OFFCURVE",
"368 329 CURVE SMOOTH",
"368 231 OFFCURVE",
"202 187 OFFCURVE",
"78 163 CURVE",
"77 137 LINE",
"190 161 OFFCURVE",
"401 201 OFFCURVE",
"401 334 CURVE SMOOTH",
"401 377 OFFCURVE",
"374 415 OFFCURVE",
"299 415 CURVE SMOOTH",
"159 415 OFFCURVE",
"52 288 OFFCURVE",
"52 132 CURVE SMOOTH",
"52 38 OFFCURVE",
"96 -15 OFFCURVE",
"177 -15 CURVE SMOOTH"
);
}
);
};
layerId = m004;
rightMetricsKey = "=o-38";
paths = (
{
closed = 1;
nodes = (
"261 -15 OFFCURVE",
"331 48 OFFCURVE",
"365 88 CURVE SMOOTH",
"371 96 OFFCURVE",
"368 102 OFFCURVE",
"363 106 CURVE SMOOTH",
"357 111 OFFCURVE",
"352 111 OFFCURVE",
"345 104 CURVE SMOOTH",
"316 72 OFFCURVE",
"256 12 OFFCURVE",
"184 12 CURVE SMOOTH",
"115 12 OFFCURVE",
"83 54 OFFCURVE",
"83 134 CURVE SMOOTH",
"83 263 OFFCURVE",
"168 388 OFFCURVE",
"295 388 CURVE SMOOTH",
"341 388 OFFCURVE",
"368 368 OFFCURVE",
"368 329 CURVE SMOOTH",
"368 231 OFFCURVE",
"202 187 OFFCURVE",
"78 163 CURVE",
"77 137 LINE",
"190 161 OFFCURVE",
"401 201 OFFCURVE",
"401 334 CURVE SMOOTH",
"401 377 OFFCURVE",
"374 415 OFFCURVE",
"299 415 CURVE SMOOTH",
"159 415 OFFCURVE",
"52 288 OFFCURVE",
"52 132 CURVE SMOOTH",
"52 38 OFFCURVE",
"96 -15 OFFCURVE",
"177 -15 CURVE SMOOTH"
);
}
);
width = 421;
}
);
leftMetricsKey = "=o";
rightMetricsKey = "=o-20";
unicode = 0065;
},
{
glyphname = f;
lastChange = "2022-08-29 06:03:06 +0000";
layers = (
{
background = {
paths = (
{
closed = 1;
nodes = (
"111 -315 OFFCURVE",
"147 -287 OFFCURVE",
"147 -205 CURVE SMOOTH",
"147 591 LINE SMOOTH",
"147 666 OFFCURVE",
"173 688 OFFCURVE",
"218 688 CURVE SMOOTH",
"252 688 OFFCURVE",
"281 671 OFFCURVE",
"299 655 CURVE SMOOTH",
"305 649 OFFCURVE",
"312 648 OFFCURVE",
"317 653 CURVE SMOOTH",
"323 659 OFFCURVE",
"325 665 OFFCURVE",
"320 671 CURVE SMOOTH",
"299 694 OFFCURVE",
"260 715 OFFCURVE",
"221 715 CURVE SMOOTH",
"164 715 OFFCURVE",
"118 687 OFFCURVE",
"118 597 CURVE SMOOTH",
"118 -201 LINE SMOOTH",
"118 -266 OFFCURVE",
"101 -289 OFFCURVE",
"59 -289 CURVE SMOOTH",
"28 -289 OFFCURVE",
"9 -271 OFFCURVE",
"-5 -252 CURVE SMOOTH",
"-10 -245 OFFCURVE",
"-17 -245 OFFCURVE",
"-24 -250 CURVE SMOOTH",
"-31 -255 OFFCURVE",
"-32 -262 OFFCURVE",
"-28 -268 CURVE SMOOTH",
"-12 -294 OFFCURVE",
"18 -315 OFFCURVE",
"59 -315 CURVE SMOOTH"
);
},
{
closed = 1;
nodes = (
"274 374 LINE SMOOTH",
"279 374 OFFCURVE",
"283 379 OFFCURVE",
"283 388 CURVE SMOOTH",
"283 397 OFFCURVE",
"279 400 OFFCURVE",
"274 400 CURVE SMOOTH",
"32 400 LINE SMOOTH",
"27 400 OFFCURVE",
"23 396 OFFCURVE",
"23 387 CURVE SMOOTH",
"23 378 OFFCURVE",
"27 374 OFFCURVE",
"32 374 CURVE SMOOTH"
);
}
);
};
layerId = m01;
paths = (
{
closed = 1;
nodes = (
"111 -315 OFFCURVE",
"147 -287 OFFCURVE",
"147 -205 CURVE SMOOTH",
"147 591 LINE SMOOTH",
"147 666 OFFCURVE",
"173 688 OFFCURVE",
"218 688 CURVE SMOOTH",
"252 688 OFFCURVE",
"281 671 OFFCURVE",
"299 655 CURVE SMOOTH",
"305 649 OFFCURVE",
"312 648 OFFCURVE",
"317 653 CURVE SMOOTH",
"323 659 OFFCURVE",
"325 665 OFFCURVE",
"320 671 CURVE SMOOTH",
"299 694 OFFCURVE",
"260 715 OFFCURVE",
"221 715 CURVE SMOOTH",
"164 715 OFFCURVE",
"118 687 OFFCURVE",
"118 597 CURVE SMOOTH",
"118 -201 LINE SMOOTH",
"118 -266 OFFCURVE",
"101 -289 OFFCURVE",
"59 -289 CURVE SMOOTH",
"28 -289 OFFCURVE",
"9 -271 OFFCURVE",
"-5 -252 CURVE SMOOTH",
"-10 -245 OFFCURVE",
"-17 -245 OFFCURVE",
"-24 -250 CURVE SMOOTH",
"-31 -255 OFFCURVE",
"-32 -262 OFFCURVE",
"-28 -268 CURVE SMOOTH",
"-12 -294 OFFCURVE",
"18 -315 OFFCURVE",
"59 -315 CURVE SMOOTH"
);
},
{
closed = 1;
nodes = (
"274 374 LINE SMOOTH",
"279 374 OFFCURVE",
"283 379 OFFCURVE",
"283 388 CURVE SMOOTH",
"283 397 OFFCURVE",
"279 400 OFFCURVE",
"274 400 CURVE SMOOTH",
"32 400 LINE SMOOTH",
"27 400 OFFCURVE",
"23 396 OFFCURVE",
"23 387 CURVE SMOOTH",
"23 378 OFFCURVE",
"27 374 OFFCURVE",
"32 374 CURVE SMOOTH"
);
}
);
width = 293;
},
{
background = {
paths = (
{
closed = 1;
nodes = (
"-49 -315 OFFCURVE",
"-9 -287 OFFCURVE",
"15 -212 CURVE SMOOTH",
"277 591 LINE SMOOTH",
"300 663 OFFCURVE",
"334 688 OFFCURVE",
"379 688 CURVE SMOOTH",
"413 688 OFFCURVE",
"437 670 OFFCURVE",
"450 655 CURVE SMOOTH",
"455 650 OFFCURVE",
"463 649 OFFCURVE",
"469 654 CURVE SMOOTH",
"477 660 OFFCURVE",
"479 665 OFFCURVE",
"476 671 CURVE SMOOTH",
"462 694 OFFCURVE",
"428 715 OFFCURVE",
"383 715 CURVE SMOOTH",
"324 715 OFFCURVE",
"274 687 OFFCURVE",
"248 607 CURVE SMOOTH",
"-14 -201 LINE SMOOTH",
"-35 -266 OFFCURVE",
"-60 -288 OFFCURVE",
"-98 -288 CURVE SMOOTH",
"-127 -288 OFFCURVE",
"-140 -272 OFFCURVE",
"-151 -254 CURVE SMOOTH",
"-155 -246 OFFCURVE",
"-161 -244 OFFCURVE",
"-169 -249 CURVE SMOOTH",
"-178 -254 OFFCURVE",
"-181 -261 OFFCURVE",
"-179 -267 CURVE SMOOTH",
"-171 -292 OFFCURVE",
"-142 -315 OFFCURVE",
"-101 -315 CURVE SMOOTH"
);
},
{
closed = 1;
nodes = (
"334 374 LINE SMOOTH",
"339 374 OFFCURVE",
"345 379 OFFCURVE",
"347 388 CURVE SMOOTH",
"349 397 OFFCURVE",
"345 400 OFFCURVE",
"340 400 CURVE SMOOTH",
"99 400 LINE SMOOTH",
"94 400 OFFCURVE",
"89 396 OFFCURVE",
"87 387 CURVE SMOOTH",
"85 378 OFFCURVE",
"89 374 OFFCURVE",
"94 374 CURVE SMOOTH"
);
}
);
};
layerId = m002;
paths = (
{
closed = 1;
nodes = (
"-49 -315 OFFCURVE",
"-9 -287 OFFCURVE",
"15 -212 CURVE SMOOTH",
"277 591 LINE SMOOTH",
"300 663 OFFCURVE",
"334 688 OFFCURVE",
"379 688 CURVE SMOOTH",
"413 688 OFFCURVE",
"437 670 OFFCURVE",
"450 655 CURVE SMOOTH",
"455 650 OFFCURVE",
"463 649 OFFCURVE",
"469 654 CURVE SMOOTH",
"477 660 OFFCURVE",
"479 665 OFFCURVE",
"476 671 CURVE SMOOTH",
"462 694 OFFCURVE",
"428 715 OFFCURVE",
"383 715 CURVE SMOOTH",
"324 715 OFFCURVE",
"274 687 OFFCURVE",
"248 607 CURVE SMOOTH",
"-14 -201 LINE SMOOTH",
"-35 -266 OFFCURVE",
"-60 -288 OFFCURVE",
"-98 -288 CURVE SMOOTH",
"-127 -288 OFFCURVE",
"-140 -272 OFFCURVE",
"-151 -254 CURVE SMOOTH",
"-155 -246 OFFCURVE",
"-161 -244 OFFCURVE",
"-169 -249 CURVE SMOOTH",
"-178 -254 OFFCURVE",
"-181 -261 OFFCURVE",
"-179 -267 CURVE SMOOTH",
"-171 -292 OFFCURVE",
"-142 -315 OFFCURVE",
"-101 -315 CURVE SMOOTH"
);
},
{
closed = 1;
nodes = (
"334 374 LINE SMOOTH",
"339 374 OFFCURVE",
"345 379 OFFCURVE",
"347 388 CURVE SMOOTH",
"349 397 OFFCURVE",
"345 400 OFFCURVE",
"340 400 CURVE SMOOTH",
"99 400 LINE SMOOTH",
"94 400 OFFCURVE",
"89 396 OFFCURVE",
"87 387 CURVE SMOOTH",
"85 378 OFFCURVE",
"89 374 OFFCURVE",
"94 374 CURVE SMOOTH"
);
}
);
width = 293;
},
{
background = {
paths = (
{
closed = 1;
nodes = (
"122 -315 OFFCURVE",
"147 -287 OFFCURVE",
"147 -216 CURVE SMOOTH",
"147 591 LINE SMOOTH",
"147 666 OFFCURVE",
"173 688 OFFCURVE",
"218 688 CURVE SMOOTH",
"252 688 OFFCURVE",
"281 671 OFFCURVE",
"299 655 CURVE SMOOTH",
"305 649 OFFCURVE",
"312 648 OFFCURVE",
"317 653 CURVE SMOOTH",
"323 659 OFFCURVE",
"325 665 OFFCURVE",
"320 671 CURVE SMOOTH",
"299 694 OFFCURVE",
"260 715 OFFCURVE",
"221 715 CURVE SMOOTH",
"164 715 OFFCURVE",
"118 687 OFFCURVE",
"118 597 CURVE SMOOTH",
"118 -208 LINE SMOOTH",
"118 -266 OFFCURVE",
"111 -288 OFFCURVE",
"71 -288 CURVE SMOOTH",
"38 -288 OFFCURVE",
"10 -266 OFFCURVE",
"-5 -252 CURVE SMOOTH",
"-11 -246 OFFCURVE",
"-17 -245 OFFCURVE",
"-24 -250 CURVE SMOOTH",
"-31 -255 OFFCURVE",
"-33 -262 OFFCURVE",
"-28 -268 CURVE SMOOTH",
"-11 -289 OFFCURVE",
"29 -315 OFFCURVE",
"71 -315 CURVE SMOOTH"
);
},
{
closed = 1;
nodes = (
"274 374 LINE SMOOTH",
"279 374 OFFCURVE",
"283 379 OFFCURVE",
"283 388 CURVE SMOOTH",
"283 397 OFFCURVE",
"279 400 OFFCURVE",
"274 400 CURVE SMOOTH",
"32 400 LINE SMOOTH",
"27 400 OFFCURVE",
"23 396 OFFCURVE",
"23 387 CURVE SMOOTH",
"23 378 OFFCURVE",
"27 374 OFFCURVE",
"32 374 CURVE SMOOTH"
);
}
);
};
layerId = m003;
paths = (
{
closed = 1;
nodes = (
"122 -315 OFFCURVE",
"147 -287 OFFCURVE",
"147 -216 CURVE SMOOTH",
"147 591 LINE SMOOTH",
"147 666 OFFCURVE",
"173 688 OFFCURVE",
"218 688 CURVE SMOOTH",
"252 688 OFFCURVE",
"281 671 OFFCURVE",
"299 655 CURVE SMOOTH",
"305 649 OFFCURVE",
"312 648 OFFCURVE",
"317 653 CURVE SMOOTH",
"323 659 OFFCURVE",
"325 665 OFFCURVE",
"320 671 CURVE SMOOTH",
"299 694 OFFCURVE",
"260 715 OFFCURVE",
"221 715 CURVE SMOOTH",
"164 715 OFFCURVE",
"118 687 OFFCURVE",
"118 597 CURVE SMOOTH",
"118 -208 LINE SMOOTH",
"118 -266 OFFCURVE",
"111 -288 OFFCURVE",
"71 -288 CURVE SMOOTH",
"38 -288 OFFCURVE",
"10 -266 OFFCURVE",
"-5 -252 CURVE SMOOTH",
"-11 -246 OFFCURVE",
"-17 -245 OFFCURVE",
"-24 -250 CURVE SMOOTH",
"-31 -255 OFFCURVE",
"-33 -262 OFFCURVE",
"-28 -268 CURVE SMOOTH",
"-11 -289 OFFCURVE",
"29 -315 OFFCURVE",
"71 -315 CURVE SMOOTH"
);
},
{
closed = 1;
nodes = (
"274 374 LINE SMOOTH",
"279 374 OFFCURVE",
"283 379 OFFCURVE",
"283 388 CURVE SMOOTH",
"283 397 OFFCURVE",
"279 400 OFFCURVE",
"274 400 CURVE SMOOTH",
"32 400 LINE SMOOTH",
"27 400 OFFCURVE",
"23 396 OFFCURVE",
"23 387 CURVE SMOOTH",
"23 378 OFFCURVE",
"27 374 OFFCURVE",
"32 374 CURVE SMOOTH"
);
}
);
width = 293;
},
{
background = {
paths = (
{
closed = 1;
nodes = (
"-47 -315 OFFCURVE",
"-9 -287 OFFCURVE",
"12 -221 CURVE SMOOTH",
"277 591 LINE SMOOTH",
"300 663 OFFCURVE",
"334 688 OFFCURVE",
"379 688 CURVE SMOOTH",
"413 688 OFFCURVE",
"437 670 OFFCURVE",
"450 655 CURVE SMOOTH",
"455 650 OFFCURVE",
"463 649 OFFCURVE",
"469 654 CURVE SMOOTH",
"477 660 OFFCURVE",
"479 665 OFFCURVE",
"476 671 CURVE SMOOTH",
"462 694 OFFCURVE",
"428 715 OFFCURVE",
"383 715 CURVE SMOOTH",
"324 715 OFFCURVE",
"274 687 OFFCURVE",
"248 607 CURVE SMOOTH",
"-17 -210 LINE SMOOTH",
"-35 -266 OFFCURVE",
"-58 -288 OFFCURVE",
"-89 -288 CURVE SMOOTH",
"-121 -288 OFFCURVE",
"-143 -261 OFFCURVE",
"-160 -243 CURVE SMOOTH",
"-166 -236 OFFCURVE",
"-170 -233 OFFCURVE",
"-178 -238 CURVE SMOOTH",
"-187 -243 OFFCURVE",
"-193 -251 OFFCURVE",
"-187 -258 CURVE SMOOTH",
"-169 -282 OFFCURVE",
"-135 -315 OFFCURVE",
"-91 -315 CURVE SMOOTH"
);
},
{
closed = 1;
nodes = (
"334 374 LINE SMOOTH",
"339 374 OFFCURVE",
"345 379 OFFCURVE",
"347 388 CURVE SMOOTH",
"349 397 OFFCURVE",
"345 400 OFFCURVE",
"340 400 CURVE SMOOTH",
"99 400 LINE SMOOTH",
"94 400 OFFCURVE",
"89 396 OFFCURVE",
"87 387 CURVE SMOOTH",
"85 378 OFFCURVE",
"89 374 OFFCURVE",
"94 374 CURVE SMOOTH"
);
}
);
};
layerId = m004;
paths = (
{
closed = 1;
nodes = (
"-47 -315 OFFCURVE",
"-9 -287 OFFCURVE",
"12 -221 CURVE SMOOTH",
"277 591 LINE SMOOTH",
"300 663 OFFCURVE",
"334 688 OFFCURVE",
"379 688 CURVE SMOOTH",
"413 688 OFFCURVE",
"437 670 OFFCURVE",
"450 655 CURVE SMOOTH",
"455 650 OFFCURVE",
"463 649 OFFCURVE",
"469 654 CURVE SMOOTH",
"477 660 OFFCURVE",
"479 665 OFFCURVE",
"476 671 CURVE SMOOTH",
"462 694 OFFCURVE",
"428 715 OFFCURVE",
"383 715 CURVE SMOOTH",
"324 715 OFFCURVE",
"274 687 OFFCURVE",
"248 607 CURVE SMOOTH",
"-17 -210 LINE SMOOTH",
"-35 -266 OFFCURVE",
"-58 -288 OFFCURVE",
"-89 -288 CURVE SMOOTH",
"-121 -288 OFFCURVE",
"-143 -261 OFFCURVE",
"-160 -243 CURVE SMOOTH",
"-166 -236 OFFCURVE",
"-170 -233 OFFCURVE",
"-178 -238 CURVE SMOOTH",
"-187 -243 OFFCURVE",
"-193 -251 OFFCURVE",
"-187 -258 CURVE SMOOTH",
"-169 -282 OFFCURVE",
"-135 -315 OFFCURVE",
"-91 -315 CURVE SMOOTH"
);
},
{
closed = 1;
nodes = (
"334 374 LINE SMOOTH",
"339 374 OFFCURVE",
"345 379 OFFCURVE",
"347 388 CURVE SMOOTH",
"349 397 OFFCURVE",
"345 400 OFFCURVE",
"340 400 CURVE SMOOTH",
"99 400 LINE SMOOTH",
"94 400 OFFCURVE",
"89 396 OFFCURVE",
"87 387 CURVE SMOOTH",
"85 378 OFFCURVE",
"89 374 OFFCURVE",
"94 374 CURVE SMOOTH"
);
}
);
width = 293;
}
);
unicode = 0066;
},
{
glyphname = g;
lastChange = "2022-08-29 06:03:06 +0000";
layers = (
{
background = {
paths = (
{
closed = 1;
nodes = (
"322 -315 OFFCURVE",
"383 -252 OFFCURVE",
"383 -127 CURVE SMOOTH",
"383 400 LINE SMOOTH",
"383 409 OFFCURVE",
"379 412 OFFCURVE",
"369 412 CURVE SMOOTH",
"359 412 OFFCURVE",
"354 409 OFFCURVE",
"354 400 CURVE SMOOTH",
"354 -125 LINE SMOOTH",
"354 -236 OFFCURVE",
"306 -287 OFFCURVE",
"227 -287 CURVE SMOOTH",
"160 -287 OFFCURVE",
"124 -264 OFFCURVE",
"101 -216 CURVE SMOOTH",
"98 -209 OFFCURVE",
"92 -206 OFFCURVE",
"83 -211 CURVE SMOOTH",
"74 -216 OFFCURVE",
"72 -221 OFFCURVE",
"76 -229 CURVE SMOOTH",
"102 -284 OFFCURVE",
"149 -315 OFFCURVE",
"223 -315 CURVE SMOOTH"
);
},
{
closed = 1;
nodes = (
"265 -14 OFFCURVE",
"337 8 OFFCURVE",
"370 123 CURVE",
"354 150 LINE",
"330 46 OFFCURVE",
"273 14 OFFCURVE",
"221 14 CURVE SMOOTH",
"136 14 OFFCURVE",
"92 90 OFFCURVE",
"92 194 CURVE SMOOTH",
"92 317 OFFCURVE",
"151 388 OFFCURVE",
"244 388 CURVE SMOOTH",
"281 388 OFFCURVE",
"317 378 OFFCURVE",
"359 349 CURVE",
"359 379 LINE",
"320 404 OFFCURVE",
"286 415 OFFCURVE",
"247 415 CURVE SMOOTH",
"125 415 OFFCURVE",
"60 321 OFFCURVE",
"60 191 CURVE SMOOTH",
"60 61 OFFCURVE",
"126 -14 OFFCURVE",
"215 -14 CURVE SMOOTH"
);
}
);
};
layerId = m01;
paths = (
{
closed = 1;
nodes = (
"322 -315 OFFCURVE",
"383 -252 OFFCURVE",
"383 -127 CURVE SMOOTH",
"383 400 LINE SMOOTH",
"383 409 OFFCURVE",
"379 412 OFFCURVE",
"369 412 CURVE SMOOTH",
"359 412 OFFCURVE",
"354 409 OFFCURVE",
"354 400 CURVE SMOOTH",
"354 -125 LINE SMOOTH",
"354 -236 OFFCURVE",
"306 -287 OFFCURVE",
"227 -287 CURVE SMOOTH",
"160 -287 OFFCURVE",
"124 -264 OFFCURVE",
"101 -216 CURVE SMOOTH",
"98 -209 OFFCURVE",
"92 -206 OFFCURVE",
"83 -211 CURVE SMOOTH",
"74 -216 OFFCURVE",
"72 -221 OFFCURVE",
"76 -229 CURVE SMOOTH",
"102 -284 OFFCURVE",
"149 -315 OFFCURVE",
"223 -315 CURVE SMOOTH"
);
},
{
closed = 1;
nodes = (
"265 -14 OFFCURVE",
"337 8 OFFCURVE",
"370 123 CURVE",
"354 150 LINE",
"330 46 OFFCURVE",
"273 14 OFFCURVE",
"221 14 CURVE SMOOTH",
"136 14 OFFCURVE",
"92 90 OFFCURVE",
"92 194 CURVE SMOOTH",
"92 317 OFFCURVE",
"151 388 OFFCURVE",
"244 388 CURVE SMOOTH",
"281 388 OFFCURVE",
"317 378 OFFCURVE",
"359 349 CURVE",
"359 379 LINE",
"320 404 OFFCURVE",
"286 415 OFFCURVE",
"247 415 CURVE SMOOTH",
"125 415 OFFCURVE",
"60 321 OFFCURVE",
"60 191 CURVE SMOOTH",
"60 61 OFFCURVE",
"126 -14 OFFCURVE",
"215 -14 CURVE SMOOTH"
);
}
);
width = 478;
},
{
background = {
paths = (
{
closed = 1;
nodes = (
"191 -315 OFFCURVE",
"238 -255 OFFCURVE",
"280 -127 CURVE SMOOTH",
"450 395 LINE SMOOTH",
"453 404 OFFCURVE",
"451 412 OFFCURVE",
"438 412 CURVE SMOOTH",
"427 412 OFFCURVE",
"423 409 OFFCURVE",
"420 400 CURVE SMOOTH",
"250 -125 LINE SMOOTH",
"214 -236 OFFCURVE",
"173 -287 OFFCURVE",
"90 -287 CURVE SMOOTH",
"35 -287 OFFCURVE",
"4 -270 OFFCURVE",
"-16 -211 CURVE SMOOTH",
"-18 -204 OFFCURVE",
"-23 -201 OFFCURVE",
"-33 -205 CURVE SMOOTH",
"-44 -209 OFFCURVE",
"-46 -215 OFFCURVE",
"-44 -223 CURVE SMOOTH",
"-24 -284 OFFCURVE",
"16 -315 OFFCURVE",
"87 -315 CURVE SMOOTH"
);
},
{
closed = 1;
nodes = (
"205 -14 OFFCURVE",
"286 8 OFFCURVE",
"348 123 CURVE",
"341 153 LINE",
"285 49 OFFCURVE",
"221 14 OFFCURVE",
"166 14 CURVE SMOOTH",
"88 14 OFFCURVE",
"68 95 OFFCURVE",
"93 199 CURVE SMOOTH",
"123 325 OFFCURVE",
"210 388 OFFCURVE",
"300 388 CURVE SMOOTH",
"331 388 OFFCURVE",
"366 380 OFFCURVE",
"410 350 CURVE",
"419 375 LINE",
"387 400 OFFCURVE",
"342 415 OFFCURVE",
"305 415 CURVE SMOOTH",
"184 415 OFFCURVE",
"91 329 OFFCURVE",
"59 196 CURVE SMOOTH",
"29 70 OFFCURVE",
"71 -14 OFFCURVE",
"160 -14 CURVE SMOOTH"
);
}
);
};
guideLines = (
{
angle = 72;
position = "{409, 261}";
}
);
layerId = m002;
leftMetricsKey = "=o+2";
paths = (
{
closed = 1;
nodes = (
"191 -315 OFFCURVE",
"238 -255 OFFCURVE",
"280 -127 CURVE SMOOTH",
"450 395 LINE SMOOTH",
"453 404 OFFCURVE",
"451 412 OFFCURVE",
"438 412 CURVE SMOOTH",
"427 412 OFFCURVE",
"423 409 OFFCURVE",
"420 400 CURVE SMOOTH",
"250 -125 LINE SMOOTH",
"214 -236 OFFCURVE",
"173 -287 OFFCURVE",
"90 -287 CURVE SMOOTH",
"35 -287 OFFCURVE",
"4 -270 OFFCURVE",
"-16 -211 CURVE SMOOTH",
"-18 -204 OFFCURVE",
"-23 -201 OFFCURVE",
"-33 -205 CURVE SMOOTH",
"-44 -209 OFFCURVE",
"-46 -215 OFFCURVE",
"-44 -223 CURVE SMOOTH",
"-24 -284 OFFCURVE",
"16 -315 OFFCURVE",
"87 -315 CURVE SMOOTH"
);
},
{
closed = 1;
nodes = (
"205 -14 OFFCURVE",
"286 8 OFFCURVE",
"348 123 CURVE",
"341 153 LINE",
"285 49 OFFCURVE",
"221 14 OFFCURVE",
"166 14 CURVE SMOOTH",
"88 14 OFFCURVE",
"68 95 OFFCURVE",
"93 199 CURVE SMOOTH",
"123 325 OFFCURVE",
"210 388 OFFCURVE",
"300 388 CURVE SMOOTH",
"331 388 OFFCURVE",
"366 380 OFFCURVE",
"410 350 CURVE",
"419 375 LINE",
"387 400 OFFCURVE",
"342 415 OFFCURVE",
"305 415 CURVE SMOOTH",
"184 415 OFFCURVE",
"91 329 OFFCURVE",
"59 196 CURVE SMOOTH",
"29 70 OFFCURVE",
"71 -14 OFFCURVE",
"160 -14 CURVE SMOOTH"
);
}
);
width = 478;
},
{
background = {
paths = (
{
closed = 1;
nodes = (
"336 -315 OFFCURVE",
"383 -255 OFFCURVE",
"383 -130 CURVE SMOOTH",
"383 400 LINE SMOOTH",
"383 409 OFFCURVE",
"379 412 OFFCURVE",
"369 412 CURVE SMOOTH",
"359 412 OFFCURVE",
"354 409 OFFCURVE",
"354 400 CURVE SMOOTH",
"354 -128 LINE SMOOTH",
"354 -239 OFFCURVE",
"320 -287 OFFCURVE",
"251 -287 CURVE SMOOTH",
"187 -287 OFFCURVE",
"146 -262 OFFCURVE",
"110 -228 CURVE SMOOTH",
"104 -223 OFFCURVE",
"98 -221 OFFCURVE",
"91 -228 CURVE SMOOTH",
"84 -237 OFFCURVE",
"83 -242 OFFCURVE",
"90 -248 CURVE SMOOTH",
"131 -288 OFFCURVE",
"176 -315 OFFCURVE",
"247 -315 CURVE SMOOTH"
);
},
{
closed = 1;
nodes = (
"273 -14 OFFCURVE",
"337 63 OFFCURVE",
"370 273 CURVE",
"354 323 LINE",
"330 99 OFFCURVE",
"262 14 OFFCURVE",
"187 14 CURVE SMOOTH",
"118 14 OFFCURVE",
"92 92 OFFCURVE",
"92 179 CURVE SMOOTH",
"92 314 OFFCURVE",
"148 388 OFFCURVE",
"244 388 CURVE SMOOTH",
"275 388 OFFCURVE",
"315 380 OFFCURVE",
"359 349 CURVE",
"359 379 LINE",
"319 404 OFFCURVE",
"286 415 OFFCURVE",
"247 415 CURVE SMOOTH",
"120 415 OFFCURVE",
"60 318 OFFCURVE",
"60 178 CURVE SMOOTH",
"60 57 OFFCURVE",
"106 -14 OFFCURVE",
"183 -14 CURVE SMOOTH"
);
}
);
};
layerId = m003;
paths = (
{
closed = 1;
nodes = (
"336 -315 OFFCURVE",
"383 -255 OFFCURVE",
"383 -130 CURVE SMOOTH",
"383 400 LINE SMOOTH",
"383 409 OFFCURVE",
"379 412 OFFCURVE",
"369 412 CURVE SMOOTH",
"359 412 OFFCURVE",
"354 409 OFFCURVE",
"354 400 CURVE SMOOTH",
"354 -128 LINE SMOOTH",
"354 -239 OFFCURVE",
"320 -287 OFFCURVE",
"251 -287 CURVE SMOOTH",
"187 -287 OFFCURVE",
"146 -262 OFFCURVE",
"110 -228 CURVE SMOOTH",
"104 -223 OFFCURVE",
"98 -221 OFFCURVE",
"91 -228 CURVE SMOOTH",
"84 -237 OFFCURVE",
"83 -242 OFFCURVE",
"90 -248 CURVE SMOOTH",
"131 -288 OFFCURVE",
"176 -315 OFFCURVE",
"247 -315 CURVE SMOOTH"
);
},
{
closed = 1;
nodes = (
"273 -14 OFFCURVE",
"337 63 OFFCURVE",
"370 273 CURVE",
"354 323 LINE",
"330 99 OFFCURVE",
"262 14 OFFCURVE",
"187 14 CURVE SMOOTH",
"118 14 OFFCURVE",
"92 92 OFFCURVE",
"92 179 CURVE SMOOTH",
"92 314 OFFCURVE",
"148 388 OFFCURVE",
"244 388 CURVE SMOOTH",
"275 388 OFFCURVE",
"315 380 OFFCURVE",
"359 349 CURVE",
"359 379 LINE",
"319 404 OFFCURVE",
"286 415 OFFCURVE",
"247 415 CURVE SMOOTH",
"120 415 OFFCURVE",
"60 318 OFFCURVE",
"60 178 CURVE SMOOTH",
"60 57 OFFCURVE",
"106 -14 OFFCURVE",
"183 -14 CURVE SMOOTH"
);
}
);
width = 478;
},
{
background = {
paths = (
{
closed = 1;
nodes = (
"202 -315 OFFCURVE",
"236 -258 OFFCURVE",
"272 -148 CURVE SMOOTH",
"448 395 LINE SMOOTH",
"451 404 OFFCURVE",
"449 412 OFFCURVE",
"436 412 CURVE SMOOTH",
"425 412 OFFCURVE",
"421 409 OFFCURVE",
"418 400 CURVE SMOOTH",
"241 -146 LINE SMOOTH",
"211 -239 OFFCURVE",
"184 -287 OFFCURVE",
"116 -287 CURVE SMOOTH",
"66 -287 OFFCURVE",
"25 -262 OFFCURVE",
"-17 -216 CURVE SMOOTH",
"-22 -211 OFFCURVE",
"-27 -210 OFFCURVE",
"-35 -218 CURVE SMOOTH",
"-44 -225 OFFCURVE",
"-43 -233 OFFCURVE",
"-38 -239 CURVE SMOOTH",
"5 -286 OFFCURVE",
"54 -315 OFFCURVE",
"113 -315 CURVE SMOOTH"
);
},
{
closed = 1;
nodes = (
"211 -14 OFFCURVE",
"302 78 OFFCURVE",
"401 292 CURVE",
"394 322 LINE",
"299 116 OFFCURVE",
"202 14 OFFCURVE",
"135 14 CURVE SMOOTH",
"73 14 OFFCURVE",
"57 92 OFFCURVE",
"84 185 CURVE SMOOTH",
"125 325 OFFCURVE",
"225 387 OFFCURVE",
"301 387 CURVE SMOOTH",
"332 387 OFFCURVE",
"366 382 OFFCURVE",
"410 354 CURVE",
"419 379 LINE",
"387 402 OFFCURVE",
"343 415 OFFCURVE",
"306 415 CURVE SMOOTH",
"199 415 OFFCURVE",
"95 329 OFFCURVE",
"53 187 CURVE SMOOTH",
"18 68 OFFCURVE",
"58 -14 OFFCURVE",
"130 -14 CURVE SMOOTH"
);
}
);
};
layerId = m004;
paths = (
{
closed = 1;
nodes = (
"202 -315 OFFCURVE",
"236 -258 OFFCURVE",
"272 -148 CURVE SMOOTH",
"448 395 LINE SMOOTH",
"451 404 OFFCURVE",
"449 412 OFFCURVE",
"436 412 CURVE SMOOTH",
"425 412 OFFCURVE",
"421 409 OFFCURVE",
"418 400 CURVE SMOOTH",
"241 -146 LINE SMOOTH",
"211 -239 OFFCURVE",
"184 -287 OFFCURVE",
"116 -287 CURVE SMOOTH",
"66 -287 OFFCURVE",
"25 -262 OFFCURVE",
"-17 -216 CURVE SMOOTH",
"-22 -211 OFFCURVE",
"-27 -210 OFFCURVE",
"-35 -218 CURVE SMOOTH",
"-44 -225 OFFCURVE",
"-43 -233 OFFCURVE",
"-38 -239 CURVE SMOOTH",
"5 -286 OFFCURVE",
"54 -315 OFFCURVE",
"113 -315 CURVE SMOOTH"
);
},
{
closed = 1;
nodes = (
"211 -14 OFFCURVE",
"302 78 OFFCURVE",
"401 292 CURVE",
"394 322 LINE",
"299 116 OFFCURVE",
"202 14 OFFCURVE",
"135 14 CURVE SMOOTH",
"73 14 OFFCURVE",
"57 92 OFFCURVE",
"84 185 CURVE SMOOTH",
"125 325 OFFCURVE",
"225 387 OFFCURVE",
"301 387 CURVE SMOOTH",
"332 387 OFFCURVE",
"366 382 OFFCURVE",
"410 354 CURVE",
"419 379 LINE",
"387 402 OFFCURVE",
"343 415 OFFCURVE",
"306 415 CURVE SMOOTH",
"199 415 OFFCURVE",
"95 329 OFFCURVE",
"53 187 CURVE SMOOTH",
"18 68 OFFCURVE",
"58 -14 OFFCURVE",
"130 -14 CURVE SMOOTH"
);
}
);
width = 478;
}
);
leftMetricsKey = "=o";
unicode = 0067;
},
{
glyphname = h;
lastChange = "2022-08-29 06:03:06 +0000";
layers = (
{
background = {
paths = (
{
closed = 1;
nodes = (
"469 -14 OFFCURVE",
"500 3 OFFCURVE",
"518 28 CURVE SMOOTH",
"522 34 OFFCURVE",
"520 39 OFFCURVE",
"515 44 CURVE SMOOTH",
"509 50 OFFCURVE",
"503 49 OFFCURVE",
"498 42 CURVE SMOOTH",
"480 21 OFFCURVE",
"461 14 OFFCURVE",
"445 14 CURVE SMOOTH",
"417 14 OFFCURVE",
"407 36 OFFCURVE",
"407 74 CURVE SMOOTH",
"407 267 LINE SMOOTH",
"407 372 OFFCURVE",
"351 415 OFFCURVE",
"278 415 CURVE SMOOTH",
"218 415 OFFCURVE",
"140 392 OFFCURVE",
"111 277 CURVE",
"124 247 LINE",
"146 353 OFFCURVE",
"209 387 OFFCURVE",
"274 387 CURVE SMOOTH",
"348 387 OFFCURVE",
"378 340 OFFCURVE",
"378 261 CURVE SMOOTH",
"378 64 LINE SMOOTH",
"378 11 OFFCURVE",
"403 -14 OFFCURVE",
"440 -14 CURVE SMOOTH"
);
},
{
closed = 1;
nodes = (
"119 -12 OFFCURVE",
"124 -9 OFFCURVE",
"124 0 CURVE SMOOTH",
"124 700 LINE SMOOTH",
"124 709 OFFCURVE",
"119 712 OFFCURVE",
"109 712 CURVE SMOOTH",
"99 712 OFFCURVE",
"95 709 OFFCURVE",
"95 700 CURVE SMOOTH",
"95 0 LINE SMOOTH",
"95 -9 OFFCURVE",
"99 -12 OFFCURVE",
"109 -12 CURVE SMOOTH"
);
}
);
};
layerId = m01;
paths = (
{
closed = 1;
nodes = (
"469 -14 OFFCURVE",
"500 3 OFFCURVE",
"518 28 CURVE SMOOTH",
"522 34 OFFCURVE",
"520 39 OFFCURVE",
"515 44 CURVE SMOOTH",
"509 50 OFFCURVE",
"503 49 OFFCURVE",
"498 42 CURVE SMOOTH",
"480 21 OFFCURVE",
"461 14 OFFCURVE",
"445 14 CURVE SMOOTH",
"417 14 OFFCURVE",
"407 36 OFFCURVE",
"407 74 CURVE SMOOTH",
"407 267 LINE SMOOTH",
"407 372 OFFCURVE",
"351 415 OFFCURVE",
"278 415 CURVE SMOOTH",
"218 415 OFFCURVE",
"140 392 OFFCURVE",
"111 277 CURVE",
"124 247 LINE",
"146 353 OFFCURVE",
"209 387 OFFCURVE",
"274 387 CURVE SMOOTH",
"348 387 OFFCURVE",
"378 340 OFFCURVE",
"378 261 CURVE SMOOTH",
"378 64 LINE SMOOTH",
"378 11 OFFCURVE",
"403 -14 OFFCURVE",
"440 -14 CURVE SMOOTH"
);
},
{
closed = 1;
nodes = (
"119 -12 OFFCURVE",
"124 -9 OFFCURVE",
"124 0 CURVE SMOOTH",
"124 700 LINE SMOOTH",
"124 709 OFFCURVE",
"119 712 OFFCURVE",
"109 712 CURVE SMOOTH",
"99 712 OFFCURVE",
"95 709 OFFCURVE",
"95 700 CURVE SMOOTH",
"95 0 LINE SMOOTH",
"95 -9 OFFCURVE",
"99 -12 OFFCURVE",
"109 -12 CURVE SMOOTH"
);
}
);
width = 521;
},
{
background = {
paths = (
{
closed = 1;
nodes = (
"442 -14 OFFCURVE",
"473 19 OFFCURVE",
"493 53 CURVE SMOOTH",
"498 60 OFFCURVE",
"497 68 OFFCURVE",
"488 72 CURVE SMOOTH",
"478 77 OFFCURVE",
"472 71 OFFCURVE",
"469 65 CURVE SMOOTH",
"454 39 OFFCURVE",
"426 13 OFFCURVE",
"398 13 CURVE SMOOTH",
"370 13 OFFCURVE",
"358 37 OFFCURVE",
"376 93 CURVE SMOOTH",
"429 257 LINE SMOOTH",
"464 366 OFFCURVE",
"417 415 OFFCURVE",
"336 415 CURVE SMOOTH",
"282 415 OFFCURVE",
"197 394 OFFCURVE",
"137 277 CURVE",
"140 247 LINE",
"193 353 OFFCURVE",
"266 387 OFFCURVE",
"332 387 CURVE SMOOTH",
"406 387 OFFCURVE",
"425 339 OFFCURVE",
"402 269 CURVE SMOOTH",
"347 99 LINE SMOOTH",
"321 18 OFFCURVE",
"347 -14 OFFCURVE",
"395 -14 CURVE SMOOTH"
);
},
{
closed = 1;
nodes = (
"54 -12 OFFCURVE",
"57 -9 OFFCURVE",
"60 0 CURVE SMOOTH",
"288 699 LINE SMOOTH",
"291 707 OFFCURVE",
"285 712 OFFCURVE",
"275 712 CURVE SMOOTH",
"263 712 OFFCURVE",
"259 709 OFFCURVE",
"256 700 CURVE SMOOTH",
"28 0 LINE SMOOTH",
"25 -8 OFFCURVE",
"32 -12 OFFCURVE",
"42 -12 CURVE SMOOTH"
);
}
);
};
guideLines = (
{
angle = 72;
position = "{193, 507}";
}
);
layerId = m002;
paths = (
{
closed = 1;
nodes = (
"442 -14 OFFCURVE",
"473 19 OFFCURVE",
"493 53 CURVE SMOOTH",
"498 60 OFFCURVE",
"497 68 OFFCURVE",
"488 72 CURVE SMOOTH",
"478 77 OFFCURVE",
"472 71 OFFCURVE",
"469 65 CURVE SMOOTH",
"454 39 OFFCURVE",
"426 13 OFFCURVE",
"398 13 CURVE SMOOTH",
"370 13 OFFCURVE",
"358 37 OFFCURVE",
"376 93 CURVE SMOOTH",
"429 257 LINE SMOOTH",
"464 366 OFFCURVE",
"417 415 OFFCURVE",
"336 415 CURVE SMOOTH",
"282 415 OFFCURVE",
"197 394 OFFCURVE",
"137 277 CURVE",
"140 247 LINE",
"193 353 OFFCURVE",
"266 387 OFFCURVE",
"332 387 CURVE SMOOTH",
"406 387 OFFCURVE",
"425 339 OFFCURVE",
"402 269 CURVE SMOOTH",
"347 99 LINE SMOOTH",
"321 18 OFFCURVE",
"347 -14 OFFCURVE",
"395 -14 CURVE SMOOTH"
);
},
{
closed = 1;
nodes = (
"54 -12 OFFCURVE",
"57 -9 OFFCURVE",
"60 0 CURVE SMOOTH",
"288 699 LINE SMOOTH",
"291 707 OFFCURVE",
"285 712 OFFCURVE",
"275 712 CURVE SMOOTH",
"263 712 OFFCURVE",
"259 709 OFFCURVE",
"256 700 CURVE SMOOTH",
"28 0 LINE SMOOTH",
"25 -8 OFFCURVE",
"32 -12 OFFCURVE",
"42 -12 CURVE SMOOTH"
);
}
);
width = 521;
},
{
background = {
paths = (
{
closed = 1;
nodes = (
"461 -14 OFFCURVE",
"497 15 OFFCURVE",
"517 71 CURVE SMOOTH",
"519 76 OFFCURVE",
"517 82 OFFCURVE",
"509 85 CURVE SMOOTH",
"502 88 OFFCURVE",
"495 88 OFFCURVE",
"492 80 CURVE SMOOTH",
"472 32 OFFCURVE",
"455 13 OFFCURVE",
"433 13 CURVE SMOOTH",
"411 13 OFFCURVE",
"407 37 OFFCURVE",
"407 65 CURVE SMOOTH",
"407 285 LINE SMOOTH",
"407 385 OFFCURVE",
"364 415 OFFCURVE",
"310 415 CURVE SMOOTH",
"242 415 OFFCURVE",
"140 347 OFFCURVE",
"114 112 CURVE",
"124 38 LINE",
"150 316 OFFCURVE",
"240 388 OFFCURVE",
"309 388 CURVE SMOOTH",
"360 388 OFFCURVE",
"377 352 OFFCURVE",
"377 277 CURVE SMOOTH",
"377 54 LINE SMOOTH",
"377 9 OFFCURVE",
"395 -14 OFFCURVE",
"429 -14 CURVE SMOOTH"
);
},
{
closed = 1;
nodes = (
"119 -12 OFFCURVE",
"124 -9 OFFCURVE",
"124 0 CURVE SMOOTH",
"124 700 LINE SMOOTH",
"124 709 OFFCURVE",
"119 712 OFFCURVE",
"109 712 CURVE SMOOTH",
"99 712 OFFCURVE",
"95 709 OFFCURVE",
"95 700 CURVE SMOOTH",
"95 0 LINE SMOOTH",
"95 -9 OFFCURVE",
"99 -12 OFFCURVE",
"109 -12 CURVE SMOOTH"
);
}
);
};
layerId = m003;
paths = (
{
closed = 1;
nodes = (
"461 -14 OFFCURVE",
"497 15 OFFCURVE",
"517 71 CURVE SMOOTH",
"519 76 OFFCURVE",
"517 82 OFFCURVE",
"509 85 CURVE SMOOTH",
"502 88 OFFCURVE",
"495 88 OFFCURVE",
"492 80 CURVE SMOOTH",
"472 32 OFFCURVE",
"455 13 OFFCURVE",
"433 13 CURVE SMOOTH",
"411 13 OFFCURVE",
"407 37 OFFCURVE",
"407 65 CURVE SMOOTH",
"407 285 LINE SMOOTH",
"407 385 OFFCURVE",
"364 415 OFFCURVE",
"310 415 CURVE SMOOTH",
"242 415 OFFCURVE",
"140 347 OFFCURVE",
"114 112 CURVE",
"124 38 LINE",
"150 316 OFFCURVE",
"240 388 OFFCURVE",
"309 388 CURVE SMOOTH",
"360 388 OFFCURVE",
"377 352 OFFCURVE",
"377 277 CURVE SMOOTH",
"377 54 LINE SMOOTH",
"377 9 OFFCURVE",
"395 -14 OFFCURVE",
"429 -14 CURVE SMOOTH"
);
},
{
closed = 1;
nodes = (
"119 -12 OFFCURVE",
"124 -9 OFFCURVE",
"124 0 CURVE SMOOTH",
"124 700 LINE SMOOTH",
"124 709 OFFCURVE",
"119 712 OFFCURVE",
"109 712 CURVE SMOOTH",
"99 712 OFFCURVE",
"95 709 OFFCURVE",
"95 700 CURVE SMOOTH",
"95 0 LINE SMOOTH",
"95 -9 OFFCURVE",
"99 -12 OFFCURVE",
"109 -12 CURVE SMOOTH"
);
}
);
width = 521;
},
{
background = {
paths = (
{
closed = 1;
nodes = (
"417 -12 OFFCURVE",
"464 41 OFFCURVE",
"485 71 CURVE SMOOTH",
"489 76 OFFCURVE",
"490 81 OFFCURVE",
"482 87 CURVE SMOOTH",
"476 92 OFFCURVE",
"472 92 OFFCURVE",
"466 85 CURVE SMOOTH",
"445 58 OFFCURVE",
"407 16 OFFCURVE",
"374 16 CURVE SMOOTH",
"352 16 OFFCURVE",
"352 37 OFFCURVE",
"367 82 CURVE SMOOTH",
"435 280 LINE SMOOTH",
"469 379 OFFCURVE",
"428 415 OFFCURVE",
"374 415 CURVE SMOOTH",
"303 415 OFFCURVE",
"186 345 OFFCURVE",
"84 110 CURVE",
"72 38 LINE",
"186 316 OFFCURVE",
"302 387 OFFCURVE",
"370 387 CURVE SMOOTH",
"415 387 OFFCURVE",
"430 354 OFFCURVE",
"403 275 CURVE SMOOTH",
"337 81 LINE SMOOTH",
"315 15 OFFCURVE",
"331 -12 OFFCURVE",
"368 -12 CURVE SMOOTH"
);
},
{
closed = 1;
nodes = (
"54 -12 OFFCURVE",
"57 -9 OFFCURVE",
"60 0 CURVE SMOOTH",
"288 699 LINE SMOOTH",
"291 707 OFFCURVE",
"285 712 OFFCURVE",
"275 712 CURVE SMOOTH",
"263 712 OFFCURVE",
"259 709 OFFCURVE",
"256 700 CURVE SMOOTH",
"28 0 LINE SMOOTH",
"25 -8 OFFCURVE",
"32 -12 OFFCURVE",
"42 -12 CURVE SMOOTH"
);
}
);
};
layerId = m004;
paths = (
{
closed = 1;
nodes = (
"417 -12 OFFCURVE",
"464 41 OFFCURVE",
"485 71 CURVE SMOOTH",
"489 76 OFFCURVE",
"490 81 OFFCURVE",
"482 87 CURVE SMOOTH",
"476 92 OFFCURVE",
"472 92 OFFCURVE",
"466 85 CURVE SMOOTH",
"445 58 OFFCURVE",
"407 16 OFFCURVE",
"374 16 CURVE SMOOTH",
"352 16 OFFCURVE",
"352 37 OFFCURVE",
"367 82 CURVE SMOOTH",
"435 280 LINE SMOOTH",
"469 379 OFFCURVE",
"428 415 OFFCURVE",
"374 415 CURVE SMOOTH",
"303 415 OFFCURVE",
"186 345 OFFCURVE",
"84 110 CURVE",
"72 38 LINE",
"186 316 OFFCURVE",
"302 387 OFFCURVE",
"370 387 CURVE SMOOTH",
"415 387 OFFCURVE",
"430 354 OFFCURVE",
"403 275 CURVE SMOOTH",
"337 81 LINE SMOOTH",
"315 15 OFFCURVE",
"331 -12 OFFCURVE",
"368 -12 CURVE SMOOTH"
);
},
{
closed = 1;
nodes = (
"54 -12 OFFCURVE",
"57 -9 OFFCURVE",
"60 0 CURVE SMOOTH",
"288 699 LINE SMOOTH",
"291 707 OFFCURVE",
"285 712 OFFCURVE",
"275 712 CURVE SMOOTH",
"263 712 OFFCURVE",
"259 709 OFFCURVE",
"256 700 CURVE SMOOTH",
"28 0 LINE SMOOTH",
"25 -8 OFFCURVE",
"32 -12 OFFCURVE",
"42 -12 CURVE SMOOTH"
);
}
);
width = 521;
}
);
leftMetricsKey = "=b";
rightMetricsKey = "=n";
unicode = 0068;
},
{
glyphname = i;
lastChange = "2022-08-29 06:03:06 +0000";
layers = (
{
background = {
paths = (
{
closed = 1;
nodes = (
"183 -14 OFFCURVE",
"214 3 OFFCURVE",
"232 28 CURVE SMOOTH",
"236 34 OFFCURVE",
"234 39 OFFCURVE",
"229 44 CURVE SMOOTH",
"223 50 OFFCURVE",
"217 49 OFFCURVE",
"212 42 CURVE SMOOTH",
"194 21 OFFCURVE",
"175 14 OFFCURVE",
"158 14 CURVE SMOOTH",
"129 14 OFFCURVE",
"119 36 OFFCURVE",
"119 74 CURVE SMOOTH",
"119 400 LINE SMOOTH",
"119 409 OFFCURVE",
"114 412 OFFCURVE",
"104 412 CURVE SMOOTH",
"94 412 OFFCURVE",
"90 409 OFFCURVE",
"90 400 CURVE SMOOTH",
"90 64 LINE SMOOTH",
"90 11 OFFCURVE",
"115 -14 OFFCURVE",
"153 -14 CURVE SMOOTH"
);
},
{
closed = 1;
nodes = (
"124 552 OFFCURVE",
"134 563 OFFCURVE",
"134 586 CURVE SMOOTH",
"134 609 OFFCURVE",
"124 620 OFFCURVE",
"104 620 CURVE SMOOTH",
"84 620 OFFCURVE",
"74 609 OFFCURVE",
"74 586 CURVE SMOOTH",
"74 563 OFFCURVE",
"84 552 OFFCURVE",
"104 552 CURVE SMOOTH"
);
}
);
};
layerId = m01;
paths = (
{
closed = 1;
nodes = (
"183 -14 OFFCURVE",
"214 3 OFFCURVE",
"232 28 CURVE SMOOTH",
"236 34 OFFCURVE",
"234 39 OFFCURVE",
"229 44 CURVE SMOOTH",
"223 50 OFFCURVE",
"217 49 OFFCURVE",
"212 42 CURVE SMOOTH",
"194 21 OFFCURVE",
"175 14 OFFCURVE",
"158 14 CURVE SMOOTH",
"129 14 OFFCURVE",
"119 36 OFFCURVE",
"119 74 CURVE SMOOTH",
"119 400 LINE SMOOTH",
"119 409 OFFCURVE",
"114 412 OFFCURVE",
"104 412 CURVE SMOOTH",
"94 412 OFFCURVE",
"90 409 OFFCURVE",
"90 400 CURVE SMOOTH",
"90 64 LINE SMOOTH",
"90 11 OFFCURVE",
"115 -14 OFFCURVE",
"153 -14 CURVE SMOOTH"
);
},
{
closed = 1;
nodes = (
"124 552 OFFCURVE",
"134 563 OFFCURVE",
"134 586 CURVE SMOOTH",
"134 609 OFFCURVE",
"124 620 OFFCURVE",
"104 620 CURVE SMOOTH",
"84 620 OFFCURVE",
"74 609 OFFCURVE",
"74 586 CURVE SMOOTH",
"74 563 OFFCURVE",
"84 552 OFFCURVE",
"104 552 CURVE SMOOTH"
);
}
);
width = 240;
},
{
background = {
paths = (
{
closed = 1;
nodes = (
"152 -14 OFFCURVE",
"183 19 OFFCURVE",
"203 53 CURVE SMOOTH",
"208 60 OFFCURVE",
"207 68 OFFCURVE",
"198 72 CURVE SMOOTH",
"188 77 OFFCURVE",
"182 71 OFFCURVE",
"179 65 CURVE SMOOTH",
"164 39 OFFCURVE",
"136 13 OFFCURVE",
"109 13 CURVE SMOOTH",
"81 13 OFFCURVE",
"69 37 OFFCURVE",
"87 93 CURVE SMOOTH",
"187 399 LINE",
"190 407 OFFCURVE",
"184 412 OFFCURVE",
"174 412 CURVE SMOOTH",
"162 412 OFFCURVE",
"158 409 OFFCURVE",
"155 400 CURVE",
"57 99 LINE SMOOTH",
"31 18 OFFCURVE",
"58 -14 OFFCURVE",
"106 -14 CURVE SMOOTH"
);
},
{
closed = 1;
nodes = (
"242 552 OFFCURVE",
"257 574 OFFCURVE",
"257 597 CURVE SMOOTH",
"257 613 OFFCURVE",
"245 620 OFFCURVE",
"228 620 CURVE SMOOTH",
"203 620 OFFCURVE",
"188 598 OFFCURVE",
"188 575 CURVE SMOOTH",
"188 559 OFFCURVE",
"199 552 OFFCURVE",
"217 552 CURVE SMOOTH"
);
}
);
};
guideLines = (
{
angle = 72;
position = "{184, 489}";
}
);
layerId = m002;
paths = (
{
closed = 1;
nodes = (
"152 -14 OFFCURVE",
"183 19 OFFCURVE",
"203 53 CURVE SMOOTH",
"208 60 OFFCURVE",
"207 68 OFFCURVE",
"198 72 CURVE SMOOTH",
"188 77 OFFCURVE",
"182 71 OFFCURVE",
"179 65 CURVE SMOOTH",
"164 39 OFFCURVE",
"136 13 OFFCURVE",
"109 13 CURVE SMOOTH",
"81 13 OFFCURVE",
"69 37 OFFCURVE",
"87 93 CURVE SMOOTH",
"187 399 LINE",
"190 407 OFFCURVE",
"184 412 OFFCURVE",
"174 412 CURVE SMOOTH",
"162 412 OFFCURVE",
"158 409 OFFCURVE",
"155 400 CURVE",
"57 99 LINE SMOOTH",
"31 18 OFFCURVE",
"58 -14 OFFCURVE",
"106 -14 CURVE SMOOTH"
);
},
{
closed = 1;
nodes = (
"242 552 OFFCURVE",
"257 574 OFFCURVE",
"257 597 CURVE SMOOTH",
"257 613 OFFCURVE",
"245 620 OFFCURVE",
"228 620 CURVE SMOOTH",
"203 620 OFFCURVE",
"188 598 OFFCURVE",
"188 575 CURVE SMOOTH",
"188 559 OFFCURVE",
"199 552 OFFCURVE",
"217 552 CURVE SMOOTH"
);
}
);
width = 240;
},
{
background = {
paths = (
{
closed = 1;
nodes = (
"175 -14 OFFCURVE",
"211 15 OFFCURVE",
"231 71 CURVE SMOOTH",
"233 76 OFFCURVE",
"231 82 OFFCURVE",
"223 85 CURVE SMOOTH",
"216 88 OFFCURVE",
"209 88 OFFCURVE",
"206 80 CURVE SMOOTH",
"186 32 OFFCURVE",
"169 13 OFFCURVE",
"146 13 CURVE SMOOTH",
"124 13 OFFCURVE",
"120 37 OFFCURVE",
"120 65 CURVE SMOOTH",
"120 400 LINE SMOOTH",
"120 409 OFFCURVE",
"115 412 OFFCURVE",
"105 412 CURVE SMOOTH",
"95 412 OFFCURVE",
"90 409 OFFCURVE",
"90 400 CURVE SMOOTH",
"90 54 LINE SMOOTH",
"90 9 OFFCURVE",
"108 -14 OFFCURVE",
"142 -14 CURVE SMOOTH"
);
},
{
closed = 1;
nodes = (
"124 552 OFFCURVE",
"134 563 OFFCURVE",
"134 586 CURVE SMOOTH",
"134 609 OFFCURVE",
"124 620 OFFCURVE",
"104 620 CURVE SMOOTH",
"84 620 OFFCURVE",
"74 609 OFFCURVE",
"74 586 CURVE SMOOTH",
"74 563 OFFCURVE",
"84 552 OFFCURVE",
"104 552 CURVE SMOOTH"
);
}
);
};
layerId = m003;
paths = (
{
closed = 1;
nodes = (
"175 -14 OFFCURVE",
"211 15 OFFCURVE",
"231 71 CURVE SMOOTH",
"233 76 OFFCURVE",
"231 82 OFFCURVE",
"223 85 CURVE SMOOTH",
"216 88 OFFCURVE",
"209 88 OFFCURVE",
"206 80 CURVE SMOOTH",
"186 32 OFFCURVE",
"169 13 OFFCURVE",
"146 13 CURVE SMOOTH",
"124 13 OFFCURVE",
"120 37 OFFCURVE",
"120 65 CURVE SMOOTH",
"120 400 LINE SMOOTH",
"120 409 OFFCURVE",
"115 412 OFFCURVE",
"105 412 CURVE SMOOTH",
"95 412 OFFCURVE",
"90 409 OFFCURVE",
"90 400 CURVE SMOOTH",
"90 54 LINE SMOOTH",
"90 9 OFFCURVE",
"108 -14 OFFCURVE",
"142 -14 CURVE SMOOTH"
);
},
{
closed = 1;
nodes = (
"124 552 OFFCURVE",
"134 563 OFFCURVE",
"134 586 CURVE SMOOTH",
"134 609 OFFCURVE",
"124 620 OFFCURVE",
"104 620 CURVE SMOOTH",
"84 620 OFFCURVE",
"74 609 OFFCURVE",
"74 586 CURVE SMOOTH",
"74 563 OFFCURVE",
"84 552 OFFCURVE",
"104 552 CURVE SMOOTH"
);
}
);
width = 240;
},
{
background = {
paths = (
{
closed = 1;
nodes = (
"132 -12 OFFCURVE",
"179 41 OFFCURVE",
"200 71 CURVE SMOOTH",
"204 76 OFFCURVE",
"205 81 OFFCURVE",
"197 87 CURVE SMOOTH",
"191 92 OFFCURVE",
"187 92 OFFCURVE",
"181 85 CURVE SMOOTH",
"160 58 OFFCURVE",
"122 16 OFFCURVE",
"89 16 CURVE SMOOTH",
"67 16 OFFCURVE",
"67 37 OFFCURVE",
"82 82 CURVE SMOOTH",
"186 398 LINE SMOOTH",
"189 406 OFFCURVE",
"183 412 OFFCURVE",
"173 412 CURVE SMOOTH",
"161 412 OFFCURVE",
"158 409 OFFCURVE",
"155 400 CURVE SMOOTH",
"51 81 LINE SMOOTH",
"29 15 OFFCURVE",
"46 -12 OFFCURVE",
"83 -12 CURVE SMOOTH"
);
},
{
closed = 1;
nodes = (
"245 552 OFFCURVE",
"260 574 OFFCURVE",
"260 597 CURVE SMOOTH",
"260 613 OFFCURVE",
"248 620 OFFCURVE",
"231 620 CURVE SMOOTH",
"206 620 OFFCURVE",
"191 598 OFFCURVE",
"191 575 CURVE SMOOTH",
"191 559 OFFCURVE",
"202 552 OFFCURVE",
"220 552 CURVE SMOOTH"
);
}
);
};
layerId = m004;
paths = (
{
closed = 1;
nodes = (
"132 -12 OFFCURVE",
"179 41 OFFCURVE",
"200 71 CURVE SMOOTH",
"204 76 OFFCURVE",
"205 81 OFFCURVE",
"197 87 CURVE SMOOTH",
"191 92 OFFCURVE",
"187 92 OFFCURVE",
"181 85 CURVE SMOOTH",
"160 58 OFFCURVE",
"122 16 OFFCURVE",
"89 16 CURVE SMOOTH",
"67 16 OFFCURVE",
"67 37 OFFCURVE",
"82 82 CURVE SMOOTH",
"186 398 LINE SMOOTH",
"189 406 OFFCURVE",
"183 412 OFFCURVE",
"173 412 CURVE SMOOTH",
"161 412 OFFCURVE",
"158 409 OFFCURVE",
"155 400 CURVE SMOOTH",
"51 81 LINE SMOOTH",
"29 15 OFFCURVE",
"46 -12 OFFCURVE",
"83 -12 CURVE SMOOTH"
);
},
{
closed = 1;
nodes = (
"245 552 OFFCURVE",
"260 574 OFFCURVE",
"260 597 CURVE SMOOTH",
"260 613 OFFCURVE",
"248 620 OFFCURVE",
"231 620 CURVE SMOOTH",
"206 620 OFFCURVE",
"191 598 OFFCURVE",
"191 575 CURVE SMOOTH",
"191 559 OFFCURVE",
"202 552 OFFCURVE",
"220 552 CURVE SMOOTH"
);
}
);
width = 240;
}
);
rightMetricsKey = "=d";
unicode = 0069;
},
{
glyphname = j;
lastChange = "2022-08-29 06:03:06 +0000";
layers = (
{
background = {
paths = (
{
closed = 1;
nodes = (
"94 -314 OFFCURVE",
"119 -271 OFFCURVE",
"119 -208 CURVE SMOOTH",
"119 400 LINE SMOOTH",
"119 409 OFFCURVE",
"115 412 OFFCURVE",
"105 412 CURVE SMOOTH",
"95 412 OFFCURVE",
"90 409 OFFCURVE",
"90 400 CURVE SMOOTH",
"90 -206 LINE SMOOTH",
"90 -254 OFFCURVE",
"80 -286 OFFCURVE",
"32 -286 CURVE SMOOTH",
"4 -286 OFFCURVE",
"-13 -270 OFFCURVE",
"-25 -247 CURVE SMOOTH",
"-29 -240 OFFCURVE",
"-34 -238 OFFCURVE",
"-43 -243 CURVE SMOOTH",
"-50 -247 OFFCURVE",
"-50 -254 OFFCURVE",
"-48 -260 CURVE SMOOTH",
"-37 -291 OFFCURVE",
"-7 -314 OFFCURVE",
"31 -314 CURVE SMOOTH"
);
},
{
closed = 1;
nodes = (
"124 552 OFFCURVE",
"134 563 OFFCURVE",
"134 586 CURVE SMOOTH",
"134 609 OFFCURVE",
"124 620 OFFCURVE",
"104 620 CURVE SMOOTH",
"84 620 OFFCURVE",
"74 609 OFFCURVE",
"74 586 CURVE SMOOTH",
"74 563 OFFCURVE",
"84 552 OFFCURVE",
"104 552 CURVE SMOOTH"
);
}
);
};
layerId = m01;
paths = (
{
closed = 1;
nodes = (
"94 -314 OFFCURVE",
"119 -271 OFFCURVE",
"119 -208 CURVE SMOOTH",
"119 400 LINE SMOOTH",
"119 409 OFFCURVE",
"115 412 OFFCURVE",
"105 412 CURVE SMOOTH",
"95 412 OFFCURVE",
"90 409 OFFCURVE",
"90 400 CURVE SMOOTH",
"90 -206 LINE SMOOTH",
"90 -254 OFFCURVE",
"80 -286 OFFCURVE",
"32 -286 CURVE SMOOTH",
"4 -286 OFFCURVE",
"-13 -270 OFFCURVE",
"-25 -247 CURVE SMOOTH",
"-29 -240 OFFCURVE",
"-34 -238 OFFCURVE",
"-43 -243 CURVE SMOOTH",
"-50 -247 OFFCURVE",
"-50 -254 OFFCURVE",
"-48 -260 CURVE SMOOTH",
"-37 -291 OFFCURVE",
"-7 -314 OFFCURVE",
"31 -314 CURVE SMOOTH"
);
},
{
closed = 1;
nodes = (
"124 552 OFFCURVE",
"134 563 OFFCURVE",
"134 586 CURVE SMOOTH",
"134 609 OFFCURVE",
"124 620 OFFCURVE",
"104 620 CURVE SMOOTH",
"84 620 OFFCURVE",
"74 609 OFFCURVE",
"74 586 CURVE SMOOTH",
"74 563 OFFCURVE",
"84 552 OFFCURVE",
"104 552 CURVE SMOOTH"
);
}
);
width = 214;
},
{
background = {
paths = (
{
closed = 1;
nodes = (
"-64 -314 OFFCURVE",
"-37 -287 OFFCURVE",
"-11 -209 CURVE SMOOTH",
"188 399 LINE SMOOTH",
"191 408 OFFCURVE",
"184 412 OFFCURVE",
"174 412 CURVE SMOOTH",
"164 412 OFFCURVE",
"159 409 OFFCURVE",
"156 400 CURVE SMOOTH",
"-41 -206 LINE SMOOTH",
"-62 -269 OFFCURVE",
"-78 -286 OFFCURVE",
"-115 -286 CURVE SMOOTH",
"-140 -286 OFFCURVE",
"-158 -272 OFFCURVE",
"-170 -243 CURVE SMOOTH",
"-174 -235 OFFCURVE",
"-180 -233 OFFCURVE",
"-189 -238 CURVE SMOOTH",
"-198 -243 OFFCURVE",
"-200 -249 OFFCURVE",
"-197 -257 CURVE SMOOTH",
"-183 -293 OFFCURVE",
"-153 -314 OFFCURVE",
"-118 -314 CURVE SMOOTH"
);
},
{
closed = 1;
nodes = (
"245 552 OFFCURVE",
"260 574 OFFCURVE",
"260 597 CURVE SMOOTH",
"260 613 OFFCURVE",
"248 620 OFFCURVE",
"231 620 CURVE SMOOTH",
"206 620 OFFCURVE",
"191 598 OFFCURVE",
"191 575 CURVE SMOOTH",
"191 559 OFFCURVE",
"202 552 OFFCURVE",
"220 552 CURVE SMOOTH"
);
}
);
};
guideLines = (
{
angle = 72;
position = "{185, 489}";
}
);
layerId = m002;
paths = (
{
closed = 1;
nodes = (
"-64 -314 OFFCURVE",
"-37 -287 OFFCURVE",
"-11 -209 CURVE SMOOTH",
"188 399 LINE SMOOTH",
"191 408 OFFCURVE",
"184 412 OFFCURVE",
"174 412 CURVE SMOOTH",
"164 412 OFFCURVE",
"159 409 OFFCURVE",
"156 400 CURVE SMOOTH",
"-41 -206 LINE SMOOTH",
"-62 -269 OFFCURVE",
"-78 -286 OFFCURVE",
"-115 -286 CURVE SMOOTH",
"-140 -286 OFFCURVE",
"-158 -272 OFFCURVE",
"-170 -243 CURVE SMOOTH",
"-174 -235 OFFCURVE",
"-180 -233 OFFCURVE",
"-189 -238 CURVE SMOOTH",
"-198 -243 OFFCURVE",
"-200 -249 OFFCURVE",
"-197 -257 CURVE SMOOTH",
"-183 -293 OFFCURVE",
"-153 -314 OFFCURVE",
"-118 -314 CURVE SMOOTH"
);
},
{
closed = 1;
nodes = (
"245 552 OFFCURVE",
"260 574 OFFCURVE",
"260 597 CURVE SMOOTH",
"260 613 OFFCURVE",
"248 620 OFFCURVE",
"231 620 CURVE SMOOTH",
"206 620 OFFCURVE",
"191 598 OFFCURVE",
"191 575 CURVE SMOOTH",
"191 559 OFFCURVE",
"202 552 OFFCURVE",
"220 552 CURVE SMOOTH"
);
}
);
width = 214;
},
{
background = {
paths = (
{
closed = 1;
nodes = (
"101 -314 OFFCURVE",
"119 -281 OFFCURVE",
"119 -218 CURVE SMOOTH",
"119 400 LINE SMOOTH",
"119 409 OFFCURVE",
"115 412 OFFCURVE",
"105 412 CURVE SMOOTH",
"95 412 OFFCURVE",
"90 409 OFFCURVE",
"90 400 CURVE SMOOTH",
"90 -216 LINE SMOOTH",
"90 -264 OFFCURVE",
"80 -286 OFFCURVE",
"44 -286 CURVE SMOOTH",
"16 -286 OFFCURVE",
"-12 -270 OFFCURVE",
"-32 -250 CURVE SMOOTH",
"-38 -244 OFFCURVE",
"-46 -242 OFFCURVE",
"-53 -249 CURVE SMOOTH",
"-62 -258 OFFCURVE",
"-60 -265 OFFCURVE",
"-54 -271 CURVE SMOOTH",
"-29 -297 OFFCURVE",
"3 -314 OFFCURVE",
"43 -314 CURVE SMOOTH"
);
},
{
closed = 1;
nodes = (
"124 552 OFFCURVE",
"134 563 OFFCURVE",
"134 586 CURVE SMOOTH",
"134 609 OFFCURVE",
"124 620 OFFCURVE",
"104 620 CURVE SMOOTH",
"84 620 OFFCURVE",
"74 609 OFFCURVE",
"74 586 CURVE SMOOTH",
"74 563 OFFCURVE",
"84 552 OFFCURVE",
"104 552 CURVE SMOOTH"
);
}
);
};
layerId = m003;
paths = (
{
closed = 1;
nodes = (
"101 -314 OFFCURVE",
"119 -281 OFFCURVE",
"119 -218 CURVE SMOOTH",
"119 400 LINE SMOOTH",
"119 409 OFFCURVE",
"115 412 OFFCURVE",
"105 412 CURVE SMOOTH",
"95 412 OFFCURVE",
"90 409 OFFCURVE",
"90 400 CURVE SMOOTH",
"90 -216 LINE SMOOTH",
"90 -264 OFFCURVE",
"80 -286 OFFCURVE",
"44 -286 CURVE SMOOTH",
"16 -286 OFFCURVE",
"-12 -270 OFFCURVE",
"-32 -250 CURVE SMOOTH",
"-38 -244 OFFCURVE",
"-46 -242 OFFCURVE",
"-53 -249 CURVE SMOOTH",
"-62 -258 OFFCURVE",
"-60 -265 OFFCURVE",
"-54 -271 CURVE SMOOTH",
"-29 -297 OFFCURVE",
"3 -314 OFFCURVE",
"43 -314 CURVE SMOOTH"
);
},
{
closed = 1;
nodes = (
"124 552 OFFCURVE",
"134 563 OFFCURVE",
"134 586 CURVE SMOOTH",
"134 609 OFFCURVE",
"124 620 OFFCURVE",
"104 620 CURVE SMOOTH",
"84 620 OFFCURVE",
"74 609 OFFCURVE",
"74 586 CURVE SMOOTH",
"74 563 OFFCURVE",
"84 552 OFFCURVE",
"104 552 CURVE SMOOTH"
);
}
);
width = 214;
},
{
background = {
paths = (
{
closed = 1;
nodes = (
"-58 -314 OFFCURVE",
"-37 -288 OFFCURVE",
"-15 -219 CURVE SMOOTH",
"186 399 LINE SMOOTH",
"188 406 OFFCURVE",
"183 412 OFFCURVE",
"173 412 CURVE SMOOTH",
"161 412 OFFCURVE",
"158 409 OFFCURVE",
"155 400 CURVE SMOOTH",
"-45 -216 LINE SMOOTH",
"-62 -270 OFFCURVE",
"-76 -284 OFFCURVE",
"-108 -284 CURVE SMOOTH",
"-138 -284 OFFCURVE",
"-163 -266 OFFCURVE",
"-184 -245 CURVE SMOOTH",
"-191 -238 OFFCURVE",
"-199 -235 OFFCURVE",
"-207 -243 CURVE SMOOTH",
"-217 -252 OFFCURVE",
"-215 -260 OFFCURVE",
"-209 -266 CURVE SMOOTH",
"-184 -293 OFFCURVE",
"-145 -314 OFFCURVE",
"-110 -314 CURVE SMOOTH"
);
},
{
closed = 1;
nodes = (
"244 552 OFFCURVE",
"259 574 OFFCURVE",
"259 597 CURVE SMOOTH",
"259 613 OFFCURVE",
"247 620 OFFCURVE",
"230 620 CURVE SMOOTH",
"205 620 OFFCURVE",
"190 598 OFFCURVE",
"190 575 CURVE SMOOTH",
"190 559 OFFCURVE",
"201 552 OFFCURVE",
"219 552 CURVE SMOOTH"
);
}
);
};
layerId = m004;
paths = (
{
closed = 1;
nodes = (
"-58 -314 OFFCURVE",
"-37 -288 OFFCURVE",
"-15 -219 CURVE SMOOTH",
"186 399 LINE SMOOTH",
"188 406 OFFCURVE",
"183 412 OFFCURVE",
"173 412 CURVE SMOOTH",
"161 412 OFFCURVE",
"158 409 OFFCURVE",
"155 400 CURVE SMOOTH",
"-45 -216 LINE SMOOTH",
"-62 -270 OFFCURVE",
"-76 -284 OFFCURVE",
"-108 -284 CURVE SMOOTH",
"-138 -284 OFFCURVE",
"-163 -266 OFFCURVE",
"-184 -245 CURVE SMOOTH",
"-191 -238 OFFCURVE",
"-199 -235 OFFCURVE",
"-207 -243 CURVE SMOOTH",
"-217 -252 OFFCURVE",
"-215 -260 OFFCURVE",
"-209 -266 CURVE SMOOTH",
"-184 -293 OFFCURVE",
"-145 -314 OFFCURVE",
"-110 -314 CURVE SMOOTH"
);
},
{
closed = 1;
nodes = (
"244 552 OFFCURVE",
"259 574 OFFCURVE",
"259 597 CURVE SMOOTH",
"259 613 OFFCURVE",
"247 620 OFFCURVE",
"230 620 CURVE SMOOTH",
"205 620 OFFCURVE",
"190 598 OFFCURVE",
"190 575 CURVE SMOOTH",
"190 559 OFFCURVE",
"201 552 OFFCURVE",
"219 552 CURVE SMOOTH"
);
}
);
width = 214;
}
);
unicode = 006A;
},
{
glyphname = k;
lastChange = "2022-08-29 06:03:06 +0000";
layers = (
{
background = {
paths = (
{
closed = 1;
nodes = (
"119 -12 OFFCURVE",
"124 -9 OFFCURVE",
"124 0 CURVE SMOOTH",
"124 700 LINE SMOOTH",
"124 709 OFFCURVE",
"119 712 OFFCURVE",
"109 712 CURVE SMOOTH",
"99 712 OFFCURVE",
"95 709 OFFCURVE",
"95 700 CURVE SMOOTH",
"95 0 LINE SMOOTH",
"95 -9 OFFCURVE",
"99 -12 OFFCURVE",
"109 -12 CURVE SMOOTH"
);
},
{
closed = 1;
nodes = (
"364 -15 OFFCURVE",
"404 -8 OFFCURVE",
"444 43 CURVE SMOOTH",
"449 49 OFFCURVE",
"445 55 OFFCURVE",
"440 59 CURVE SMOOTH",
"434 64 OFFCURVE",
"428 65 OFFCURVE",
"422 58 CURVE SMOOTH",
"390 22 OFFCURVE",
"368 14 OFFCURVE",
"346 14 CURVE SMOOTH",
"309 14 OFFCURVE",
"279 47 OFFCURVE",
"153 216 CURVE",
"365 387 LINE SMOOTH",
"372 393 OFFCURVE",
"369 400 OFFCURVE",
"365 405 CURVE SMOOTH",
"360 411 OFFCURVE",
"353 414 OFFCURVE",
"344 407 CURVE SMOOTH",
"119 222 LINE",
"119 211 LINE",
"258 24 OFFCURVE",
"292 -15 OFFCURVE",
"345 -15 CURVE SMOOTH"
);
}
);
};
layerId = m01;
paths = (
{
closed = 1;
nodes = (
"119 -12 OFFCURVE",
"124 -9 OFFCURVE",
"124 0 CURVE SMOOTH",
"124 700 LINE SMOOTH",
"124 709 OFFCURVE",
"119 712 OFFCURVE",
"109 712 CURVE SMOOTH",
"99 712 OFFCURVE",
"95 709 OFFCURVE",
"95 700 CURVE SMOOTH",
"95 0 LINE SMOOTH",
"95 -9 OFFCURVE",
"99 -12 OFFCURVE",
"109 -12 CURVE SMOOTH"
);
},
{
closed = 1;
nodes = (
"364 -15 OFFCURVE",
"404 -8 OFFCURVE",
"444 43 CURVE SMOOTH",
"449 49 OFFCURVE",
"445 55 OFFCURVE",
"440 59 CURVE SMOOTH",
"434 64 OFFCURVE",
"428 65 OFFCURVE",
"422 58 CURVE SMOOTH",
"390 22 OFFCURVE",
"368 14 OFFCURVE",
"346 14 CURVE SMOOTH",
"309 14 OFFCURVE",
"279 47 OFFCURVE",
"153 216 CURVE",
"365 387 LINE SMOOTH",
"372 393 OFFCURVE",
"369 400 OFFCURVE",
"365 405 CURVE SMOOTH",
"360 411 OFFCURVE",
"353 414 OFFCURVE",
"344 407 CURVE SMOOTH",
"119 222 LINE",
"119 211 LINE",
"258 24 OFFCURVE",
"292 -15 OFFCURVE",
"345 -15 CURVE SMOOTH"
);
}
);
width = 451;
},
{
background = {
paths = (
{
closed = 1;
nodes = (
"53 -12 OFFCURVE",
"58 -9 OFFCURVE",
"61 0 CURVE SMOOTH",
"286 696 LINE SMOOTH",
"289 705 OFFCURVE",
"283 712 OFFCURVE",
"273 712 CURVE SMOOTH",
"263 712 OFFCURVE",
"259 709 OFFCURVE",
"256 700 CURVE SMOOTH",
"29 3 LINE SMOOTH",
"26 -6 OFFCURVE",
"33 -12 OFFCURVE",
"43 -12 CURVE SMOOTH"
);
},
{
closed = 1;
nodes = (
"302 -15 OFFCURVE",
"337 -10 OFFCURVE",
"394 41 CURVE SMOOTH",
"401 47 OFFCURVE",
"399 54 OFFCURVE",
"394 59 CURVE SMOOTH",
"389 64 OFFCURVE",
"383 66 OFFCURVE",
"375 59 CURVE SMOOTH",
"331 23 OFFCURVE",
"309 14 OFFCURVE",
"287 14 CURVE SMOOTH",
"250 14 OFFCURVE",
"234 41 OFFCURVE",
"158 210 CURVE",
"429 386 LINE SMOOTH",
"435 390 OFFCURVE",
"435 398 OFFCURVE",
"431 404 CURVE SMOOTH",
"427 410 OFFCURVE",
"421 414 OFFCURVE",
"409 406 CURVE SMOOTH",
"127 224 LINE",
"123 211 LINE",
"206 18 OFFCURVE",
"230 -15 OFFCURVE",
"283 -15 CURVE SMOOTH"
);
}
);
};
layerId = m002;
paths = (
{
closed = 1;
nodes = (
"53 -12 OFFCURVE",
"58 -9 OFFCURVE",
"61 0 CURVE SMOOTH",
"286 696 LINE SMOOTH",
"289 705 OFFCURVE",
"283 712 OFFCURVE",
"273 712 CURVE SMOOTH",
"263 712 OFFCURVE",
"259 709 OFFCURVE",
"256 700 CURVE SMOOTH",
"29 3 LINE SMOOTH",
"26 -6 OFFCURVE",
"33 -12 OFFCURVE",
"43 -12 CURVE SMOOTH"
);
},
{
closed = 1;
nodes = (
"302 -15 OFFCURVE",
"337 -10 OFFCURVE",
"394 41 CURVE SMOOTH",
"401 47 OFFCURVE",
"399 54 OFFCURVE",
"394 59 CURVE SMOOTH",
"389 64 OFFCURVE",
"383 66 OFFCURVE",
"375 59 CURVE SMOOTH",
"331 23 OFFCURVE",
"309 14 OFFCURVE",
"287 14 CURVE SMOOTH",
"250 14 OFFCURVE",
"234 41 OFFCURVE",
"158 210 CURVE",
"429 386 LINE SMOOTH",
"435 390 OFFCURVE",
"435 398 OFFCURVE",
"431 404 CURVE SMOOTH",
"427 410 OFFCURVE",
"421 414 OFFCURVE",
"409 406 CURVE SMOOTH",
"127 224 LINE",
"123 211 LINE",
"206 18 OFFCURVE",
"230 -15 OFFCURVE",
"283 -15 CURVE SMOOTH"
);
}
);
width = 451;
},
{
background = {
paths = (
{
closed = 1;
nodes = (
"119 -12 OFFCURVE",
"124 -9 OFFCURVE",
"124 0 CURVE SMOOTH",
"124 700 LINE SMOOTH",
"124 709 OFFCURVE",
"119 712 OFFCURVE",
"109 712 CURVE SMOOTH",
"99 712 OFFCURVE",
"95 709 OFFCURVE",
"95 700 CURVE SMOOTH",
"95 0 LINE SMOOTH",
"95 -9 OFFCURVE",
"99 -12 OFFCURVE",
"109 -12 CURVE SMOOTH"
);
},
{
closed = 1;
nodes = (
"373 -15 OFFCURVE",
"410 -3 OFFCURVE",
"449 69 CURVE SMOOTH",
"452 75 OFFCURVE",
"450 82 OFFCURVE",
"443 86 CURVE SMOOTH",
"437 90 OFFCURVE",
"430 89 OFFCURVE",
"426 82 CURVE SMOOTH",
"392 25 OFFCURVE",
"371 14 OFFCURVE",
"347 14 CURVE SMOOTH",
"308 14 OFFCURVE",
"279 47 OFFCURVE",
"153 216 CURVE",
"365 387 LINE SMOOTH",
"372 392 OFFCURVE",
"371 401 OFFCURVE",
"365 407 CURVE SMOOTH",
"360 412 OFFCURVE",
"353 414 OFFCURVE",
"344 407 CURVE SMOOTH",
"119 222 LINE",
"119 211 LINE",
"263 17 OFFCURVE",
"293 -15 OFFCURVE",
"346 -15 CURVE SMOOTH"
);
}
);
};
layerId = m003;
paths = (
{
closed = 1;
nodes = (
"119 -12 OFFCURVE",
"124 -9 OFFCURVE",
"124 0 CURVE SMOOTH",
"124 700 LINE SMOOTH",
"124 709 OFFCURVE",
"119 712 OFFCURVE",
"109 712 CURVE SMOOTH",
"99 712 OFFCURVE",
"95 709 OFFCURVE",
"95 700 CURVE SMOOTH",
"95 0 LINE SMOOTH",
"95 -9 OFFCURVE",
"99 -12 OFFCURVE",
"109 -12 CURVE SMOOTH"
);
},
{
closed = 1;
nodes = (
"373 -15 OFFCURVE",
"410 -3 OFFCURVE",
"449 69 CURVE SMOOTH",
"452 75 OFFCURVE",
"450 82 OFFCURVE",
"443 86 CURVE SMOOTH",
"437 90 OFFCURVE",
"430 89 OFFCURVE",
"426 82 CURVE SMOOTH",
"392 25 OFFCURVE",
"371 14 OFFCURVE",
"347 14 CURVE SMOOTH",
"308 14 OFFCURVE",
"279 47 OFFCURVE",
"153 216 CURVE",
"365 387 LINE SMOOTH",
"372 392 OFFCURVE",
"371 401 OFFCURVE",
"365 407 CURVE SMOOTH",
"360 412 OFFCURVE",
"353 414 OFFCURVE",
"344 407 CURVE SMOOTH",
"119 222 LINE",
"119 211 LINE",
"263 17 OFFCURVE",
"293 -15 OFFCURVE",
"346 -15 CURVE SMOOTH"
);
}
);
width = 451;
},
{
background = {
paths = (
{
closed = 1;
nodes = (
"53 -12 OFFCURVE",
"58 -9 OFFCURVE",
"61 0 CURVE SMOOTH",
"286 696 LINE SMOOTH",
"289 705 OFFCURVE",
"283 712 OFFCURVE",
"273 712 CURVE SMOOTH",
"263 712 OFFCURVE",
"259 709 OFFCURVE",
"256 700 CURVE SMOOTH",
"29 3 LINE SMOOTH",
"26 -6 OFFCURVE",
"33 -12 OFFCURVE",
"43 -12 CURVE SMOOTH"
);
},
{
closed = 1;
nodes = (
"303 -15 OFFCURVE",
"339 -6 OFFCURVE",
"405 67 CURVE SMOOTH",
"411 74 OFFCURVE",
"410 80 OFFCURVE",
"405 85 CURVE SMOOTH",
"400 90 OFFCURVE",
"394 93 OFFCURVE",
"386 85 CURVE SMOOTH",
"328 27 OFFCURVE",
"309 14 OFFCURVE",
"287 14 CURVE SMOOTH",
"250 14 OFFCURVE",
"234 41 OFFCURVE",
"158 210 CURVE",
"429 386 LINE SMOOTH",
"435 390 OFFCURVE",
"435 398 OFFCURVE",
"431 404 CURVE SMOOTH",
"427 410 OFFCURVE",
"421 414 OFFCURVE",
"409 406 CURVE SMOOTH",
"127 224 LINE",
"123 211 LINE",
"207 15 OFFCURVE",
"230 -15 OFFCURVE",
"283 -15 CURVE SMOOTH"
);
}
);
};
layerId = m004;
paths = (
{
closed = 1;
nodes = (
"53 -12 OFFCURVE",
"58 -9 OFFCURVE",
"61 0 CURVE SMOOTH",
"286 696 LINE SMOOTH",
"289 705 OFFCURVE",
"283 712 OFFCURVE",
"273 712 CURVE SMOOTH",
"263 712 OFFCURVE",
"259 709 OFFCURVE",
"256 700 CURVE SMOOTH",
"29 3 LINE SMOOTH",
"26 -6 OFFCURVE",
"33 -12 OFFCURVE",
"43 -12 CURVE SMOOTH"
);
},
{
closed = 1;
nodes = (
"303 -15 OFFCURVE",
"339 -6 OFFCURVE",
"405 67 CURVE SMOOTH",
"411 74 OFFCURVE",
"410 80 OFFCURVE",
"405 85 CURVE SMOOTH",
"400 90 OFFCURVE",
"394 93 OFFCURVE",
"386 85 CURVE SMOOTH",
"328 27 OFFCURVE",
"309 14 OFFCURVE",
"287 14 CURVE SMOOTH",
"250 14 OFFCURVE",
"234 41 OFFCURVE",
"158 210 CURVE",
"429 386 LINE SMOOTH",
"435 390 OFFCURVE",
"435 398 OFFCURVE",
"431 404 CURVE SMOOTH",
"427 410 OFFCURVE",
"421 414 OFFCURVE",
"409 406 CURVE SMOOTH",
"127 224 LINE",
"123 211 LINE",
"207 15 OFFCURVE",
"230 -15 OFFCURVE",
"283 -15 CURVE SMOOTH"
);
}
);
width = 451;
}
);
leftMetricsKey = "=b";
unicode = 006B;
},
{
glyphname = l;
lastChange = "2022-08-29 06:03:06 +0000";
layers = (
{
background = {
paths = (
{
closed = 1;
nodes = (
"182 -14 OFFCURVE",
"213 3 OFFCURVE",
"231 28 CURVE SMOOTH",
"235 34 OFFCURVE",
"233 39 OFFCURVE",
"228 44 CURVE SMOOTH",
"222 50 OFFCURVE",
"216 49 OFFCURVE",
"211 42 CURVE SMOOTH",
"193 21 OFFCURVE",
"174 14 OFFCURVE",
"157 14 CURVE SMOOTH",
"129 14 OFFCURVE",
"119 36 OFFCURVE",
"119 74 CURVE SMOOTH",
"119 700 LINE SMOOTH",
"119 709 OFFCURVE",
"114 712 OFFCURVE",
"104 712 CURVE SMOOTH",
"94 712 OFFCURVE",
"90 709 OFFCURVE",
"90 700 CURVE SMOOTH",
"90 64 LINE SMOOTH",
"90 11 OFFCURVE",
"115 -14 OFFCURVE",
"152 -14 CURVE SMOOTH"
);
}
);
};
layerId = m01;
paths = (
{
closed = 1;
nodes = (
"182 -14 OFFCURVE",
"213 3 OFFCURVE",
"231 28 CURVE SMOOTH",
"235 34 OFFCURVE",
"233 39 OFFCURVE",
"228 44 CURVE SMOOTH",
"222 50 OFFCURVE",
"216 49 OFFCURVE",
"211 42 CURVE SMOOTH",
"193 21 OFFCURVE",
"174 14 OFFCURVE",
"157 14 CURVE SMOOTH",
"129 14 OFFCURVE",
"119 36 OFFCURVE",
"119 74 CURVE SMOOTH",
"119 700 LINE SMOOTH",
"119 709 OFFCURVE",
"114 712 OFFCURVE",
"104 712 CURVE SMOOTH",
"94 712 OFFCURVE",
"90 709 OFFCURVE",
"90 700 CURVE SMOOTH",
"90 64 LINE SMOOTH",
"90 11 OFFCURVE",
"115 -14 OFFCURVE",
"152 -14 CURVE SMOOTH"
);
}
);
width = 239;
},
{
background = {
paths = (
{
closed = 1;
nodes = (
"151 -14 OFFCURVE",
"182 19 OFFCURVE",
"202 53 CURVE SMOOTH",
"207 60 OFFCURVE",
"206 68 OFFCURVE",
"197 72 CURVE SMOOTH",
"187 77 OFFCURVE",
"181 71 OFFCURVE",
"178 65 CURVE SMOOTH",
"163 39 OFFCURVE",
"135 13 OFFCURVE",
"107 13 CURVE SMOOTH",
"79 13 OFFCURVE",
"67 37 OFFCURVE",
"85 93 CURVE SMOOTH",
"283 699 LINE SMOOTH",
"286 707 OFFCURVE",
"280 712 OFFCURVE",
"270 712 CURVE SMOOTH",
"258 712 OFFCURVE",
"254 709 OFFCURVE",
"251 700 CURVE SMOOTH",
"55 99 LINE SMOOTH",
"29 18 OFFCURVE",
"56 -14 OFFCURVE",
"104 -14 CURVE SMOOTH"
);
}
);
};
guideLines = (
{
angle = 72;
position = "{182, 489}";
}
);
layerId = m002;
paths = (
{
closed = 1;
nodes = (
"151 -14 OFFCURVE",
"182 19 OFFCURVE",
"202 53 CURVE SMOOTH",
"207 60 OFFCURVE",
"206 68 OFFCURVE",
"197 72 CURVE SMOOTH",
"187 77 OFFCURVE",
"181 71 OFFCURVE",
"178 65 CURVE SMOOTH",
"163 39 OFFCURVE",
"135 13 OFFCURVE",
"107 13 CURVE SMOOTH",
"79 13 OFFCURVE",
"67 37 OFFCURVE",
"85 93 CURVE SMOOTH",
"283 699 LINE SMOOTH",
"286 707 OFFCURVE",
"280 712 OFFCURVE",
"270 712 CURVE SMOOTH",
"258 712 OFFCURVE",
"254 709 OFFCURVE",
"251 700 CURVE SMOOTH",
"55 99 LINE SMOOTH",
"29 18 OFFCURVE",
"56 -14 OFFCURVE",
"104 -14 CURVE SMOOTH"
);
}
);
width = 239;
},
{
background = {
paths = (
{
closed = 1;
nodes = (
"174 -14 OFFCURVE",
"210 15 OFFCURVE",
"230 71 CURVE SMOOTH",
"232 76 OFFCURVE",
"230 82 OFFCURVE",
"222 85 CURVE SMOOTH",
"215 88 OFFCURVE",
"208 88 OFFCURVE",
"205 80 CURVE SMOOTH",
"185 32 OFFCURVE",
"168 13 OFFCURVE",
"145 13 CURVE SMOOTH",
"124 13 OFFCURVE",
"120 37 OFFCURVE",
"120 65 CURVE SMOOTH",
"120 700 LINE SMOOTH",
"120 709 OFFCURVE",
"115 712 OFFCURVE",
"105 712 CURVE SMOOTH",
"95 712 OFFCURVE",
"90 709 OFFCURVE",
"90 700 CURVE SMOOTH",
"90 54 LINE SMOOTH",
"90 9 OFFCURVE",
"108 -14 OFFCURVE",
"141 -14 CURVE SMOOTH"
);
}
);
};
layerId = m003;
paths = (
{
closed = 1;
nodes = (
"174 -14 OFFCURVE",
"210 15 OFFCURVE",
"230 71 CURVE SMOOTH",
"232 76 OFFCURVE",
"230 82 OFFCURVE",
"222 85 CURVE SMOOTH",
"215 88 OFFCURVE",
"208 88 OFFCURVE",
"205 80 CURVE SMOOTH",
"185 32 OFFCURVE",
"168 13 OFFCURVE",
"145 13 CURVE SMOOTH",
"124 13 OFFCURVE",
"120 37 OFFCURVE",
"120 65 CURVE SMOOTH",
"120 700 LINE SMOOTH",
"120 709 OFFCURVE",
"115 712 OFFCURVE",
"105 712 CURVE SMOOTH",
"95 712 OFFCURVE",
"90 709 OFFCURVE",
"90 700 CURVE SMOOTH",
"90 54 LINE SMOOTH",
"90 9 OFFCURVE",
"108 -14 OFFCURVE",
"141 -14 CURVE SMOOTH"
);
}
);
width = 239;
},
{
background = {
paths = (
{
closed = 1;
nodes = (
"131 -12 OFFCURVE",
"178 41 OFFCURVE",
"199 71 CURVE SMOOTH",
"203 76 OFFCURVE",
"204 81 OFFCURVE",
"196 87 CURVE SMOOTH",
"190 92 OFFCURVE",
"186 92 OFFCURVE",
"180 85 CURVE SMOOTH",
"159 58 OFFCURVE",
"121 16 OFFCURVE",
"87 16 CURVE SMOOTH",
"65 16 OFFCURVE",
"66 39 OFFCURVE",
"80 82 CURVE SMOOTH",
"284 698 LINE SMOOTH",
"287 706 OFFCURVE",
"281 712 OFFCURVE",
"271 712 CURVE SMOOTH",
"259 712 OFFCURVE",
"256 709 OFFCURVE",
"253 700 CURVE SMOOTH",
"49 81 LINE SMOOTH",
"28 18 OFFCURVE",
"44 -12 OFFCURVE",
"81 -12 CURVE SMOOTH"
);
}
);
};
layerId = m004;
paths = (
{
closed = 1;
nodes = (
"131 -12 OFFCURVE",
"178 41 OFFCURVE",
"199 71 CURVE SMOOTH",
"203 76 OFFCURVE",
"204 81 OFFCURVE",
"196 87 CURVE SMOOTH",
"190 92 OFFCURVE",
"186 92 OFFCURVE",
"180 85 CURVE SMOOTH",
"159 58 OFFCURVE",
"121 16 OFFCURVE",
"87 16 CURVE SMOOTH",
"65 16 OFFCURVE",
"66 39 OFFCURVE",
"80 82 CURVE SMOOTH",
"284 698 LINE SMOOTH",
"287 706 OFFCURVE",
"281 712 OFFCURVE",
"271 712 CURVE SMOOTH",
"259 712 OFFCURVE",
"256 709 OFFCURVE",
"253 700 CURVE SMOOTH",
"49 81 LINE SMOOTH",
"28 18 OFFCURVE",
"44 -12 OFFCURVE",
"81 -12 CURVE SMOOTH"
);
}
);
width = 239;
}
);
leftMetricsKey = "=b-5";
rightMetricsKey = "=d";
unicode = 006C;
},
{
glyphname = m;
lastChange = "2022-08-29 06:03:06 +0000";
layers = (
{
background = {
paths = (
{
closed = 1;
nodes = (
"719 -14 OFFCURVE",
"750 3 OFFCURVE",
"768 28 CURVE SMOOTH",
"772 34 OFFCURVE",
"770 39 OFFCURVE",
"765 44 CURVE SMOOTH",
"759 50 OFFCURVE",
"753 49 OFFCURVE",
"748 42 CURVE SMOOTH",
"730 21 OFFCURVE",
"711 14 OFFCURVE",
"694 14 CURVE SMOOTH",
"667 14 OFFCURVE",
"657 36 OFFCURVE",
"657 74 CURVE SMOOTH",
"657 267 LINE SMOOTH",
"657 372 OFFCURVE",
"603 415 OFFCURVE",
"535 415 CURVE SMOOTH",
"481 415 OFFCURVE",
"405 392 OFFCURVE",
"376 277 CURVE",
"389 247 LINE",
"411 353 OFFCURVE",
"472 387 OFFCURVE",
"531 387 CURVE SMOOTH",
"600 387 OFFCURVE",
"628 340 OFFCURVE",
"628 261 CURVE SMOOTH",
"628 64 LINE SMOOTH",
"628 11 OFFCURVE",
"653 -14 OFFCURVE",
"689 -14 CURVE SMOOTH"
);
},
{
closed = 1;
nodes = (
"114 -12 OFFCURVE",
"119 -9 OFFCURVE",
"119 0 CURVE SMOOTH",
"119 400 LINE SMOOTH",
"119 409 OFFCURVE",
"114 412 OFFCURVE",
"104 412 CURVE SMOOTH",
"94 412 OFFCURVE",
"90 409 OFFCURVE",
"90 400 CURVE SMOOTH",
"90 0 LINE SMOOTH",
"90 -9 OFFCURVE",
"94 -12 OFFCURVE",
"104 -12 CURVE SMOOTH"
);
},
{
closed = 1;
nodes = (
"384 -12 OFFCURVE",
"389 -9 OFFCURVE",
"389 0 CURVE SMOOTH",
"389 267 LINE SMOOTH",
"389 372 OFFCURVE",
"335 415 OFFCURVE",
"266 415 CURVE SMOOTH",
"211 415 OFFCURVE",
"135 392 OFFCURVE",
"106 277 CURVE",
"119 247 LINE",
"141 353 OFFCURVE",
"202 387 OFFCURVE",
"262 387 CURVE SMOOTH",
"332 387 OFFCURVE",
"360 340 OFFCURVE",
"360 261 CURVE SMOOTH",
"360 0 LINE SMOOTH",
"360 -9 OFFCURVE",
"364 -12 OFFCURVE",
"374 -12 CURVE SMOOTH"
);
}
);
};
layerId = m01;
paths = (
{
closed = 1;
nodes = (
"719 -14 OFFCURVE",
"750 3 OFFCURVE",
"768 28 CURVE SMOOTH",
"772 34 OFFCURVE",
"770 39 OFFCURVE",
"765 44 CURVE SMOOTH",
"759 50 OFFCURVE",
"753 49 OFFCURVE",
"748 42 CURVE SMOOTH",
"730 21 OFFCURVE",
"711 14 OFFCURVE",
"694 14 CURVE SMOOTH",
"667 14 OFFCURVE",
"657 36 OFFCURVE",
"657 74 CURVE SMOOTH",
"657 267 LINE SMOOTH",
"657 372 OFFCURVE",
"603 415 OFFCURVE",
"535 415 CURVE SMOOTH",
"481 415 OFFCURVE",
"405 392 OFFCURVE",
"376 277 CURVE",
"389 247 LINE",
"411 353 OFFCURVE",
"472 387 OFFCURVE",
"531 387 CURVE SMOOTH",
"600 387 OFFCURVE",
"628 340 OFFCURVE",
"628 261 CURVE SMOOTH",
"628 64 LINE SMOOTH",
"628 11 OFFCURVE",
"653 -14 OFFCURVE",
"689 -14 CURVE SMOOTH"
);
},
{
closed = 1;
nodes = (
"114 -12 OFFCURVE",
"119 -9 OFFCURVE",
"119 0 CURVE SMOOTH",
"119 400 LINE SMOOTH",
"119 409 OFFCURVE",
"114 412 OFFCURVE",
"104 412 CURVE SMOOTH",
"94 412 OFFCURVE",
"90 409 OFFCURVE",
"90 400 CURVE SMOOTH",
"90 0 LINE SMOOTH",
"90 -9 OFFCURVE",
"94 -12 OFFCURVE",
"104 -12 CURVE SMOOTH"
);
},
{
closed = 1;
nodes = (
"384 -12 OFFCURVE",
"389 -9 OFFCURVE",
"389 0 CURVE SMOOTH",
"389 267 LINE SMOOTH",
"389 372 OFFCURVE",
"335 415 OFFCURVE",
"266 415 CURVE SMOOTH",
"211 415 OFFCURVE",
"135 392 OFFCURVE",
"106 277 CURVE",
"119 247 LINE",
"141 353 OFFCURVE",
"202 387 OFFCURVE",
"262 387 CURVE SMOOTH",
"332 387 OFFCURVE",
"360 340 OFFCURVE",
"360 261 CURVE SMOOTH",
"360 0 LINE SMOOTH",
"360 -9 OFFCURVE",
"364 -12 OFFCURVE",
"374 -12 CURVE SMOOTH"
);
}
);
width = 771;
},
{
background = {
paths = (
{
closed = 1;
nodes = (
"692 -14 OFFCURVE",
"723 19 OFFCURVE",
"743 53 CURVE SMOOTH",
"748 60 OFFCURVE",
"747 68 OFFCURVE",
"738 72 CURVE SMOOTH",
"728 77 OFFCURVE",
"722 71 OFFCURVE",
"719 65 CURVE SMOOTH",
"704 39 OFFCURVE",
"676 13 OFFCURVE",
"649 13 CURVE SMOOTH",
"621 13 OFFCURVE",
"609 37 OFFCURVE",
"627 93 CURVE SMOOTH",
"680 257 LINE SMOOTH",
"715 366 OFFCURVE",
"671 415 OFFCURVE",
"595 415 CURVE SMOOTH",
"547 415 OFFCURVE",
"465 394 OFFCURVE",
"405 277 CURVE",
"408 247 LINE",
"461 353 OFFCURVE",
"531 387 OFFCURVE",
"591 387 CURVE SMOOTH",
"660 387 OFFCURVE",
"676 339 OFFCURVE",
"653 269 CURVE SMOOTH",
"598 99 LINE SMOOTH",
"572 18 OFFCURVE",
"598 -14 OFFCURVE",
"646 -14 CURVE SMOOTH"
);
},
{
closed = 1;
nodes = (
"50 -12 OFFCURVE",
"53 -9 OFFCURVE",
"56 0 CURVE SMOOTH",
"186 399 LINE SMOOTH",
"189 407 OFFCURVE",
"183 412 OFFCURVE",
"173 412 CURVE SMOOTH",
"161 412 OFFCURVE",
"158 409 OFFCURVE",
"155 400 CURVE SMOOTH",
"25 0 LINE SMOOTH",
"22 -8 OFFCURVE",
"28 -12 OFFCURVE",
"38 -12 CURVE SMOOTH"
);
},
{
closed = 1;
nodes = (
"322 -12 OFFCURVE",
"325 -9 OFFCURVE",
"328 0 CURVE",
"412 257 LINE SMOOTH",
"448 366 OFFCURVE",
"403 415 OFFCURVE",
"325 415 CURVE SMOOTH",
"275 415 OFFCURVE",
"193 394 OFFCURVE",
"133 277 CURVE",
"136 247 LINE",
"189 353 OFFCURVE",
"259 387 OFFCURVE",
"321 387 CURVE SMOOTH",
"392 387 OFFCURVE",
"408 339 OFFCURVE",
"385 269 CURVE SMOOTH",
"297 0 LINE",
"294 -8 OFFCURVE",
"300 -12 OFFCURVE",
"310 -12 CURVE SMOOTH"
);
}
);
};
layerId = m002;
paths = (
{
closed = 1;
nodes = (
"692 -14 OFFCURVE",
"723 19 OFFCURVE",
"743 53 CURVE SMOOTH",
"748 60 OFFCURVE",
"747 68 OFFCURVE",
"738 72 CURVE SMOOTH",
"728 77 OFFCURVE",
"722 71 OFFCURVE",
"719 65 CURVE SMOOTH",
"704 39 OFFCURVE",
"676 13 OFFCURVE",
"649 13 CURVE SMOOTH",
"621 13 OFFCURVE",
"609 37 OFFCURVE",
"627 93 CURVE SMOOTH",
"680 257 LINE SMOOTH",
"715 366 OFFCURVE",
"671 415 OFFCURVE",
"595 415 CURVE SMOOTH",
"547 415 OFFCURVE",
"465 394 OFFCURVE",
"405 277 CURVE",
"408 247 LINE",
"461 353 OFFCURVE",
"531 387 OFFCURVE",
"591 387 CURVE SMOOTH",
"660 387 OFFCURVE",
"676 339 OFFCURVE",
"653 269 CURVE SMOOTH",
"598 99 LINE SMOOTH",
"572 18 OFFCURVE",
"598 -14 OFFCURVE",
"646 -14 CURVE SMOOTH"
);
},
{
closed = 1;
nodes = (
"50 -12 OFFCURVE",
"53 -9 OFFCURVE",
"56 0 CURVE SMOOTH",
"186 399 LINE SMOOTH",
"189 407 OFFCURVE",
"183 412 OFFCURVE",
"173 412 CURVE SMOOTH",
"161 412 OFFCURVE",
"158 409 OFFCURVE",
"155 400 CURVE SMOOTH",
"25 0 LINE SMOOTH",
"22 -8 OFFCURVE",
"28 -12 OFFCURVE",
"38 -12 CURVE SMOOTH"
);
},
{
closed = 1;
nodes = (
"322 -12 OFFCURVE",
"325 -9 OFFCURVE",
"328 0 CURVE",
"412 257 LINE SMOOTH",
"448 366 OFFCURVE",
"403 415 OFFCURVE",
"325 415 CURVE SMOOTH",
"275 415 OFFCURVE",
"193 394 OFFCURVE",
"133 277 CURVE",
"136 247 LINE",
"189 353 OFFCURVE",
"259 387 OFFCURVE",
"321 387 CURVE SMOOTH",
"392 387 OFFCURVE",
"408 339 OFFCURVE",
"385 269 CURVE SMOOTH",
"297 0 LINE",
"294 -8 OFFCURVE",
"300 -12 OFFCURVE",
"310 -12 CURVE SMOOTH"
);
}
);
width = 771;
},
{
background = {
paths = (
{
closed = 1;
nodes = (
"711 -14 OFFCURVE",
"747 15 OFFCURVE",
"767 71 CURVE SMOOTH",
"769 76 OFFCURVE",
"767 82 OFFCURVE",
"759 85 CURVE SMOOTH",
"752 88 OFFCURVE",
"745 88 OFFCURVE",
"742 80 CURVE SMOOTH",
"722 32 OFFCURVE",
"705 13 OFFCURVE",
"681 13 CURVE SMOOTH",
"659 13 OFFCURVE",
"655 37 OFFCURVE",
"655 65 CURVE SMOOTH",
"655 285 LINE SMOOTH",
"655 385 OFFCURVE",
"615 415 OFFCURVE",
"565 415 CURVE SMOOTH",
"503 415 OFFCURVE",
"404 347 OFFCURVE",
"378 112 CURVE",
"388 38 LINE",
"414 316 OFFCURVE",
"501 388 OFFCURVE",
"564 388 CURVE SMOOTH",
"611 388 OFFCURVE",
"626 352 OFFCURVE",
"626 277 CURVE SMOOTH",
"626 54 LINE SMOOTH",
"626 9 OFFCURVE",
"643 -14 OFFCURVE",
"677 -14 CURVE SMOOTH"
);
},
{
closed = 1;
nodes = (
"114 -12 OFFCURVE",
"119 -9 OFFCURVE",
"119 0 CURVE SMOOTH",
"119 400 LINE SMOOTH",
"119 409 OFFCURVE",
"114 412 OFFCURVE",
"104 412 CURVE SMOOTH",
"95 412 OFFCURVE",
"90 409 OFFCURVE",
"90 400 CURVE SMOOTH",
"90 0 LINE SMOOTH",
"90 -9 OFFCURVE",
"95 -12 OFFCURVE",
"104 -12 CURVE SMOOTH"
);
},
{
closed = 1;
nodes = (
"384 -12 OFFCURVE",
"389 -9 OFFCURVE",
"389 0 CURVE SMOOTH",
"389 285 LINE SMOOTH",
"389 385 OFFCURVE",
"349 415 OFFCURVE",
"297 415 CURVE SMOOTH",
"233 415 OFFCURVE",
"134 347 OFFCURVE",
"108 112 CURVE",
"118 38 LINE",
"144 316 OFFCURVE",
"231 388 OFFCURVE",
"296 388 CURVE SMOOTH",
"345 388 OFFCURVE",
"360 352 OFFCURVE",
"360 277 CURVE SMOOTH",
"360 0 LINE SMOOTH",
"360 -9 OFFCURVE",
"363 -12 OFFCURVE",
"374 -12 CURVE SMOOTH"
);
}
);
};
layerId = m003;
paths = (
{
closed = 1;
nodes = (
"711 -14 OFFCURVE",
"747 15 OFFCURVE",
"767 71 CURVE SMOOTH",
"769 76 OFFCURVE",
"767 82 OFFCURVE",
"759 85 CURVE SMOOTH",
"752 88 OFFCURVE",
"745 88 OFFCURVE",
"742 80 CURVE SMOOTH",
"722 32 OFFCURVE",
"705 13 OFFCURVE",
"681 13 CURVE SMOOTH",
"659 13 OFFCURVE",
"655 37 OFFCURVE",
"655 65 CURVE SMOOTH",
"655 285 LINE SMOOTH",
"655 385 OFFCURVE",
"615 415 OFFCURVE",
"565 415 CURVE SMOOTH",
"503 415 OFFCURVE",
"404 347 OFFCURVE",
"378 112 CURVE",
"388 38 LINE",
"414 316 OFFCURVE",
"501 388 OFFCURVE",
"564 388 CURVE SMOOTH",
"611 388 OFFCURVE",
"626 352 OFFCURVE",
"626 277 CURVE SMOOTH",
"626 54 LINE SMOOTH",
"626 9 OFFCURVE",
"643 -14 OFFCURVE",
"677 -14 CURVE SMOOTH"
);
},
{
closed = 1;
nodes = (
"114 -12 OFFCURVE",
"119 -9 OFFCURVE",
"119 0 CURVE SMOOTH",
"119 400 LINE SMOOTH",
"119 409 OFFCURVE",
"114 412 OFFCURVE",
"104 412 CURVE SMOOTH",
"95 412 OFFCURVE",
"90 409 OFFCURVE",
"90 400 CURVE SMOOTH",
"90 0 LINE SMOOTH",
"90 -9 OFFCURVE",
"95 -12 OFFCURVE",
"104 -12 CURVE SMOOTH"
);
},
{
closed = 1;
nodes = (
"384 -12 OFFCURVE",
"389 -9 OFFCURVE",
"389 0 CURVE SMOOTH",
"389 285 LINE SMOOTH",
"389 385 OFFCURVE",
"349 415 OFFCURVE",
"297 415 CURVE SMOOTH",
"233 415 OFFCURVE",
"134 347 OFFCURVE",
"108 112 CURVE",
"118 38 LINE",
"144 316 OFFCURVE",
"231 388 OFFCURVE",
"296 388 CURVE SMOOTH",
"345 388 OFFCURVE",
"360 352 OFFCURVE",
"360 277 CURVE SMOOTH",
"360 0 LINE SMOOTH",
"360 -9 OFFCURVE",
"363 -12 OFFCURVE",
"374 -12 CURVE SMOOTH"
);
}
);
width = 771;
},
{
background = {
paths = (
{
closed = 1;
nodes = (
"667 -12 OFFCURVE",
"714 41 OFFCURVE",
"735 71 CURVE SMOOTH",
"739 76 OFFCURVE",
"740 81 OFFCURVE",
"732 87 CURVE SMOOTH",
"726 92 OFFCURVE",
"722 92 OFFCURVE",
"716 85 CURVE SMOOTH",
"695 58 OFFCURVE",
"657 16 OFFCURVE",
"624 16 CURVE SMOOTH",
"602 16 OFFCURVE",
"602 37 OFFCURVE",
"617 82 CURVE SMOOTH",
"685 280 LINE SMOOTH",
"719 379 OFFCURVE",
"681 415 OFFCURVE",
"631 415 CURVE SMOOTH",
"567 415 OFFCURVE",
"453 345 OFFCURVE",
"351 110 CURVE",
"339 38 LINE",
"453 316 OFFCURVE",
"566 387 OFFCURVE",
"627 387 CURVE SMOOTH",
"668 387 OFFCURVE",
"680 354 OFFCURVE",
"653 275 CURVE SMOOTH",
"587 81 LINE SMOOTH",
"564 15 OFFCURVE",
"580 -12 OFFCURVE",
"618 -12 CURVE SMOOTH"
);
},
{
closed = 1;
nodes = (
"51 -12 OFFCURVE",
"54 -9 OFFCURVE",
"57 0 CURVE SMOOTH",
"186 398 LINE SMOOTH",
"189 406 OFFCURVE",
"183 412 OFFCURVE",
"173 412 CURVE SMOOTH",
"161 412 OFFCURVE",
"158 409 OFFCURVE",
"155 400 CURVE SMOOTH",
"25 0 LINE SMOOTH",
"22 -8 OFFCURVE",
"29 -12 OFFCURVE",
"39 -12 CURVE SMOOTH"
);
},
{
closed = 1;
nodes = (
"321 -12 OFFCURVE",
"324 -9 OFFCURVE",
"327 0 CURVE",
"421 280 LINE SMOOTH",
"454 379 OFFCURVE",
"417 415 OFFCURVE",
"364 415 CURVE SMOOTH",
"297 415 OFFCURVE",
"183 345 OFFCURVE",
"81 110 CURVE",
"69 38 LINE",
"183 316 OFFCURVE",
"296 387 OFFCURVE",
"360 387 CURVE SMOOTH",
"404 387 OFFCURVE",
"416 354 OFFCURVE",
"389 275 CURVE SMOOTH",
"295 0 LINE",
"292 -8 OFFCURVE",
"299 -12 OFFCURVE",
"309 -12 CURVE SMOOTH"
);
}
);
};
layerId = m004;
paths = (
{
closed = 1;
nodes = (
"667 -12 OFFCURVE",
"714 41 OFFCURVE",
"735 71 CURVE SMOOTH",
"739 76 OFFCURVE",
"740 81 OFFCURVE",
"732 87 CURVE SMOOTH",
"726 92 OFFCURVE",
"722 92 OFFCURVE",
"716 85 CURVE SMOOTH",
"695 58 OFFCURVE",
"657 16 OFFCURVE",
"624 16 CURVE SMOOTH",
"602 16 OFFCURVE",
"602 37 OFFCURVE",
"617 82 CURVE SMOOTH",
"685 280 LINE SMOOTH",
"719 379 OFFCURVE",
"681 415 OFFCURVE",
"631 415 CURVE SMOOTH",
"567 415 OFFCURVE",
"453 345 OFFCURVE",
"351 110 CURVE",
"339 38 LINE",
"453 316 OFFCURVE",
"566 387 OFFCURVE",
"627 387 CURVE SMOOTH",
"668 387 OFFCURVE",
"680 354 OFFCURVE",
"653 275 CURVE SMOOTH",
"587 81 LINE SMOOTH",
"564 15 OFFCURVE",
"580 -12 OFFCURVE",
"618 -12 CURVE SMOOTH"
);
},
{
closed = 1;
nodes = (
"51 -12 OFFCURVE",
"54 -9 OFFCURVE",
"57 0 CURVE SMOOTH",
"186 398 LINE SMOOTH",
"189 406 OFFCURVE",
"183 412 OFFCURVE",
"173 412 CURVE SMOOTH",
"161 412 OFFCURVE",
"158 409 OFFCURVE",
"155 400 CURVE SMOOTH",
"25 0 LINE SMOOTH",
"22 -8 OFFCURVE",
"29 -12 OFFCURVE",
"39 -12 CURVE SMOOTH"
);
},
{
closed = 1;
nodes = (
"321 -12 OFFCURVE",
"324 -9 OFFCURVE",
"327 0 CURVE",
"421 280 LINE SMOOTH",
"454 379 OFFCURVE",
"417 415 OFFCURVE",
"364 415 CURVE SMOOTH",
"297 415 OFFCURVE",
"183 345 OFFCURVE",
"81 110 CURVE",
"69 38 LINE",
"183 316 OFFCURVE",
"296 387 OFFCURVE",
"360 387 CURVE SMOOTH",
"404 387 OFFCURVE",
"416 354 OFFCURVE",
"389 275 CURVE SMOOTH",
"295 0 LINE",
"292 -8 OFFCURVE",
"299 -12 OFFCURVE",
"309 -12 CURVE SMOOTH"
);
}
);
width = 771;
}
);
leftMetricsKey = "=n";
rightMetricsKey = "=n";
unicode = 006D;
},
{
glyphname = n;
lastChange = "2022-08-29 06:03:06 +0000";
layers = (
{
background = {
paths = (
{
closed = 1;
nodes = (
"465 -14 OFFCURVE",
"496 3 OFFCURVE",
"514 28 CURVE SMOOTH",
"518 34 OFFCURVE",
"516 39 OFFCURVE",
"511 44 CURVE SMOOTH",
"505 50 OFFCURVE",
"499 49 OFFCURVE",
"494 42 CURVE SMOOTH",
"476 21 OFFCURVE",
"457 14 OFFCURVE",
"440 14 CURVE SMOOTH",
"412 14 OFFCURVE",
"402 36 OFFCURVE",
"402 74 CURVE SMOOTH",
"402 267 LINE SMOOTH",
"402 372 OFFCURVE",
"346 415 OFFCURVE",
"273 415 CURVE SMOOTH",
"213 415 OFFCURVE",
"135 392 OFFCURVE",
"106 277 CURVE",
"119 247 LINE",
"141 353 OFFCURVE",
"204 387 OFFCURVE",
"269 387 CURVE SMOOTH",
"343 387 OFFCURVE",
"373 340 OFFCURVE",
"373 261 CURVE SMOOTH",
"373 64 LINE SMOOTH",
"373 11 OFFCURVE",
"398 -14 OFFCURVE",
"435 -14 CURVE SMOOTH"
);
},
{
closed = 1;
nodes = (
"114 -12 OFFCURVE",
"119 -9 OFFCURVE",
"119 0 CURVE SMOOTH",
"119 400 LINE SMOOTH",
"119 409 OFFCURVE",
"114 412 OFFCURVE",
"104 412 CURVE SMOOTH",
"94 412 OFFCURVE",
"90 409 OFFCURVE",
"90 400 CURVE SMOOTH",
"90 0 LINE SMOOTH",
"90 -9 OFFCURVE",
"94 -12 OFFCURVE",
"104 -12 CURVE SMOOTH"
);
}
);
};
layerId = m01;
paths = (
{
closed = 1;
nodes = (
"465 -14 OFFCURVE",
"496 3 OFFCURVE",
"514 28 CURVE SMOOTH",
"518 34 OFFCURVE",
"516 39 OFFCURVE",
"511 44 CURVE SMOOTH",
"505 50 OFFCURVE",
"499 49 OFFCURVE",
"494 42 CURVE SMOOTH",
"476 21 OFFCURVE",
"457 14 OFFCURVE",
"440 14 CURVE SMOOTH",
"412 14 OFFCURVE",
"402 36 OFFCURVE",
"402 74 CURVE SMOOTH",
"402 267 LINE SMOOTH",
"402 372 OFFCURVE",
"346 415 OFFCURVE",
"273 415 CURVE SMOOTH",
"213 415 OFFCURVE",
"135 392 OFFCURVE",
"106 277 CURVE",
"119 247 LINE",
"141 353 OFFCURVE",
"204 387 OFFCURVE",
"269 387 CURVE SMOOTH",
"343 387 OFFCURVE",
"373 340 OFFCURVE",
"373 261 CURVE SMOOTH",
"373 64 LINE SMOOTH",
"373 11 OFFCURVE",
"398 -14 OFFCURVE",
"435 -14 CURVE SMOOTH"
);
},
{
closed = 1;
nodes = (
"114 -12 OFFCURVE",
"119 -9 OFFCURVE",
"119 0 CURVE SMOOTH",
"119 400 LINE SMOOTH",
"119 409 OFFCURVE",
"114 412 OFFCURVE",
"104 412 CURVE SMOOTH",
"94 412 OFFCURVE",
"90 409 OFFCURVE",
"90 400 CURVE SMOOTH",
"90 0 LINE SMOOTH",
"90 -9 OFFCURVE",
"94 -12 OFFCURVE",
"104 -12 CURVE SMOOTH"
);
}
);
width = 517;
},
{
background = {
paths = (
{
closed = 1;
nodes = (
"438 -14 OFFCURVE",
"469 19 OFFCURVE",
"489 53 CURVE SMOOTH",
"494 60 OFFCURVE",
"493 68 OFFCURVE",
"484 72 CURVE SMOOTH",
"474 77 OFFCURVE",
"468 71 OFFCURVE",
"465 65 CURVE SMOOTH",
"450 39 OFFCURVE",
"422 13 OFFCURVE",
"394 13 CURVE SMOOTH",
"366 13 OFFCURVE",
"354 37 OFFCURVE",
"372 93 CURVE SMOOTH",
"425 257 LINE SMOOTH",
"460 366 OFFCURVE",
"413 415 OFFCURVE",
"333 415 CURVE SMOOTH",
"279 415 OFFCURVE",
"194 394 OFFCURVE",
"134 277 CURVE",
"137 247 LINE",
"190 353 OFFCURVE",
"263 387 OFFCURVE",
"329 387 CURVE SMOOTH",
"402 387 OFFCURVE",
"421 339 OFFCURVE",
"398 269 CURVE SMOOTH",
"343 99 LINE SMOOTH",
"317 18 OFFCURVE",
"343 -14 OFFCURVE",
"391 -14 CURVE SMOOTH"
);
},
{
closed = 1;
nodes = (
"51 -12 OFFCURVE",
"54 -9 OFFCURVE",
"57 0 CURVE SMOOTH",
"187 399 LINE SMOOTH",
"190 407 OFFCURVE",
"184 412 OFFCURVE",
"174 412 CURVE SMOOTH",
"162 412 OFFCURVE",
"158 409 OFFCURVE",
"155 400 CURVE SMOOTH",
"25 0 LINE SMOOTH",
"22 -8 OFFCURVE",
"29 -12 OFFCURVE",
"39 -12 CURVE SMOOTH"
);
}
);
};
layerId = m002;
paths = (
{
closed = 1;
nodes = (
"438 -14 OFFCURVE",
"469 19 OFFCURVE",
"489 53 CURVE SMOOTH",
"494 60 OFFCURVE",
"493 68 OFFCURVE",
"484 72 CURVE SMOOTH",
"474 77 OFFCURVE",
"468 71 OFFCURVE",
"465 65 CURVE SMOOTH",
"450 39 OFFCURVE",
"422 13 OFFCURVE",
"394 13 CURVE SMOOTH",
"366 13 OFFCURVE",
"354 37 OFFCURVE",
"372 93 CURVE SMOOTH",
"425 257 LINE SMOOTH",
"460 366 OFFCURVE",
"413 415 OFFCURVE",
"333 415 CURVE SMOOTH",
"279 415 OFFCURVE",
"194 394 OFFCURVE",
"134 277 CURVE",
"137 247 LINE",
"190 353 OFFCURVE",
"263 387 OFFCURVE",
"329 387 CURVE SMOOTH",
"402 387 OFFCURVE",
"421 339 OFFCURVE",
"398 269 CURVE SMOOTH",
"343 99 LINE SMOOTH",
"317 18 OFFCURVE",
"343 -14 OFFCURVE",
"391 -14 CURVE SMOOTH"
);
},
{
closed = 1;
nodes = (
"51 -12 OFFCURVE",
"54 -9 OFFCURVE",
"57 0 CURVE SMOOTH",
"187 399 LINE SMOOTH",
"190 407 OFFCURVE",
"184 412 OFFCURVE",
"174 412 CURVE SMOOTH",
"162 412 OFFCURVE",
"158 409 OFFCURVE",
"155 400 CURVE SMOOTH",
"25 0 LINE SMOOTH",
"22 -8 OFFCURVE",
"29 -12 OFFCURVE",
"39 -12 CURVE SMOOTH"
);
}
);
width = 517;
},
{
background = {
paths = (
{
closed = 1;
nodes = (
"457 -14 OFFCURVE",
"493 15 OFFCURVE",
"513 71 CURVE SMOOTH",
"515 76 OFFCURVE",
"513 82 OFFCURVE",
"505 85 CURVE SMOOTH",
"498 88 OFFCURVE",
"491 88 OFFCURVE",
"488 80 CURVE SMOOTH",
"468 32 OFFCURVE",
"451 13 OFFCURVE",
"428 13 CURVE SMOOTH",
"406 13 OFFCURVE",
"402 37 OFFCURVE",
"402 65 CURVE SMOOTH",
"402 285 LINE SMOOTH",
"402 385 OFFCURVE",
"359 415 OFFCURVE",
"305 415 CURVE SMOOTH",
"237 415 OFFCURVE",
"135 347 OFFCURVE",
"109 112 CURVE",
"119 38 LINE",
"145 316 OFFCURVE",
"235 388 OFFCURVE",
"304 388 CURVE SMOOTH",
"355 388 OFFCURVE",
"372 352 OFFCURVE",
"372 277 CURVE SMOOTH",
"372 54 LINE SMOOTH",
"372 9 OFFCURVE",
"390 -14 OFFCURVE",
"424 -14 CURVE SMOOTH"
);
},
{
closed = 1;
nodes = (
"115 -12 OFFCURVE",
"120 -9 OFFCURVE",
"120 0 CURVE SMOOTH",
"120 400 LINE SMOOTH",
"120 409 OFFCURVE",
"115 412 OFFCURVE",
"105 412 CURVE SMOOTH",
"95 412 OFFCURVE",
"90 409 OFFCURVE",
"90 400 CURVE SMOOTH",
"90 0 LINE SMOOTH",
"90 -9 OFFCURVE",
"95 -12 OFFCURVE",
"105 -12 CURVE SMOOTH"
);
}
);
};
layerId = m003;
paths = (
{
closed = 1;
nodes = (
"457 -14 OFFCURVE",
"493 15 OFFCURVE",
"513 71 CURVE SMOOTH",
"515 76 OFFCURVE",
"513 82 OFFCURVE",
"505 85 CURVE SMOOTH",
"498 88 OFFCURVE",
"491 88 OFFCURVE",
"488 80 CURVE SMOOTH",
"468 32 OFFCURVE",
"451 13 OFFCURVE",
"428 13 CURVE SMOOTH",
"406 13 OFFCURVE",
"402 37 OFFCURVE",
"402 65 CURVE SMOOTH",
"402 285 LINE SMOOTH",
"402 385 OFFCURVE",
"359 415 OFFCURVE",
"305 415 CURVE SMOOTH",
"237 415 OFFCURVE",
"135 347 OFFCURVE",
"109 112 CURVE",
"119 38 LINE",
"145 316 OFFCURVE",
"235 388 OFFCURVE",
"304 388 CURVE SMOOTH",
"355 388 OFFCURVE",
"372 352 OFFCURVE",
"372 277 CURVE SMOOTH",
"372 54 LINE SMOOTH",
"372 9 OFFCURVE",
"390 -14 OFFCURVE",
"424 -14 CURVE SMOOTH"
);
},
{
closed = 1;
nodes = (
"115 -12 OFFCURVE",
"120 -9 OFFCURVE",
"120 0 CURVE SMOOTH",
"120 400 LINE SMOOTH",
"120 409 OFFCURVE",
"115 412 OFFCURVE",
"105 412 CURVE SMOOTH",
"95 412 OFFCURVE",
"90 409 OFFCURVE",
"90 400 CURVE SMOOTH",
"90 0 LINE SMOOTH",
"90 -9 OFFCURVE",
"95 -12 OFFCURVE",
"105 -12 CURVE SMOOTH"
);
}
);
width = 517;
},
{
background = {
paths = (
{
closed = 1;
nodes = (
"413 -12 OFFCURVE",
"460 41 OFFCURVE",
"481 71 CURVE SMOOTH",
"485 76 OFFCURVE",
"486 81 OFFCURVE",
"478 87 CURVE SMOOTH",
"472 92 OFFCURVE",
"468 92 OFFCURVE",
"462 85 CURVE SMOOTH",
"441 58 OFFCURVE",
"403 16 OFFCURVE",
"370 16 CURVE SMOOTH",
"348 16 OFFCURVE",
"348 37 OFFCURVE",
"363 82 CURVE SMOOTH",
"431 280 LINE SMOOTH",
"465 379 OFFCURVE",
"424 415 OFFCURVE",
"370 415 CURVE SMOOTH",
"300 415 OFFCURVE",
"183 345 OFFCURVE",
"81 110 CURVE",
"69 38 LINE",
"183 316 OFFCURVE",
"299 387 OFFCURVE",
"366 387 CURVE SMOOTH",
"411 387 OFFCURVE",
"426 354 OFFCURVE",
"399 275 CURVE SMOOTH",
"333 81 LINE SMOOTH",
"311 15 OFFCURVE",
"327 -12 OFFCURVE",
"364 -12 CURVE SMOOTH"
);
},
{
closed = 1;
nodes = (
"51 -12 OFFCURVE",
"54 -9 OFFCURVE",
"57 0 CURVE SMOOTH",
"186 398 LINE SMOOTH",
"189 406 OFFCURVE",
"183 412 OFFCURVE",
"173 412 CURVE SMOOTH",
"161 412 OFFCURVE",
"158 409 OFFCURVE",
"155 400 CURVE SMOOTH",
"25 0 LINE SMOOTH",
"22 -8 OFFCURVE",
"29 -12 OFFCURVE",
"39 -12 CURVE SMOOTH"
);
}
);
};
layerId = m004;
paths = (
{
closed = 1;
nodes = (
"413 -12 OFFCURVE",
"460 41 OFFCURVE",
"481 71 CURVE SMOOTH",
"485 76 OFFCURVE",
"486 81 OFFCURVE",
"478 87 CURVE SMOOTH",
"472 92 OFFCURVE",
"468 92 OFFCURVE",
"462 85 CURVE SMOOTH",
"441 58 OFFCURVE",
"403 16 OFFCURVE",
"370 16 CURVE SMOOTH",
"348 16 OFFCURVE",
"348 37 OFFCURVE",
"363 82 CURVE SMOOTH",
"431 280 LINE SMOOTH",
"465 379 OFFCURVE",
"424 415 OFFCURVE",
"370 415 CURVE SMOOTH",
"300 415 OFFCURVE",
"183 345 OFFCURVE",
"81 110 CURVE",
"69 38 LINE",
"183 316 OFFCURVE",
"299 387 OFFCURVE",
"366 387 CURVE SMOOTH",
"411 387 OFFCURVE",
"426 354 OFFCURVE",
"399 275 CURVE SMOOTH",
"333 81 LINE SMOOTH",
"311 15 OFFCURVE",
"327 -12 OFFCURVE",
"364 -12 CURVE SMOOTH"
);
},
{
closed = 1;
nodes = (
"51 -12 OFFCURVE",
"54 -9 OFFCURVE",
"57 0 CURVE SMOOTH",
"186 398 LINE SMOOTH",
"189 406 OFFCURVE",
"183 412 OFFCURVE",
"173 412 CURVE SMOOTH",
"161 412 OFFCURVE",
"158 409 OFFCURVE",
"155 400 CURVE SMOOTH",
"25 0 LINE SMOOTH",
"22 -8 OFFCURVE",
"29 -12 OFFCURVE",
"39 -12 CURVE SMOOTH"
);
}
);
width = 517;
}
);
unicode = 006E;
},
{
glyphname = o;
lastChange = "2022-08-29 06:03:06 +0000";
layers = (
{
background = {
paths = (
{
closed = 1;
nodes = (
"344 -15 OFFCURVE",
"411 72 OFFCURVE",
"411 200 CURVE SMOOTH",
"411 328 OFFCURVE",
"340 415 OFFCURVE",
"236 415 CURVE SMOOTH",
"134 415 OFFCURVE",
"60 328 OFFCURVE",
"60 200 CURVE SMOOTH",
"60 72 OFFCURVE",
"125 -15 OFFCURVE",
"236 -15 CURVE SMOOTH"
);
},
{
closed = 1;
nodes = (
"146 13 OFFCURVE",
"91 90 OFFCURVE",
"91 200 CURVE SMOOTH",
"91 310 OFFCURVE",
"146 387 OFFCURVE",
"236 387 CURVE SMOOTH",
"325 387 OFFCURVE",
"380 310 OFFCURVE",
"380 200 CURVE SMOOTH",
"380 90 OFFCURVE",
"325 13 OFFCURVE",
"236 13 CURVE SMOOTH"
);
}
);
};
layerId = m01;
paths = (
{
closed = 1;
nodes = (
"344 -15 OFFCURVE",
"411 72 OFFCURVE",
"411 200 CURVE SMOOTH",
"411 328 OFFCURVE",
"340 415 OFFCURVE",
"236 415 CURVE SMOOTH",
"134 415 OFFCURVE",
"60 328 OFFCURVE",
"60 200 CURVE SMOOTH",
"60 72 OFFCURVE",
"125 -15 OFFCURVE",
"236 -15 CURVE SMOOTH"
);
},
{
closed = 1;
nodes = (
"146 13 OFFCURVE",
"91 90 OFFCURVE",
"91 200 CURVE SMOOTH",
"91 310 OFFCURVE",
"146 387 OFFCURVE",
"236 387 CURVE SMOOTH",
"325 387 OFFCURVE",
"380 310 OFFCURVE",
"380 200 CURVE SMOOTH",
"380 90 OFFCURVE",
"325 13 OFFCURVE",
"236 13 CURVE SMOOTH"
);
}
);
width = 471;
},
{
background = {
paths = (
{
closed = 1;
nodes = (
"347 -15 OFFCURVE",
"423 163 OFFCURVE",
"423 274 CURVE SMOOTH",
"423 359 OFFCURVE",
"376 415 OFFCURVE",
"295 415 CURVE SMOOTH",
"132 415 OFFCURVE",
"50 251 OFFCURVE",
"50 131 CURVE SMOOTH",
"50 44 OFFCURVE",
"96 -15 OFFCURVE",
"181 -15 CURVE SMOOTH"
);
},
{
closed = 1;
nodes = (
"118 13 OFFCURVE",
"82 60 OFFCURVE",
"82 131 CURVE SMOOTH",
"82 234 OFFCURVE",
"156 387 OFFCURVE",
"289 387 CURVE SMOOTH",
"356 387 OFFCURVE",
"390 341 OFFCURVE",
"390 273 CURVE SMOOTH",
"390 170 OFFCURVE",
"322 13 OFFCURVE",
"184 13 CURVE SMOOTH"
);
}
);
};
layerId = m002;
paths = (
{
closed = 1;
nodes = (
"347 -15 OFFCURVE",
"423 163 OFFCURVE",
"423 274 CURVE SMOOTH",
"423 359 OFFCURVE",
"376 415 OFFCURVE",
"295 415 CURVE SMOOTH",
"132 415 OFFCURVE",
"50 251 OFFCURVE",
"50 131 CURVE SMOOTH",
"50 44 OFFCURVE",
"96 -15 OFFCURVE",
"181 -15 CURVE SMOOTH"
);
},
{
closed = 1;
nodes = (
"118 13 OFFCURVE",
"82 60 OFFCURVE",
"82 131 CURVE SMOOTH",
"82 234 OFFCURVE",
"156 387 OFFCURVE",
"289 387 CURVE SMOOTH",
"356 387 OFFCURVE",
"390 341 OFFCURVE",
"390 273 CURVE SMOOTH",
"390 170 OFFCURVE",
"322 13 OFFCURVE",
"184 13 CURVE SMOOTH"
);
}
);
width = 471;
},
{
background = {
paths = (
{
closed = 1;
nodes = (
"344 -15 OFFCURVE",
"411 72 OFFCURVE",
"411 200 CURVE SMOOTH",
"411 328 OFFCURVE",
"340 415 OFFCURVE",
"236 415 CURVE SMOOTH",
"134 415 OFFCURVE",
"60 328 OFFCURVE",
"60 200 CURVE SMOOTH",
"60 72 OFFCURVE",
"125 -15 OFFCURVE",
"236 -15 CURVE SMOOTH"
);
},
{
closed = 1;
nodes = (
"146 13 OFFCURVE",
"91 90 OFFCURVE",
"91 200 CURVE SMOOTH",
"91 310 OFFCURVE",
"146 387 OFFCURVE",
"236 387 CURVE SMOOTH",
"325 387 OFFCURVE",
"380 310 OFFCURVE",
"380 200 CURVE SMOOTH",
"380 90 OFFCURVE",
"325 13 OFFCURVE",
"236 13 CURVE SMOOTH"
);
}
);
};
layerId = m003;
paths = (
{
closed = 1;
nodes = (
"344 -15 OFFCURVE",
"411 72 OFFCURVE",
"411 200 CURVE SMOOTH",
"411 328 OFFCURVE",
"340 415 OFFCURVE",
"236 415 CURVE SMOOTH",
"134 415 OFFCURVE",
"60 328 OFFCURVE",
"60 200 CURVE SMOOTH",
"60 72 OFFCURVE",
"125 -15 OFFCURVE",
"236 -15 CURVE SMOOTH"
);
},
{
closed = 1;
nodes = (
"146 13 OFFCURVE",
"91 90 OFFCURVE",
"91 200 CURVE SMOOTH",
"91 310 OFFCURVE",
"146 387 OFFCURVE",
"236 387 CURVE SMOOTH",
"325 387 OFFCURVE",
"380 310 OFFCURVE",
"380 200 CURVE SMOOTH",
"380 90 OFFCURVE",
"325 13 OFFCURVE",
"236 13 CURVE SMOOTH"
);
}
);
width = 471;
},
{
background = {
paths = (
{
closed = 1;
nodes = (
"347 -15 OFFCURVE",
"423 163 OFFCURVE",
"423 275 CURVE SMOOTH",
"423 360 OFFCURVE",
"376 415 OFFCURVE",
"293 415 CURVE SMOOTH",
"131 415 OFFCURVE",
"50 248 OFFCURVE",
"50 131 CURVE SMOOTH",
"50 44 OFFCURVE",
"96 -15 OFFCURVE",
"181 -15 CURVE SMOOTH"
);
},
{
closed = 1;
nodes = (
"118 13 OFFCURVE",
"82 61 OFFCURVE",
"82 132 CURVE SMOOTH",
"82 235 OFFCURVE",
"156 387 OFFCURVE",
"289 387 CURVE SMOOTH",
"356 387 OFFCURVE",
"390 341 OFFCURVE",
"390 271 CURVE SMOOTH",
"390 169 OFFCURVE",
"321 13 OFFCURVE",
"184 13 CURVE SMOOTH"
);
}
);
};
layerId = m004;
paths = (
{
closed = 1;
nodes = (
"347 -15 OFFCURVE",
"423 163 OFFCURVE",
"423 275 CURVE SMOOTH",
"423 360 OFFCURVE",
"376 415 OFFCURVE",
"293 415 CURVE SMOOTH",
"131 415 OFFCURVE",
"50 248 OFFCURVE",
"50 131 CURVE SMOOTH",
"50 44 OFFCURVE",
"96 -15 OFFCURVE",
"181 -15 CURVE SMOOTH"
);
},
{
closed = 1;
nodes = (
"118 13 OFFCURVE",
"82 61 OFFCURVE",
"82 132 CURVE SMOOTH",
"82 235 OFFCURVE",
"156 387 OFFCURVE",
"289 387 CURVE SMOOTH",
"356 387 OFFCURVE",
"390 341 OFFCURVE",
"390 271 CURVE SMOOTH",
"390 169 OFFCURVE",
"321 13 OFFCURVE",
"184 13 CURVE SMOOTH"
);
}
);
width = 471;
}
);
unicode = 006F;
},
{
glyphname = p;
lastChange = "2022-08-29 06:03:06 +0000";
layers = (
{
background = {
paths = (
{
closed = 1;
nodes = (
"213 415 OFFCURVE",
"147 393 OFFCURVE",
"110 287 CURVE",
"124 262 LINE",
"154 353 OFFCURVE",
"205 387 OFFCURVE",
"262 387 CURVE SMOOTH",
"346 387 OFFCURVE",
"386 320 OFFCURVE",
"386 210 CURVE SMOOTH",
"386 78 OFFCURVE",
"327 13 OFFCURVE",
"237 13 CURVE SMOOTH",
"197 13 OFFCURVE",
"160 26 OFFCURVE",
"119 60 CURVE",
"119 30 LINE",
"157 0 OFFCURVE",
"192 -14 OFFCURVE",
"234 -14 CURVE SMOOTH",
"353 -14 OFFCURVE",
"418 74 OFFCURVE",
"418 213 CURVE SMOOTH",
"418 349 OFFCURVE",
"356 415 OFFCURVE",
"268 415 CURVE SMOOTH"
);
},
{
closed = 1;
nodes = (
"100 412 OFFCURVE",
"95 409 OFFCURVE",
"95 400 CURVE SMOOTH",
"95 -300 LINE SMOOTH",
"95 -309 OFFCURVE",
"99 -312 OFFCURVE",
"109 -312 CURVE SMOOTH",
"119 -312 OFFCURVE",
"124 -309 OFFCURVE",
"124 -300 CURVE SMOOTH",
"124 400 LINE SMOOTH",
"124 409 OFFCURVE",
"120 412 OFFCURVE",
"110 412 CURVE SMOOTH"
);
}
);
};
layerId = m01;
paths = (
{
closed = 1;
nodes = (
"213 415 OFFCURVE",
"147 393 OFFCURVE",
"110 287 CURVE",
"124 262 LINE",
"154 353 OFFCURVE",
"205 387 OFFCURVE",
"262 387 CURVE SMOOTH",
"346 387 OFFCURVE",
"386 320 OFFCURVE",
"386 210 CURVE SMOOTH",
"386 78 OFFCURVE",
"327 13 OFFCURVE",
"237 13 CURVE SMOOTH",
"197 13 OFFCURVE",
"160 26 OFFCURVE",
"119 60 CURVE",
"119 30 LINE",
"157 0 OFFCURVE",
"192 -14 OFFCURVE",
"234 -14 CURVE SMOOTH",
"353 -14 OFFCURVE",
"418 74 OFFCURVE",
"418 213 CURVE SMOOTH",
"418 349 OFFCURVE",
"356 415 OFFCURVE",
"268 415 CURVE SMOOTH"
);
},
{
closed = 1;
nodes = (
"100 412 OFFCURVE",
"95 409 OFFCURVE",
"95 400 CURVE SMOOTH",
"95 -300 LINE SMOOTH",
"95 -309 OFFCURVE",
"99 -312 OFFCURVE",
"109 -312 CURVE SMOOTH",
"119 -312 OFFCURVE",
"124 -309 OFFCURVE",
"124 -300 CURVE SMOOTH",
"124 400 LINE SMOOTH",
"124 409 OFFCURVE",
"120 412 OFFCURVE",
"110 412 CURVE SMOOTH"
);
}
);
width = 478;
},
{
background = {
paths = (
{
closed = 1;
nodes = (
"275 415 OFFCURVE",
"194 393 OFFCURVE",
"132 278 CURVE",
"139 248 LINE",
"195 352 OFFCURVE",
"259 387 OFFCURVE",
"314 387 CURVE SMOOTH",
"392 387 OFFCURVE",
"412 306 OFFCURVE",
"387 202 CURVE SMOOTH",
"357 76 OFFCURVE",
"270 13 OFFCURVE",
"180 13 CURVE SMOOTH",
"149 13 OFFCURVE",
"114 22 OFFCURVE",
"68 54 CURVE",
"59 30 LINE",
"93 3 OFFCURVE",
"138 -14 OFFCURVE",
"175 -14 CURVE SMOOTH",
"296 -14 OFFCURVE",
"389 72 OFFCURVE",
"421 205 CURVE SMOOTH",
"451 331 OFFCURVE",
"409 415 OFFCURVE",
"320 415 CURVE SMOOTH"
);
},
{
closed = 1;
nodes = (
"164 412 OFFCURVE",
"161 409 OFFCURVE",
"158 400 CURVE SMOOTH",
"-68 -295 LINE SMOOTH",
"-71 -304 OFFCURVE",
"-69 -312 OFFCURVE",
"-56 -312 CURVE SMOOTH",
"-45 -312 OFFCURVE",
"-41 -309 OFFCURVE",
"-38 -300 CURVE SMOOTH",
"190 400 LINE SMOOTH",
"193 408 OFFCURVE",
"186 412 OFFCURVE",
"176 412 CURVE SMOOTH"
);
}
);
};
guideLines = (
{
angle = 72;
position = "{80, 159}";
}
);
layerId = m002;
paths = (
{
closed = 1;
nodes = (
"275 415 OFFCURVE",
"194 393 OFFCURVE",
"132 278 CURVE",
"139 248 LINE",
"195 352 OFFCURVE",
"259 387 OFFCURVE",
"314 387 CURVE SMOOTH",
"392 387 OFFCURVE",
"412 306 OFFCURVE",
"387 202 CURVE SMOOTH",
"357 76 OFFCURVE",
"270 13 OFFCURVE",
"180 13 CURVE SMOOTH",
"149 13 OFFCURVE",
"114 22 OFFCURVE",
"68 54 CURVE",
"59 30 LINE",
"93 3 OFFCURVE",
"138 -14 OFFCURVE",
"175 -14 CURVE SMOOTH",
"296 -14 OFFCURVE",
"389 72 OFFCURVE",
"421 205 CURVE SMOOTH",
"451 331 OFFCURVE",
"409 415 OFFCURVE",
"320 415 CURVE SMOOTH"
);
},
{
closed = 1;
nodes = (
"164 412 OFFCURVE",
"161 409 OFFCURVE",
"158 400 CURVE SMOOTH",
"-68 -295 LINE SMOOTH",
"-71 -304 OFFCURVE",
"-69 -312 OFFCURVE",
"-56 -312 CURVE SMOOTH",
"-45 -312 OFFCURVE",
"-41 -309 OFFCURVE",
"-38 -300 CURVE SMOOTH",
"190 400 LINE SMOOTH",
"193 408 OFFCURVE",
"186 412 OFFCURVE",
"176 412 CURVE SMOOTH"
);
}
);
width = 478;
},
{
background = {
paths = (
{
closed = 1;
nodes = (
"205 415 OFFCURVE",
"141 338 OFFCURVE",
"108 128 CURVE",
"124 78 LINE",
"148 302 OFFCURVE",
"216 387 OFFCURVE",
"291 387 CURVE SMOOTH",
"360 387 OFFCURVE",
"386 309 OFFCURVE",
"386 222 CURVE SMOOTH",
"386 87 OFFCURVE",
"330 13 OFFCURVE",
"234 13 CURVE SMOOTH",
"203 13 OFFCURVE",
"163 22 OFFCURVE",
"119 56 CURVE",
"119 26 LINE",
"159 -2 OFFCURVE",
"192 -14 OFFCURVE",
"231 -14 CURVE SMOOTH",
"358 -14 OFFCURVE",
"418 83 OFFCURVE",
"418 223 CURVE SMOOTH",
"418 344 OFFCURVE",
"372 415 OFFCURVE",
"295 415 CURVE SMOOTH"
);
},
{
closed = 1;
nodes = (
"100 412 OFFCURVE",
"95 409 OFFCURVE",
"95 400 CURVE SMOOTH",
"95 -300 LINE SMOOTH",
"95 -309 OFFCURVE",
"99 -312 OFFCURVE",
"109 -312 CURVE SMOOTH",
"119 -312 OFFCURVE",
"124 -309 OFFCURVE",
"124 -300 CURVE SMOOTH",
"124 400 LINE SMOOTH",
"124 409 OFFCURVE",
"120 412 OFFCURVE",
"110 412 CURVE SMOOTH"
);
}
);
};
layerId = m003;
paths = (
{
closed = 1;
nodes = (
"205 415 OFFCURVE",
"141 338 OFFCURVE",
"108 128 CURVE",
"124 78 LINE",
"148 302 OFFCURVE",
"216 387 OFFCURVE",
"291 387 CURVE SMOOTH",
"360 387 OFFCURVE",
"386 309 OFFCURVE",
"386 222 CURVE SMOOTH",
"386 87 OFFCURVE",
"330 13 OFFCURVE",
"234 13 CURVE SMOOTH",
"203 13 OFFCURVE",
"163 22 OFFCURVE",
"119 56 CURVE",
"119 26 LINE",
"159 -2 OFFCURVE",
"192 -14 OFFCURVE",
"231 -14 CURVE SMOOTH",
"358 -14 OFFCURVE",
"418 83 OFFCURVE",
"418 223 CURVE SMOOTH",
"418 344 OFFCURVE",
"372 415 OFFCURVE",
"295 415 CURVE SMOOTH"
);
},
{
closed = 1;
nodes = (
"100 412 OFFCURVE",
"95 409 OFFCURVE",
"95 400 CURVE SMOOTH",
"95 -300 LINE SMOOTH",
"95 -309 OFFCURVE",
"99 -312 OFFCURVE",
"109 -312 CURVE SMOOTH",
"119 -312 OFFCURVE",
"124 -309 OFFCURVE",
"124 -300 CURVE SMOOTH",
"124 400 LINE SMOOTH",
"124 409 OFFCURVE",
"120 412 OFFCURVE",
"110 412 CURVE SMOOTH"
);
}
);
width = 478;
},
{
background = {
paths = (
{
closed = 1;
nodes = (
"267 415 OFFCURVE",
"176 323 OFFCURVE",
"77 109 CURVE",
"84 79 LINE",
"179 285 OFFCURVE",
"276 387 OFFCURVE",
"343 387 CURVE SMOOTH",
"405 387 OFFCURVE",
"421 309 OFFCURVE",
"394 216 CURVE SMOOTH",
"353 76 OFFCURVE",
"253 14 OFFCURVE",
"177 14 CURVE SMOOTH",
"146 14 OFFCURVE",
"112 19 OFFCURVE",
"68 47 CURVE",
"59 25 LINE",
"91 -1 OFFCURVE",
"135 -14 OFFCURVE",
"172 -14 CURVE SMOOTH",
"279 -14 OFFCURVE",
"384 72 OFFCURVE",
"425 214 CURVE SMOOTH",
"460 335 OFFCURVE",
"420 415 OFFCURVE",
"348 415 CURVE SMOOTH"
);
},
{
closed = 1;
nodes = (
"164 412 OFFCURVE",
"161 409 OFFCURVE",
"158 400 CURVE SMOOTH",
"-68 -295 LINE SMOOTH",
"-71 -304 OFFCURVE",
"-69 -312 OFFCURVE",
"-56 -312 CURVE SMOOTH",
"-45 -312 OFFCURVE",
"-41 -309 OFFCURVE",
"-38 -300 CURVE SMOOTH",
"190 400 LINE SMOOTH",
"193 408 OFFCURVE",
"186 412 OFFCURVE",
"176 412 CURVE SMOOTH"
);
}
);
};
layerId = m004;
paths = (
{
closed = 1;
nodes = (
"267 415 OFFCURVE",
"176 323 OFFCURVE",
"77 109 CURVE",
"84 79 LINE",
"179 285 OFFCURVE",
"276 387 OFFCURVE",
"343 387 CURVE SMOOTH",
"405 387 OFFCURVE",
"421 309 OFFCURVE",
"394 216 CURVE SMOOTH",
"353 76 OFFCURVE",
"253 14 OFFCURVE",
"177 14 CURVE SMOOTH",
"146 14 OFFCURVE",
"112 19 OFFCURVE",
"68 47 CURVE",
"59 25 LINE",
"91 -1 OFFCURVE",
"135 -14 OFFCURVE",
"172 -14 CURVE SMOOTH",
"279 -14 OFFCURVE",
"384 72 OFFCURVE",
"425 214 CURVE SMOOTH",
"460 335 OFFCURVE",
"420 415 OFFCURVE",
"348 415 CURVE SMOOTH"
);
},
{
closed = 1;
nodes = (
"164 412 OFFCURVE",
"161 409 OFFCURVE",
"158 400 CURVE SMOOTH",
"-68 -295 LINE SMOOTH",
"-71 -304 OFFCURVE",
"-69 -312 OFFCURVE",
"-56 -312 CURVE SMOOTH",
"-45 -312 OFFCURVE",
"-41 -309 OFFCURVE",
"-38 -300 CURVE SMOOTH",
"190 400 LINE SMOOTH",
"193 408 OFFCURVE",
"186 412 OFFCURVE",
"176 412 CURVE SMOOTH"
);
}
);
width = 478;
}
);
leftMetricsKey = "=b";
rightMetricsKey = "=o";
unicode = 0070;
},
{
glyphname = q;
lastChange = "2022-08-29 06:03:06 +0000";
layers = (
{
background = {
paths = (
{
closed = 1;
nodes = (
"265 -14 OFFCURVE",
"337 8 OFFCURVE",
"370 123 CURVE",
"354 150 LINE",
"330 46 OFFCURVE",
"273 14 OFFCURVE",
"221 14 CURVE SMOOTH",
"136 14 OFFCURVE",
"92 90 OFFCURVE",
"92 194 CURVE SMOOTH",
"92 317 OFFCURVE",
"151 388 OFFCURVE",
"244 388 CURVE SMOOTH",
"281 388 OFFCURVE",
"317 378 OFFCURVE",
"359 349 CURVE",
"359 379 LINE",
"320 404 OFFCURVE",
"286 415 OFFCURVE",
"247 415 CURVE SMOOTH",
"125 415 OFFCURVE",
"60 321 OFFCURVE",
"60 191 CURVE SMOOTH",
"60 61 OFFCURVE",
"126 -14 OFFCURVE",
"215 -14 CURVE SMOOTH"
);
},
{
closed = 1;
nodes = (
"378 -312 OFFCURVE",
"383 -309 OFFCURVE",
"383 -300 CURVE SMOOTH",
"383 400 LINE SMOOTH",
"383 409 OFFCURVE",
"379 412 OFFCURVE",
"369 412 CURVE SMOOTH",
"359 412 OFFCURVE",
"354 409 OFFCURVE",
"354 400 CURVE SMOOTH",
"354 -300 LINE SMOOTH",
"354 -309 OFFCURVE",
"358 -312 OFFCURVE",
"368 -312 CURVE SMOOTH"
);
}
);
};
layerId = m01;
paths = (
{
closed = 1;
nodes = (
"265 -14 OFFCURVE",
"337 8 OFFCURVE",
"370 123 CURVE",
"354 150 LINE",
"330 46 OFFCURVE",
"273 14 OFFCURVE",
"221 14 CURVE SMOOTH",
"136 14 OFFCURVE",
"92 90 OFFCURVE",
"92 194 CURVE SMOOTH",
"92 317 OFFCURVE",
"151 388 OFFCURVE",
"244 388 CURVE SMOOTH",
"281 388 OFFCURVE",
"317 378 OFFCURVE",
"359 349 CURVE",
"359 379 LINE",
"320 404 OFFCURVE",
"286 415 OFFCURVE",
"247 415 CURVE SMOOTH",
"125 415 OFFCURVE",
"60 321 OFFCURVE",
"60 191 CURVE SMOOTH",
"60 61 OFFCURVE",
"126 -14 OFFCURVE",
"215 -14 CURVE SMOOTH"
);
},
{
closed = 1;
nodes = (
"378 -312 OFFCURVE",
"383 -309 OFFCURVE",
"383 -300 CURVE SMOOTH",
"383 400 LINE SMOOTH",
"383 409 OFFCURVE",
"379 412 OFFCURVE",
"369 412 CURVE SMOOTH",
"359 412 OFFCURVE",
"354 409 OFFCURVE",
"354 400 CURVE SMOOTH",
"354 -300 LINE SMOOTH",
"354 -309 OFFCURVE",
"358 -312 OFFCURVE",
"368 -312 CURVE SMOOTH"
);
}
);
width = 478;
},
{
background = {
paths = (
{
closed = 1;
nodes = (
"205 -14 OFFCURVE",
"286 8 OFFCURVE",
"348 123 CURVE",
"341 153 LINE",
"285 49 OFFCURVE",
"221 14 OFFCURVE",
"166 14 CURVE SMOOTH",
"88 14 OFFCURVE",
"68 95 OFFCURVE",
"93 199 CURVE SMOOTH",
"123 325 OFFCURVE",
"210 388 OFFCURVE",
"300 388 CURVE SMOOTH",
"331 388 OFFCURVE",
"366 380 OFFCURVE",
"410 350 CURVE",
"419 375 LINE",
"387 400 OFFCURVE",
"342 415 OFFCURVE",
"305 415 CURVE SMOOTH",
"184 415 OFFCURVE",
"91 329 OFFCURVE",
"59 196 CURVE SMOOTH",
"29 70 OFFCURVE",
"71 -14 OFFCURVE",
"160 -14 CURVE SMOOTH"
);
},
{
closed = 1;
nodes = (
"218 -312 OFFCURVE",
"221 -309 OFFCURVE",
"224 -300 CURVE SMOOTH",
"450 395 LINE",
"453 404 OFFCURVE",
"451 412 OFFCURVE",
"438 412 CURVE SMOOTH",
"427 412 OFFCURVE",
"423 409 OFFCURVE",
"420 400 CURVE",
"192 -300 LINE SMOOTH",
"189 -308 OFFCURVE",
"196 -312 OFFCURVE",
"206 -312 CURVE SMOOTH"
);
}
);
};
guideLines = (
{
angle = 72;
position = "{409, 261}";
}
);
layerId = m002;
leftMetricsKey = "=o+2";
paths = (
{
closed = 1;
nodes = (
"205 -14 OFFCURVE",
"286 8 OFFCURVE",
"348 123 CURVE",
"341 153 LINE",
"285 49 OFFCURVE",
"221 14 OFFCURVE",
"166 14 CURVE SMOOTH",
"88 14 OFFCURVE",
"68 95 OFFCURVE",
"93 199 CURVE SMOOTH",
"123 325 OFFCURVE",
"210 388 OFFCURVE",
"300 388 CURVE SMOOTH",
"331 388 OFFCURVE",
"366 380 OFFCURVE",
"410 350 CURVE",
"419 375 LINE",
"387 400 OFFCURVE",
"342 415 OFFCURVE",
"305 415 CURVE SMOOTH",
"184 415 OFFCURVE",
"91 329 OFFCURVE",
"59 196 CURVE SMOOTH",
"29 70 OFFCURVE",
"71 -14 OFFCURVE",
"160 -14 CURVE SMOOTH"
);
},
{
closed = 1;
nodes = (
"218 -312 OFFCURVE",
"221 -309 OFFCURVE",
"224 -300 CURVE SMOOTH",
"450 395 LINE",
"453 404 OFFCURVE",
"451 412 OFFCURVE",
"438 412 CURVE SMOOTH",
"427 412 OFFCURVE",
"423 409 OFFCURVE",
"420 400 CURVE",
"192 -300 LINE SMOOTH",
"189 -308 OFFCURVE",
"196 -312 OFFCURVE",
"206 -312 CURVE SMOOTH"
);
}
);
width = 478;
},
{
background = {
paths = (
{
closed = 1;
nodes = (
"273 -14 OFFCURVE",
"337 63 OFFCURVE",
"370 273 CURVE",
"354 323 LINE",
"330 99 OFFCURVE",
"262 14 OFFCURVE",
"187 14 CURVE SMOOTH",
"118 14 OFFCURVE",
"92 92 OFFCURVE",
"92 179 CURVE SMOOTH",
"92 314 OFFCURVE",
"148 388 OFFCURVE",
"244 388 CURVE SMOOTH",
"275 388 OFFCURVE",
"315 380 OFFCURVE",
"359 349 CURVE",
"359 379 LINE",
"319 404 OFFCURVE",
"286 415 OFFCURVE",
"247 415 CURVE SMOOTH",
"120 415 OFFCURVE",
"60 318 OFFCURVE",
"60 178 CURVE SMOOTH",
"60 57 OFFCURVE",
"106 -14 OFFCURVE",
"183 -14 CURVE SMOOTH"
);
},
{
closed = 1;
nodes = (
"378 -312 OFFCURVE",
"383 -309 OFFCURVE",
"383 -300 CURVE SMOOTH",
"383 400 LINE SMOOTH",
"383 409 OFFCURVE",
"379 412 OFFCURVE",
"369 412 CURVE SMOOTH",
"359 412 OFFCURVE",
"354 409 OFFCURVE",
"354 400 CURVE SMOOTH",
"354 -300 LINE SMOOTH",
"354 -309 OFFCURVE",
"358 -312 OFFCURVE",
"368 -312 CURVE SMOOTH"
);
}
);
};
layerId = m003;
paths = (
{
closed = 1;
nodes = (
"273 -14 OFFCURVE",
"337 63 OFFCURVE",
"370 273 CURVE",
"354 323 LINE",
"330 99 OFFCURVE",
"262 14 OFFCURVE",
"187 14 CURVE SMOOTH",
"118 14 OFFCURVE",
"92 92 OFFCURVE",
"92 179 CURVE SMOOTH",
"92 314 OFFCURVE",
"148 388 OFFCURVE",
"244 388 CURVE SMOOTH",
"275 388 OFFCURVE",
"315 380 OFFCURVE",
"359 349 CURVE",
"359 379 LINE",
"319 404 OFFCURVE",
"286 415 OFFCURVE",
"247 415 CURVE SMOOTH",
"120 415 OFFCURVE",
"60 318 OFFCURVE",
"60 178 CURVE SMOOTH",
"60 57 OFFCURVE",
"106 -14 OFFCURVE",
"183 -14 CURVE SMOOTH"
);
},
{
closed = 1;
nodes = (
"378 -312 OFFCURVE",
"383 -309 OFFCURVE",
"383 -300 CURVE SMOOTH",
"383 400 LINE SMOOTH",
"383 409 OFFCURVE",
"379 412 OFFCURVE",
"369 412 CURVE SMOOTH",
"359 412 OFFCURVE",
"354 409 OFFCURVE",
"354 400 CURVE SMOOTH",
"354 -300 LINE SMOOTH",
"354 -309 OFFCURVE",
"358 -312 OFFCURVE",
"368 -312 CURVE SMOOTH"
);
}
);
width = 478;
},
{
background = {
paths = (
{
closed = 1;
nodes = (
"213 -14 OFFCURVE",
"304 78 OFFCURVE",
"403 292 CURVE",
"396 322 LINE",
"301 116 OFFCURVE",
"204 14 OFFCURVE",
"137 14 CURVE SMOOTH",
"75 14 OFFCURVE",
"59 92 OFFCURVE",
"86 185 CURVE SMOOTH",
"127 325 OFFCURVE",
"227 387 OFFCURVE",
"303 387 CURVE SMOOTH",
"334 387 OFFCURVE",
"368 382 OFFCURVE",
"412 354 CURVE",
"421 379 LINE",
"389 402 OFFCURVE",
"345 415 OFFCURVE",
"308 415 CURVE SMOOTH",
"201 415 OFFCURVE",
"97 329 OFFCURVE",
"55 187 CURVE SMOOTH",
"20 68 OFFCURVE",
"60 -14 OFFCURVE",
"132 -14 CURVE SMOOTH"
);
},
{
closed = 1;
nodes = (
"218 -312 OFFCURVE",
"221 -309 OFFCURVE",
"224 -300 CURVE SMOOTH",
"450 395 LINE SMOOTH",
"453 404 OFFCURVE",
"451 412 OFFCURVE",
"438 412 CURVE SMOOTH",
"427 412 OFFCURVE",
"423 409 OFFCURVE",
"420 400 CURVE SMOOTH",
"192 -300 LINE SMOOTH",
"189 -308 OFFCURVE",
"196 -312 OFFCURVE",
"206 -312 CURVE SMOOTH"
);
}
);
};
layerId = m004;
leftMetricsKey = "=o+2";
paths = (
{
closed = 1;
nodes = (
"213 -14 OFFCURVE",
"304 78 OFFCURVE",
"403 292 CURVE",
"396 322 LINE",
"301 116 OFFCURVE",
"204 14 OFFCURVE",
"137 14 CURVE SMOOTH",
"75 14 OFFCURVE",
"59 92 OFFCURVE",
"86 185 CURVE SMOOTH",
"127 325 OFFCURVE",
"227 387 OFFCURVE",
"303 387 CURVE SMOOTH",
"334 387 OFFCURVE",
"368 382 OFFCURVE",
"412 354 CURVE",
"421 379 LINE",
"389 402 OFFCURVE",
"345 415 OFFCURVE",
"308 415 CURVE SMOOTH",
"201 415 OFFCURVE",
"97 329 OFFCURVE",
"55 187 CURVE SMOOTH",
"20 68 OFFCURVE",
"60 -14 OFFCURVE",
"132 -14 CURVE SMOOTH"
);
},
{
closed = 1;
nodes = (
"218 -312 OFFCURVE",
"221 -309 OFFCURVE",
"224 -300 CURVE SMOOTH",
"450 395 LINE SMOOTH",
"453 404 OFFCURVE",
"451 412 OFFCURVE",
"438 412 CURVE SMOOTH",
"427 412 OFFCURVE",
"423 409 OFFCURVE",
"420 400 CURVE SMOOTH",
"192 -300 LINE SMOOTH",
"189 -308 OFFCURVE",
"196 -312 OFFCURVE",
"206 -312 CURVE SMOOTH"
);
}
);
width = 478;
}
);
leftMetricsKey = "=o";
unicode = 0071;
},
{
glyphname = r;
lastChange = "2022-08-29 06:03:06 +0000";
layers = (
{
background = {
paths = (
{
closed = 1;
nodes = (
"114 -12 OFFCURVE",
"119 -9 OFFCURVE",
"119 0 CURVE SMOOTH",
"119 400 LINE SMOOTH",
"119 409 OFFCURVE",
"114 412 OFFCURVE",
"104 412 CURVE SMOOTH",
"94 412 OFFCURVE",
"90 409 OFFCURVE",
"90 400 CURVE SMOOTH",
"90 0 LINE SMOOTH",
"90 -9 OFFCURVE",
"94 -12 OFFCURVE",
"104 -12 CURVE SMOOTH"
);
},
{
closed = 1;
nodes = (
"139 346 OFFCURVE",
"192 387 OFFCURVE",
"251 387 CURVE SMOOTH",
"280 387 OFFCURVE",
"308 376 OFFCURVE",
"323 369 CURVE SMOOTH",
"329 366 OFFCURVE",
"334 367 OFFCURVE",
"339 375 CURVE SMOOTH",
"345 385 OFFCURVE",
"343 390 OFFCURVE",
"337 394 CURVE SMOOTH",
"319 405 OFFCURVE",
"287 415 OFFCURVE",
"254 415 CURVE SMOOTH",
"201 415 OFFCURVE",
"130 384 OFFCURVE",
"106 277 CURVE",
"119 247 LINE"
);
}
);
};
layerId = m01;
paths = (
{
closed = 1;
nodes = (
"114 -12 OFFCURVE",
"119 -9 OFFCURVE",
"119 0 CURVE SMOOTH",
"119 400 LINE SMOOTH",
"119 409 OFFCURVE",
"114 412 OFFCURVE",
"104 412 CURVE SMOOTH",
"94 412 OFFCURVE",
"90 409 OFFCURVE",
"90 400 CURVE SMOOTH",
"90 0 LINE SMOOTH",
"90 -9 OFFCURVE",
"94 -12 OFFCURVE",
"104 -12 CURVE SMOOTH"
);
},
{
closed = 1;
nodes = (
"139 346 OFFCURVE",
"192 387 OFFCURVE",
"251 387 CURVE SMOOTH",
"280 387 OFFCURVE",
"308 376 OFFCURVE",
"323 369 CURVE SMOOTH",
"329 366 OFFCURVE",
"334 367 OFFCURVE",
"339 375 CURVE SMOOTH",
"345 385 OFFCURVE",
"343 390 OFFCURVE",
"337 394 CURVE SMOOTH",
"319 405 OFFCURVE",
"287 415 OFFCURVE",
"254 415 CURVE SMOOTH",
"201 415 OFFCURVE",
"130 384 OFFCURVE",
"106 277 CURVE",
"119 247 LINE"
);
}
);
width = 363;
},
{
background = {
paths = (
{
closed = 1;
nodes = (
"49 -12 OFFCURVE",
"54 -9 OFFCURVE",
"57 0 CURVE SMOOTH",
"186 397 LINE SMOOTH",
"189 406 OFFCURVE",
"184 412 OFFCURVE",
"174 412 CURVE SMOOTH",
"164 412 OFFCURVE",
"158 409 OFFCURVE",
"155 400 CURVE SMOOTH",
"26 2 LINE SMOOTH",
"23 -7 OFFCURVE",
"29 -12 OFFCURVE",
"39 -12 CURVE SMOOTH"
);
},
{
closed = 1;
nodes = (
"189 346 OFFCURVE",
"256 387 OFFCURVE",
"315 387 CURVE SMOOTH",
"344 387 OFFCURVE",
"368 376 OFFCURVE",
"381 369 CURVE SMOOTH",
"386 366 OFFCURVE",
"391 367 OFFCURVE",
"399 375 CURVE SMOOTH",
"408 385 OFFCURVE",
"408 390 OFFCURVE",
"403 394 CURVE SMOOTH",
"389 405 OFFCURVE",
"357 415 OFFCURVE",
"324 415 CURVE SMOOTH",
"271 415 OFFCURVE",
"193 390 OFFCURVE",
"134 277 CURVE",
"137 247 LINE"
);
}
);
};
layerId = m002;
paths = (
{
closed = 1;
nodes = (
"49 -12 OFFCURVE",
"54 -9 OFFCURVE",
"57 0 CURVE SMOOTH",
"186 397 LINE SMOOTH",
"189 406 OFFCURVE",
"184 412 OFFCURVE",
"174 412 CURVE SMOOTH",
"164 412 OFFCURVE",
"158 409 OFFCURVE",
"155 400 CURVE SMOOTH",
"26 2 LINE SMOOTH",
"23 -7 OFFCURVE",
"29 -12 OFFCURVE",
"39 -12 CURVE SMOOTH"
);
},
{
closed = 1;
nodes = (
"189 346 OFFCURVE",
"256 387 OFFCURVE",
"315 387 CURVE SMOOTH",
"344 387 OFFCURVE",
"368 376 OFFCURVE",
"381 369 CURVE SMOOTH",
"386 366 OFFCURVE",
"391 367 OFFCURVE",
"399 375 CURVE SMOOTH",
"408 385 OFFCURVE",
"408 390 OFFCURVE",
"403 394 CURVE SMOOTH",
"389 405 OFFCURVE",
"357 415 OFFCURVE",
"324 415 CURVE SMOOTH",
"271 415 OFFCURVE",
"193 390 OFFCURVE",
"134 277 CURVE",
"137 247 LINE"
);
}
);
width = 363;
},
{
background = {
paths = (
{
closed = 1;
nodes = (
"114 -12 OFFCURVE",
"119 -9 OFFCURVE",
"119 0 CURVE SMOOTH",
"119 400 LINE SMOOTH",
"119 409 OFFCURVE",
"114 412 OFFCURVE",
"104 412 CURVE SMOOTH",
"94 412 OFFCURVE",
"90 409 OFFCURVE",
"90 400 CURVE SMOOTH",
"90 0 LINE SMOOTH",
"90 -9 OFFCURVE",
"94 -12 OFFCURVE",
"104 -12 CURVE SMOOTH"
);
},
{
closed = 1;
nodes = (
"145 316 OFFCURVE",
"202 388 OFFCURVE",
"268 388 CURVE SMOOTH",
"296 388 OFFCURVE",
"320 372 OFFCURVE",
"332 362 CURVE SMOOTH",
"338 357 OFFCURVE",
"345 359 OFFCURVE",
"350 365 CURVE SMOOTH",
"354 370 OFFCURVE",
"355 375 OFFCURVE",
"351 380 CURVE SMOOTH",
"334 401 OFFCURVE",
"301 415 OFFCURVE",
"271 415 CURVE SMOOTH",
"205 415 OFFCURVE",
"132 361 OFFCURVE",
"109 112 CURVE",
"119 38 LINE"
);
}
);
};
layerId = m003;
paths = (
{
closed = 1;
nodes = (
"114 -12 OFFCURVE",
"119 -9 OFFCURVE",
"119 0 CURVE SMOOTH",
"119 400 LINE SMOOTH",
"119 409 OFFCURVE",
"114 412 OFFCURVE",
"104 412 CURVE SMOOTH",
"94 412 OFFCURVE",
"90 409 OFFCURVE",
"90 400 CURVE SMOOTH",
"90 0 LINE SMOOTH",
"90 -9 OFFCURVE",
"94 -12 OFFCURVE",
"104 -12 CURVE SMOOTH"
);
},
{
closed = 1;
nodes = (
"145 316 OFFCURVE",
"202 388 OFFCURVE",
"268 388 CURVE SMOOTH",
"296 388 OFFCURVE",
"320 372 OFFCURVE",
"332 362 CURVE SMOOTH",
"338 357 OFFCURVE",
"345 359 OFFCURVE",
"350 365 CURVE SMOOTH",
"354 370 OFFCURVE",
"355 375 OFFCURVE",
"351 380 CURVE SMOOTH",
"334 401 OFFCURVE",
"301 415 OFFCURVE",
"271 415 CURVE SMOOTH",
"205 415 OFFCURVE",
"132 361 OFFCURVE",
"109 112 CURVE",
"119 38 LINE"
);
}
);
width = 363;
},
{
background = {
paths = (
{
closed = 1;
nodes = (
"45 -12 OFFCURVE",
"51 -9 OFFCURVE",
"54 0 CURVE SMOOTH",
"185 398 LINE SMOOTH",
"188 407 OFFCURVE",
"183 412 OFFCURVE",
"173 412 CURVE SMOOTH",
"163 412 OFFCURVE",
"158 409 OFFCURVE",
"155 400 CURVE SMOOTH",
"25 0 LINE SMOOTH",
"22 -9 OFFCURVE",
"25 -12 OFFCURVE",
"35 -12 CURVE SMOOTH"
);
},
{
closed = 1;
nodes = (
"192 324 OFFCURVE",
"267 388 OFFCURVE",
"331 388 CURVE SMOOTH",
"358 388 OFFCURVE",
"375 374 OFFCURVE",
"385 364 CURVE SMOOTH",
"391 358 OFFCURVE",
"397 359 OFFCURVE",
"404 365 CURVE SMOOTH",
"409 370 OFFCURVE",
"412 375 OFFCURVE",
"409 380 CURVE SMOOTH",
"399 399 OFFCURVE",
"371 415 OFFCURVE",
"339 415 CURVE SMOOTH",
"275 415 OFFCURVE",
"193 370 OFFCURVE",
"80 112 CURVE",
"66 38 LINE"
);
}
);
};
layerId = m004;
paths = (
{
closed = 1;
nodes = (
"45 -12 OFFCURVE",
"51 -9 OFFCURVE",
"54 0 CURVE SMOOTH",
"185 398 LINE SMOOTH",
"188 407 OFFCURVE",
"183 412 OFFCURVE",
"173 412 CURVE SMOOTH",
"163 412 OFFCURVE",
"158 409 OFFCURVE",
"155 400 CURVE SMOOTH",
"25 0 LINE SMOOTH",
"22 -9 OFFCURVE",
"25 -12 OFFCURVE",
"35 -12 CURVE SMOOTH"
);
},
{
closed = 1;
nodes = (
"192 324 OFFCURVE",
"267 388 OFFCURVE",
"331 388 CURVE SMOOTH",
"358 388 OFFCURVE",
"375 374 OFFCURVE",
"385 364 CURVE SMOOTH",
"391 358 OFFCURVE",
"397 359 OFFCURVE",
"404 365 CURVE SMOOTH",
"409 370 OFFCURVE",
"412 375 OFFCURVE",
"409 380 CURVE SMOOTH",
"399 399 OFFCURVE",
"371 415 OFFCURVE",
"339 415 CURVE SMOOTH",
"275 415 OFFCURVE",
"193 370 OFFCURVE",
"80 112 CURVE",
"66 38 LINE"
);
}
);
width = 363;
}
);
leftMetricsKey = "=n";
unicode = 0072;
},
{
glyphname = s;
lastChange = "2022-08-29 06:03:06 +0000";
layers = (
{
background = {
paths = (
{
closed = 1;
nodes = (
"73 20 OFFCURVE",
"124 -15 OFFCURVE",
"201 -15 CURVE SMOOTH",
"293 -15 OFFCURVE",
"331 49 OFFCURVE",
"331 107 CURVE SMOOTH",
"331 253 OFFCURVE",
"105 186 OFFCURVE",
"105 309 CURVE SMOOTH",
"105 355 OFFCURVE",
"136 388 OFFCURVE",
"201 388 CURVE SMOOTH",
"245 388 OFFCURVE",
"271 373 OFFCURVE",
"308 344 CURVE SMOOTH",
"314 339 OFFCURVE",
"322 338 OFFCURVE",
"327 343 CURVE SMOOTH",
"333 349 OFFCURVE",
"336 354 OFFCURVE",
"330 361 CURVE SMOOTH",
"308 388 OFFCURVE",
"261 415 OFFCURVE",
"203 415 CURVE SMOOTH",
"122 415 OFFCURVE",
"75 368 OFFCURVE",
"75 307 CURVE SMOOTH",
"75 161 OFFCURVE",
"300 226 OFFCURVE",
"300 106 CURVE SMOOTH",
"300 53 OFFCURVE",
"264 12 OFFCURVE",
"204 12 CURVE SMOOTH",
"148 12 OFFCURVE",
"107 33 OFFCURVE",
"77 60 CURVE SMOOTH",
"69 67 OFFCURVE",
"62 67 OFFCURVE",
"56 60 CURVE SMOOTH",
"50 53 OFFCURVE",
"47 47 OFFCURVE",
"54 39 CURVE SMOOTH"
);
}
);
};
layerId = m01;
paths = (
{
closed = 1;
nodes = (
"73 20 OFFCURVE",
"124 -15 OFFCURVE",
"201 -15 CURVE SMOOTH",
"293 -15 OFFCURVE",
"331 49 OFFCURVE",
"331 107 CURVE SMOOTH",
"331 253 OFFCURVE",
"105 186 OFFCURVE",
"105 309 CURVE SMOOTH",
"105 355 OFFCURVE",
"136 388 OFFCURVE",
"201 388 CURVE SMOOTH",
"245 388 OFFCURVE",
"271 373 OFFCURVE",
"308 344 CURVE SMOOTH",
"314 339 OFFCURVE",
"322 338 OFFCURVE",
"327 343 CURVE SMOOTH",
"333 349 OFFCURVE",
"336 354 OFFCURVE",
"330 361 CURVE SMOOTH",
"308 388 OFFCURVE",
"261 415 OFFCURVE",
"203 415 CURVE SMOOTH",
"122 415 OFFCURVE",
"75 368 OFFCURVE",
"75 307 CURVE SMOOTH",
"75 161 OFFCURVE",
"300 226 OFFCURVE",
"300 106 CURVE SMOOTH",
"300 53 OFFCURVE",
"264 12 OFFCURVE",
"204 12 CURVE SMOOTH",
"148 12 OFFCURVE",
"107 33 OFFCURVE",
"77 60 CURVE SMOOTH",
"69 67 OFFCURVE",
"62 67 OFFCURVE",
"56 60 CURVE SMOOTH",
"50 53 OFFCURVE",
"47 47 OFFCURVE",
"54 39 CURVE SMOOTH"
);
}
);
width = 383;
},
{
background = {
paths = (
{
closed = 1;
nodes = (
"19 23 OFFCURVE",
"67 -15 OFFCURVE",
"145 -15 CURVE SMOOTH",
"231 -15 OFFCURVE",
"303 33 OFFCURVE",
"303 114 CURVE SMOOTH",
"303 221 OFFCURVE",
"142 205 OFFCURVE",
"142 300 CURVE SMOOTH",
"142 358 OFFCURVE",
"188 388 OFFCURVE",
"250 388 CURVE SMOOTH",
"295 388 OFFCURVE",
"328 370 OFFCURVE",
"356 342 CURVE SMOOTH",
"361 337 OFFCURVE",
"368 336 OFFCURVE",
"374 341 CURVE SMOOTH",
"382 347 OFFCURVE",
"385 352 OFFCURVE",
"381 359 CURVE SMOOTH",
"367 381 OFFCURVE",
"321 415 OFFCURVE",
"256 415 CURVE SMOOTH",
"175 415 OFFCURVE",
"110 376 OFFCURVE",
"110 298 CURVE SMOOTH",
"110 184 OFFCURVE",
"270 202 OFFCURVE",
"270 110 CURVE SMOOTH",
"270 47 OFFCURVE",
"213 13 OFFCURVE",
"147 13 CURVE SMOOTH",
"92 13 OFFCURVE",
"54 39 OFFCURVE",
"33 63 CURVE SMOOTH",
"27 70 OFFCURVE",
"21 70 OFFCURVE",
"12 63 CURVE SMOOTH",
"5 57 OFFCURVE",
"1 50 OFFCURVE",
"6 42 CURVE SMOOTH"
);
}
);
};
layerId = m002;
paths = (
{
closed = 1;
nodes = (
"19 23 OFFCURVE",
"67 -15 OFFCURVE",
"145 -15 CURVE SMOOTH",
"231 -15 OFFCURVE",
"303 33 OFFCURVE",
"303 114 CURVE SMOOTH",
"303 221 OFFCURVE",
"142 205 OFFCURVE",
"142 300 CURVE SMOOTH",
"142 358 OFFCURVE",
"188 388 OFFCURVE",
"250 388 CURVE SMOOTH",
"295 388 OFFCURVE",
"328 370 OFFCURVE",
"356 342 CURVE SMOOTH",
"361 337 OFFCURVE",
"368 336 OFFCURVE",
"374 341 CURVE SMOOTH",
"382 347 OFFCURVE",
"385 352 OFFCURVE",
"381 359 CURVE SMOOTH",
"367 381 OFFCURVE",
"321 415 OFFCURVE",
"256 415 CURVE SMOOTH",
"175 415 OFFCURVE",
"110 376 OFFCURVE",
"110 298 CURVE SMOOTH",
"110 184 OFFCURVE",
"270 202 OFFCURVE",
"270 110 CURVE SMOOTH",
"270 47 OFFCURVE",
"213 13 OFFCURVE",
"147 13 CURVE SMOOTH",
"92 13 OFFCURVE",
"54 39 OFFCURVE",
"33 63 CURVE SMOOTH",
"27 70 OFFCURVE",
"21 70 OFFCURVE",
"12 63 CURVE SMOOTH",
"5 57 OFFCURVE",
"1 50 OFFCURVE",
"6 42 CURVE SMOOTH"
);
}
);
width = 383;
},
{
background = {
paths = (
{
closed = 1;
nodes = (
"73 29 OFFCURVE",
"123 -15 OFFCURVE",
"207 -15 CURVE SMOOTH",
"291 -15 OFFCURVE",
"331 44 OFFCURVE",
"331 97 CURVE SMOOTH",
"331 223 OFFCURVE",
"108 203 OFFCURVE",
"108 313 CURVE SMOOTH",
"108 358 OFFCURVE",
"140 388 OFFCURVE",
"201 388 CURVE SMOOTH",
"242 388 OFFCURVE",
"270 372 OFFCURVE",
"301 340 CURVE SMOOTH",
"307 333 OFFCURVE",
"314 333 OFFCURVE",
"320 337 CURVE SMOOTH",
"327 342 OFFCURVE",
"328 349 OFFCURVE",
"323 355 CURVE SMOOTH",
"302 382 OFFCURVE",
"261 415 OFFCURVE",
"202 415 CURVE SMOOTH",
"126 415 OFFCURVE",
"78 371 OFFCURVE",
"78 314 CURVE SMOOTH",
"78 179 OFFCURVE",
"300 202 OFFCURVE",
"300 94 CURVE SMOOTH",
"300 48 OFFCURVE",
"266 11 OFFCURVE",
"207 11 CURVE SMOOTH",
"146 11 OFFCURVE",
"101 42 OFFCURVE",
"73 76 CURVE SMOOTH",
"67 84 OFFCURVE",
"61 84 OFFCURVE",
"53 77 CURVE SMOOTH",
"44 69 OFFCURVE",
"45 63 OFFCURVE",
"52 55 CURVE SMOOTH"
);
}
);
};
layerId = m003;
paths = (
{
closed = 1;
nodes = (
"73 29 OFFCURVE",
"123 -15 OFFCURVE",
"207 -15 CURVE SMOOTH",
"291 -15 OFFCURVE",
"331 44 OFFCURVE",
"331 97 CURVE SMOOTH",
"331 223 OFFCURVE",
"108 203 OFFCURVE",
"108 313 CURVE SMOOTH",
"108 358 OFFCURVE",
"140 388 OFFCURVE",
"201 388 CURVE SMOOTH",
"242 388 OFFCURVE",
"270 372 OFFCURVE",
"301 340 CURVE SMOOTH",
"307 333 OFFCURVE",
"314 333 OFFCURVE",
"320 337 CURVE SMOOTH",
"327 342 OFFCURVE",
"328 349 OFFCURVE",
"323 355 CURVE SMOOTH",
"302 382 OFFCURVE",
"261 415 OFFCURVE",
"202 415 CURVE SMOOTH",
"126 415 OFFCURVE",
"78 371 OFFCURVE",
"78 314 CURVE SMOOTH",
"78 179 OFFCURVE",
"300 202 OFFCURVE",
"300 94 CURVE SMOOTH",
"300 48 OFFCURVE",
"266 11 OFFCURVE",
"207 11 CURVE SMOOTH",
"146 11 OFFCURVE",
"101 42 OFFCURVE",
"73 76 CURVE SMOOTH",
"67 84 OFFCURVE",
"61 84 OFFCURVE",
"53 77 CURVE SMOOTH",
"44 69 OFFCURVE",
"45 63 OFFCURVE",
"52 55 CURVE SMOOTH"
);
}
);
width = 383;
},
{
background = {
paths = (
{
closed = 1;
nodes = (
"22 26 OFFCURVE",
"64 -15 OFFCURVE",
"140 -15 CURVE SMOOTH",
"220 -15 OFFCURVE",
"290 28 OFFCURVE",
"290 109 CURVE SMOOTH",
"290 213 OFFCURVE",
"133 209 OFFCURVE",
"133 299 CURVE SMOOTH",
"133 357 OFFCURVE",
"181 388 OFFCURVE",
"237 388 CURVE SMOOTH",
"283 388 OFFCURVE",
"309 373 OFFCURVE",
"339 338 CURVE SMOOTH",
"345 332 OFFCURVE",
"350 331 OFFCURVE",
"356 335 CURVE SMOOTH",
"364 341 OFFCURVE",
"366 344 OFFCURVE",
"362 351 CURVE SMOOTH",
"346 377 OFFCURVE",
"305 415 OFFCURVE",
"241 415 CURVE SMOOTH",
"168 415 OFFCURVE",
"102 373 OFFCURVE",
"102 295 CURVE SMOOTH",
"102 188 OFFCURVE",
"258 194 OFFCURVE",
"258 105 CURVE SMOOTH",
"258 42 OFFCURVE",
"202 12 OFFCURVE",
"142 12 CURVE SMOOTH",
"89 12 OFFCURVE",
"53 37 OFFCURVE",
"29 74 CURVE SMOOTH",
"23 83 OFFCURVE",
"18 82 OFFCURVE",
"10 77 CURVE SMOOTH",
"2 72 OFFCURVE",
"1 65 OFFCURVE",
"5 58 CURVE SMOOTH"
);
}
);
};
layerId = m004;
paths = (
{
closed = 1;
nodes = (
"22 26 OFFCURVE",
"64 -15 OFFCURVE",
"140 -15 CURVE SMOOTH",
"220 -15 OFFCURVE",
"290 28 OFFCURVE",
"290 109 CURVE SMOOTH",
"290 213 OFFCURVE",
"133 209 OFFCURVE",
"133 299 CURVE SMOOTH",
"133 357 OFFCURVE",
"181 388 OFFCURVE",
"237 388 CURVE SMOOTH",
"283 388 OFFCURVE",
"309 373 OFFCURVE",
"339 338 CURVE SMOOTH",
"345 332 OFFCURVE",
"350 331 OFFCURVE",
"356 335 CURVE SMOOTH",
"364 341 OFFCURVE",
"366 344 OFFCURVE",
"362 351 CURVE SMOOTH",
"346 377 OFFCURVE",
"305 415 OFFCURVE",
"241 415 CURVE SMOOTH",
"168 415 OFFCURVE",
"102 373 OFFCURVE",
"102 295 CURVE SMOOTH",
"102 188 OFFCURVE",
"258 194 OFFCURVE",
"258 105 CURVE SMOOTH",
"258 42 OFFCURVE",
"202 12 OFFCURVE",
"142 12 CURVE SMOOTH",
"89 12 OFFCURVE",
"53 37 OFFCURVE",
"29 74 CURVE SMOOTH",
"23 83 OFFCURVE",
"18 82 OFFCURVE",
"10 77 CURVE SMOOTH",
"2 72 OFFCURVE",
"1 65 OFFCURVE",
"5 58 CURVE SMOOTH"
);
}
);
width = 383;
}
);
unicode = 0073;
},
{
glyphname = t;
lastChange = "2022-09-28 14:06:54 +0000";
layers = (
{
background = {
paths = (
{
closed = 1;
nodes = (
"233 -14 OFFCURVE",
"264 10 OFFCURVE",
"283 40 CURVE SMOOTH",
"287 46 OFFCURVE",
"284 53 OFFCURVE",
"278 58 CURVE SMOOTH",
"271 63 OFFCURVE",
"264 64 OFFCURVE",
"259 57 CURVE SMOOTH",
"242 32 OFFCURVE",
"223 14 OFFCURVE",
"196 14 CURVE SMOOTH",
"153 14 OFFCURVE",
"143 46 OFFCURVE",
"143 94 CURVE SMOOTH",
"143 572 LINE SMOOTH",
"143 581 OFFCURVE",
"138 584 OFFCURVE",
"128 584 CURVE SMOOTH",
"118 584 OFFCURVE",
"114 581 OFFCURVE",
"114 572 CURVE SMOOTH",
"114 84 LINE SMOOTH",
"114 21 OFFCURVE",
"139 -14 OFFCURVE",
"191 -14 CURVE SMOOTH"
);
},
{
closed = 1;
nodes = (
"257 374 LINE SMOOTH",
"266 374 OFFCURVE",
"269 378 OFFCURVE",
"269 386 CURVE SMOOTH",
"269 395 OFFCURVE",
"266 400 OFFCURVE",
"257 400 CURVE SMOOTH",
"52 400 LINE SMOOTH",
"43 400 OFFCURVE",
"40 395 OFFCURVE",
"40 386 CURVE SMOOTH",
"40 378 OFFCURVE",
"43 374 OFFCURVE",
"52 374 CURVE SMOOTH"
);
}
);
};
layerId = m01;
paths = (
{
closed = 1;
nodes = (
"233 -14 OFFCURVE",
"264 10 OFFCURVE",
"283 40 CURVE SMOOTH",
"287 46 OFFCURVE",
"284 53 OFFCURVE",
"278 58 CURVE SMOOTH",
"271 63 OFFCURVE",
"264 64 OFFCURVE",
"259 57 CURVE SMOOTH",
"242 32 OFFCURVE",
"223 14 OFFCURVE",
"196 14 CURVE SMOOTH",
"153 14 OFFCURVE",
"143 46 OFFCURVE",
"143 94 CURVE SMOOTH",
"143 572 LINE SMOOTH",
"143 581 OFFCURVE",
"138 584 OFFCURVE",
"128 584 CURVE SMOOTH",
"118 584 OFFCURVE",
"114 581 OFFCURVE",
"114 572 CURVE SMOOTH",
"114 84 LINE SMOOTH",
"114 21 OFFCURVE",
"139 -14 OFFCURVE",
"191 -14 CURVE SMOOTH"
);
},
{
closed = 1;
nodes = (
"257 374 LINE SMOOTH",
"266 374 OFFCURVE",
"269 378 OFFCURVE",
"269 386 CURVE SMOOTH",
"269 395 OFFCURVE",
"266 400 OFFCURVE",
"257 400 CURVE SMOOTH",
"52 400 LINE SMOOTH",
"43 400 OFFCURVE",
"40 395 OFFCURVE",
"40 386 CURVE SMOOTH",
"40 378 OFFCURVE",
"43 374 OFFCURVE",
"52 374 CURVE SMOOTH"
);
}
);
width = 310;
},
{
background = {
paths = (
{
closed = 1;
nodes = (
"191 -14 OFFCURVE",
"226 19 OFFCURVE",
"245 56 CURVE SMOOTH",
"249 63 OFFCURVE",
"248 71 OFFCURVE",
"239 75 CURVE SMOOTH",
"229 80 OFFCURVE",
"223 74 OFFCURVE",
"220 68 CURVE SMOOTH",
"207 39 OFFCURVE",
"175 13 OFFCURVE",
"139 13 CURVE SMOOTH",
"109 13 OFFCURVE",
"89 36 OFFCURVE",
"111 102 CURVE SMOOTH",
"264 571 LINE SMOOTH",
"267 579 OFFCURVE",
"261 584 OFFCURVE",
"251 584 CURVE SMOOTH",
"239 584 OFFCURVE",
"235 581 OFFCURVE",
"232 572 CURVE SMOOTH",
"81 108 LINE SMOOTH",
"51 17 OFFCURVE",
"86 -14 OFFCURVE",
"136 -14 CURVE SMOOTH"
);
},
{
closed = 1;
nodes = (
"304 374 LINE SMOOTH",
"314 374 OFFCURVE",
"318 377 OFFCURVE",
"321 387 CURVE SMOOTH",
"324 395 OFFCURVE",
"323 400 OFFCURVE",
"312 400 CURVE SMOOTH",
"115 400 LINE SMOOTH",
"105 400 OFFCURVE",
"101 397 OFFCURVE",
"98 388 CURVE SMOOTH",
"95 379 OFFCURVE",
"96 374 OFFCURVE",
"107 374 CURVE SMOOTH"
);
}
);
};
guideLines = (
{
angle = 72;
position = "{189, 489}";
}
);
layerId = m002;
paths = (
{
closed = 1;
nodes = (
"191 -14 OFFCURVE",
"226 19 OFFCURVE",
"245 56 CURVE SMOOTH",
"249 63 OFFCURVE",
"248 71 OFFCURVE",
"239 75 CURVE SMOOTH",
"229 80 OFFCURVE",
"223 74 OFFCURVE",
"220 68 CURVE SMOOTH",
"207 39 OFFCURVE",
"175 13 OFFCURVE",
"139 13 CURVE SMOOTH",
"109 13 OFFCURVE",
"89 36 OFFCURVE",
"111 102 CURVE SMOOTH",
"264 571 LINE SMOOTH",
"267 579 OFFCURVE",
"261 584 OFFCURVE",
"251 584 CURVE SMOOTH",
"239 584 OFFCURVE",
"235 581 OFFCURVE",
"232 572 CURVE SMOOTH",
"81 108 LINE SMOOTH",
"51 17 OFFCURVE",
"86 -14 OFFCURVE",
"136 -14 CURVE SMOOTH"
);
},
{
closed = 1;
nodes = (
"304 374 LINE SMOOTH",
"314 374 OFFCURVE",
"318 377 OFFCURVE",
"321 387 CURVE SMOOTH",
"324 395 OFFCURVE",
"323 400 OFFCURVE",
"312 400 CURVE SMOOTH",
"110 400 LINE SMOOTH",
"100 400 OFFCURVE",
"96 397 OFFCURVE",
"93 388 CURVE SMOOTH",
"90 379 OFFCURVE",
"91 374 OFFCURVE",
"102 374 CURVE SMOOTH"
);
}
);
width = 310;
},
{
background = {
paths = (
{
closed = 1;
nodes = (
"218 -14 OFFCURVE",
"257 22 OFFCURVE",
"279 81 CURVE SMOOTH",
"281 86 OFFCURVE",
"279 92 OFFCURVE",
"271 95 CURVE SMOOTH",
"264 98 OFFCURVE",
"257 98 OFFCURVE",
"254 90 CURVE SMOOTH",
"234 39 OFFCURVE",
"209 13 OFFCURVE",
"179 13 CURVE SMOOTH",
"149 13 OFFCURVE",
"143 37 OFFCURVE",
"143 85 CURVE SMOOTH",
"143 572 LINE SMOOTH",
"143 581 OFFCURVE",
"138 584 OFFCURVE",
"128 584 CURVE SMOOTH",
"118 584 OFFCURVE",
"113 581 OFFCURVE",
"113 572 CURVE SMOOTH",
"113 74 LINE SMOOTH",
"113 9 OFFCURVE",
"134 -14 OFFCURVE",
"175 -14 CURVE SMOOTH"
);
},
{
closed = 1;
nodes = (
"256 374 LINE SMOOTH",
"265 374 OFFCURVE",
"268 378 OFFCURVE",
"268 386 CURVE SMOOTH",
"268 395 OFFCURVE",
"265 400 OFFCURVE",
"256 400 CURVE SMOOTH",
"51 400 LINE SMOOTH",
"42 400 OFFCURVE",
"39 395 OFFCURVE",
"39 386 CURVE SMOOTH",
"39 378 OFFCURVE",
"42 374 OFFCURVE",
"51 374 CURVE SMOOTH"
);
}
);
};
layerId = m003;
paths = (
{
closed = 1;
nodes = (
"218 -14 OFFCURVE",
"257 22 OFFCURVE",
"279 81 CURVE SMOOTH",
"281 86 OFFCURVE",
"279 92 OFFCURVE",
"271 95 CURVE SMOOTH",
"264 98 OFFCURVE",
"257 98 OFFCURVE",
"254 90 CURVE SMOOTH",
"234 39 OFFCURVE",
"209 13 OFFCURVE",
"179 13 CURVE SMOOTH",
"149 13 OFFCURVE",
"143 37 OFFCURVE",
"143 85 CURVE SMOOTH",
"143 572 LINE SMOOTH",
"143 581 OFFCURVE",
"138 584 OFFCURVE",
"128 584 CURVE SMOOTH",
"118 584 OFFCURVE",
"113 581 OFFCURVE",
"113 572 CURVE SMOOTH",
"113 74 LINE SMOOTH",
"113 9 OFFCURVE",
"134 -14 OFFCURVE",
"175 -14 CURVE SMOOTH"
);
},
{
closed = 1;
nodes = (
"256 374 LINE SMOOTH",
"265 374 OFFCURVE",
"268 378 OFFCURVE",
"268 386 CURVE SMOOTH",
"268 395 OFFCURVE",
"265 400 OFFCURVE",
"256 400 CURVE SMOOTH",
"51 400 LINE SMOOTH",
"42 400 OFFCURVE",
"39 395 OFFCURVE",
"39 386 CURVE SMOOTH",
"39 378 OFFCURVE",
"42 374 OFFCURVE",
"51 374 CURVE SMOOTH"
);
}
);
width = 310;
},
{
background = {
paths = (
{
closed = 1;
nodes = (
"155 -12 OFFCURVE",
"206 23 OFFCURVE",
"247 81 CURVE SMOOTH",
"251 86 OFFCURVE",
"252 91 OFFCURVE",
"244 97 CURVE SMOOTH",
"238 102 OFFCURVE",
"234 102 OFFCURVE",
"228 95 CURVE SMOOTH",
"190 46 OFFCURVE",
"151 16 OFFCURVE",
"120 16 CURVE SMOOTH",
"86 16 OFFCURVE",
"86 37 OFFCURVE",
"104 91 CURVE SMOOTH",
"262 571 LINE SMOOTH",
"265 579 OFFCURVE",
"259 584 OFFCURVE",
"249 584 CURVE SMOOTH",
"237 584 OFFCURVE",
"233 581 OFFCURVE",
"230 572 CURVE SMOOTH",
"73 90 LINE SMOOTH",
"48 12 OFFCURVE",
"68 -12 OFFCURVE",
"112 -12 CURVE SMOOTH"
);
},
{
closed = 1;
nodes = (
"302 374 LINE SMOOTH",
"312 374 OFFCURVE",
"316 377 OFFCURVE",
"319 387 CURVE SMOOTH",
"322 395 OFFCURVE",
"321 400 OFFCURVE",
"310 400 CURVE SMOOTH",
"113 400 LINE SMOOTH",
"103 400 OFFCURVE",
"99 397 OFFCURVE",
"96 388 CURVE SMOOTH",
"93 379 OFFCURVE",
"94 374 OFFCURVE",
"105 374 CURVE SMOOTH"
);
}
);
};
layerId = m004;
paths = (
{
closed = 1;
nodes = (
"155 -12 OFFCURVE",
"206 23 OFFCURVE",
"247 81 CURVE SMOOTH",
"251 86 OFFCURVE",
"252 91 OFFCURVE",
"244 97 CURVE SMOOTH",
"238 102 OFFCURVE",
"234 102 OFFCURVE",
"228 95 CURVE SMOOTH",
"190 46 OFFCURVE",
"151 16 OFFCURVE",
"120 16 CURVE SMOOTH",
"86 16 OFFCURVE",
"86 37 OFFCURVE",
"104 91 CURVE SMOOTH",
"262 571 LINE SMOOTH",
"265 579 OFFCURVE",
"259 584 OFFCURVE",
"249 584 CURVE SMOOTH",
"237 584 OFFCURVE",
"233 581 OFFCURVE",
"230 572 CURVE SMOOTH",
"73 90 LINE SMOOTH",
"48 12 OFFCURVE",
"68 -12 OFFCURVE",
"112 -12 CURVE SMOOTH"
);
},
{
closed = 1;
nodes = (
"302 374 LINE SMOOTH",
"312 374 OFFCURVE",
"316 377 OFFCURVE",
"319 387 CURVE SMOOTH",
"322 395 OFFCURVE",
"321 400 OFFCURVE",
"310 400 CURVE SMOOTH",
"113 400 LINE SMOOTH",
"103 400 OFFCURVE",
"99 397 OFFCURVE",
"96 388 CURVE SMOOTH",
"93 379 OFFCURVE",
"94 374 OFFCURVE",
"105 374 CURVE SMOOTH"
);
}
);
width = 310;
}
);
unicode = 0074;
},
{
glyphname = u;
lastChange = "2022-08-29 06:03:06 +0000";
layers = (
{
background = {
paths = (
{
closed = 1;
nodes = (
"274 -15 OFFCURVE",
"352 8 OFFCURVE",
"381 123 CURVE",
"368 153 LINE",
"346 47 OFFCURVE",
"283 13 OFFCURVE",
"220 13 CURVE SMOOTH",
"149 13 OFFCURVE",
"119 60 OFFCURVE",
"119 139 CURVE SMOOTH",
"119 399 LINE SMOOTH",
"119 408 OFFCURVE",
"114 411 OFFCURVE",
"104 411 CURVE SMOOTH",
"94 411 OFFCURVE",
"90 408 OFFCURVE",
"90 399 CURVE SMOOTH",
"90 133 LINE SMOOTH",
"90 28 OFFCURVE",
"146 -15 OFFCURVE",
"216 -15 CURVE SMOOTH"
);
},
{
closed = 1;
nodes = (
"460 -15 OFFCURVE",
"491 2 OFFCURVE",
"509 27 CURVE SMOOTH",
"513 33 OFFCURVE",
"511 38 OFFCURVE",
"506 43 CURVE SMOOTH",
"500 49 OFFCURVE",
"494 48 OFFCURVE",
"489 41 CURVE SMOOTH",
"471 20 OFFCURVE",
"452 13 OFFCURVE",
"435 13 CURVE SMOOTH",
"407 13 OFFCURVE",
"397 35 OFFCURVE",
"397 73 CURVE SMOOTH",
"397 400 LINE SMOOTH",
"397 409 OFFCURVE",
"393 412 OFFCURVE",
"383 412 CURVE SMOOTH",
"373 412 OFFCURVE",
"368 409 OFFCURVE",
"368 400 CURVE SMOOTH",
"368 63 LINE SMOOTH",
"368 10 OFFCURVE",
"393 -15 OFFCURVE",
"430 -15 CURVE SMOOTH"
);
}
);
};
layerId = m01;
paths = (
{
closed = 1;
nodes = (
"274 -15 OFFCURVE",
"352 8 OFFCURVE",
"381 123 CURVE",
"368 153 LINE",
"346 47 OFFCURVE",
"283 13 OFFCURVE",
"220 13 CURVE SMOOTH",
"149 13 OFFCURVE",
"119 60 OFFCURVE",
"119 139 CURVE SMOOTH",
"119 399 LINE SMOOTH",
"119 408 OFFCURVE",
"114 411 OFFCURVE",
"104 411 CURVE SMOOTH",
"94 411 OFFCURVE",
"90 408 OFFCURVE",
"90 399 CURVE SMOOTH",
"90 133 LINE SMOOTH",
"90 28 OFFCURVE",
"146 -15 OFFCURVE",
"216 -15 CURVE SMOOTH"
);
},
{
closed = 1;
nodes = (
"460 -15 OFFCURVE",
"491 2 OFFCURVE",
"509 27 CURVE SMOOTH",
"513 33 OFFCURVE",
"511 38 OFFCURVE",
"506 43 CURVE SMOOTH",
"500 49 OFFCURVE",
"494 48 OFFCURVE",
"489 41 CURVE SMOOTH",
"471 20 OFFCURVE",
"452 13 OFFCURVE",
"435 13 CURVE SMOOTH",
"407 13 OFFCURVE",
"397 35 OFFCURVE",
"397 73 CURVE SMOOTH",
"397 400 LINE SMOOTH",
"397 409 OFFCURVE",
"393 412 OFFCURVE",
"383 412 CURVE SMOOTH",
"373 412 OFFCURVE",
"368 409 OFFCURVE",
"368 400 CURVE SMOOTH",
"368 63 LINE SMOOTH",
"368 10 OFFCURVE",
"393 -15 OFFCURVE",
"430 -15 CURVE SMOOTH"
);
}
);
width = 517;
},
{
background = {
paths = (
{
closed = 1;
nodes = (
"210 -14 OFFCURVE",
"295 7 OFFCURVE",
"355 124 CURVE",
"352 154 LINE",
"299 48 OFFCURVE",
"226 14 OFFCURVE",
"162 14 CURVE SMOOTH",
"92 14 OFFCURVE",
"73 62 OFFCURVE",
"96 132 CURVE SMOOTH",
"184 399 LINE",
"187 407 OFFCURVE",
"181 412 OFFCURVE",
"171 412 CURVE SMOOTH",
"159 412 OFFCURVE",
"155 409 OFFCURVE",
"152 400 CURVE",
"68 144 LINE SMOOTH",
"32 35 OFFCURVE",
"81 -14 OFFCURVE",
"158 -14 CURVE SMOOTH"
);
},
{
closed = 1;
nodes = (
"429 -14 OFFCURVE",
"460 19 OFFCURVE",
"480 53 CURVE SMOOTH",
"485 60 OFFCURVE",
"484 68 OFFCURVE",
"475 72 CURVE SMOOTH",
"465 77 OFFCURVE",
"459 71 OFFCURVE",
"456 65 CURVE SMOOTH",
"441 39 OFFCURVE",
"413 13 OFFCURVE",
"386 13 CURVE SMOOTH",
"358 13 OFFCURVE",
"345 36 OFFCURVE",
"363 93 CURVE SMOOTH",
"463 401 LINE",
"466 409 OFFCURVE",
"459 413 OFFCURVE",
"449 413 CURVE SMOOTH",
"437 413 OFFCURVE",
"434 410 OFFCURVE",
"431 401 CURVE",
"334 99 LINE SMOOTH",
"308 18 OFFCURVE",
"335 -14 OFFCURVE",
"383 -14 CURVE SMOOTH"
);
}
);
};
layerId = m002;
paths = (
{
closed = 1;
nodes = (
"210 -14 OFFCURVE",
"295 7 OFFCURVE",
"355 124 CURVE",
"352 154 LINE",
"299 48 OFFCURVE",
"226 14 OFFCURVE",
"162 14 CURVE SMOOTH",
"92 14 OFFCURVE",
"73 62 OFFCURVE",
"96 132 CURVE SMOOTH",
"184 399 LINE",
"187 407 OFFCURVE",
"181 412 OFFCURVE",
"171 412 CURVE SMOOTH",
"159 412 OFFCURVE",
"155 409 OFFCURVE",
"152 400 CURVE",
"68 144 LINE SMOOTH",
"32 35 OFFCURVE",
"81 -14 OFFCURVE",
"158 -14 CURVE SMOOTH"
);
},
{
closed = 1;
nodes = (
"429 -14 OFFCURVE",
"460 19 OFFCURVE",
"480 53 CURVE SMOOTH",
"485 60 OFFCURVE",
"484 68 OFFCURVE",
"475 72 CURVE SMOOTH",
"465 77 OFFCURVE",
"459 71 OFFCURVE",
"456 65 CURVE SMOOTH",
"441 39 OFFCURVE",
"413 13 OFFCURVE",
"386 13 CURVE SMOOTH",
"358 13 OFFCURVE",
"345 36 OFFCURVE",
"363 93 CURVE SMOOTH",
"463 401 LINE",
"466 409 OFFCURVE",
"459 413 OFFCURVE",
"449 413 CURVE SMOOTH",
"437 413 OFFCURVE",
"434 410 OFFCURVE",
"431 401 CURVE",
"334 99 LINE SMOOTH",
"308 18 OFFCURVE",
"335 -14 OFFCURVE",
"383 -14 CURVE SMOOTH"
);
}
);
width = 517;
},
{
background = {
paths = (
{
closed = 1;
nodes = (
"250 -14 OFFCURVE",
"352 54 OFFCURVE",
"378 289 CURVE",
"368 363 LINE",
"342 85 OFFCURVE",
"252 13 OFFCURVE",
"185 13 CURVE SMOOTH",
"137 13 OFFCURVE",
"120 49 OFFCURVE",
"120 124 CURVE SMOOTH",
"120 400 LINE SMOOTH",
"120 409 OFFCURVE",
"115 412 OFFCURVE",
"105 412 CURVE SMOOTH",
"95 412 OFFCURVE",
"90 409 OFFCURVE",
"90 400 CURVE SMOOTH",
"90 116 LINE SMOOTH",
"90 16 OFFCURVE",
"133 -14 OFFCURVE",
"184 -14 CURVE SMOOTH"
);
},
{
closed = 1;
nodes = (
"452 -14 OFFCURVE",
"488 15 OFFCURVE",
"508 71 CURVE SMOOTH",
"510 76 OFFCURVE",
"508 82 OFFCURVE",
"500 85 CURVE SMOOTH",
"493 88 OFFCURVE",
"486 88 OFFCURVE",
"483 80 CURVE SMOOTH",
"463 32 OFFCURVE",
"446 13 OFFCURVE",
"423 13 CURVE SMOOTH",
"401 13 OFFCURVE",
"397 37 OFFCURVE",
"397 65 CURVE SMOOTH",
"397 401 LINE SMOOTH",
"397 410 OFFCURVE",
"392 413 OFFCURVE",
"382 413 CURVE SMOOTH",
"372 413 OFFCURVE",
"367 410 OFFCURVE",
"367 401 CURVE SMOOTH",
"367 54 LINE SMOOTH",
"367 9 OFFCURVE",
"385 -14 OFFCURVE",
"419 -14 CURVE SMOOTH"
);
}
);
};
layerId = m003;
paths = (
{
closed = 1;
nodes = (
"250 -14 OFFCURVE",
"352 54 OFFCURVE",
"378 289 CURVE",
"368 363 LINE",
"342 85 OFFCURVE",
"252 13 OFFCURVE",
"185 13 CURVE SMOOTH",
"137 13 OFFCURVE",
"120 49 OFFCURVE",
"120 124 CURVE SMOOTH",
"120 400 LINE SMOOTH",
"120 409 OFFCURVE",
"115 412 OFFCURVE",
"105 412 CURVE SMOOTH",
"95 412 OFFCURVE",
"90 409 OFFCURVE",
"90 400 CURVE SMOOTH",
"90 116 LINE SMOOTH",
"90 16 OFFCURVE",
"133 -14 OFFCURVE",
"184 -14 CURVE SMOOTH"
);
},
{
closed = 1;
nodes = (
"452 -14 OFFCURVE",
"488 15 OFFCURVE",
"508 71 CURVE SMOOTH",
"510 76 OFFCURVE",
"508 82 OFFCURVE",
"500 85 CURVE SMOOTH",
"493 88 OFFCURVE",
"486 88 OFFCURVE",
"483 80 CURVE SMOOTH",
"463 32 OFFCURVE",
"446 13 OFFCURVE",
"423 13 CURVE SMOOTH",
"401 13 OFFCURVE",
"397 37 OFFCURVE",
"397 65 CURVE SMOOTH",
"397 401 LINE SMOOTH",
"397 410 OFFCURVE",
"392 413 OFFCURVE",
"382 413 CURVE SMOOTH",
"372 413 OFFCURVE",
"367 410 OFFCURVE",
"367 401 CURVE SMOOTH",
"367 54 LINE SMOOTH",
"367 9 OFFCURVE",
"385 -14 OFFCURVE",
"419 -14 CURVE SMOOTH"
);
}
);
width = 517;
},
{
background = {
paths = (
{
closed = 1;
nodes = (
"190 -12 OFFCURVE",
"307 58 OFFCURVE",
"409 293 CURVE",
"421 365 LINE",
"307 87 OFFCURVE",
"191 16 OFFCURVE",
"127 16 CURVE SMOOTH",
"85 16 OFFCURVE",
"72 49 OFFCURVE",
"98 128 CURVE SMOOTH",
"188 398 LINE SMOOTH",
"191 406 OFFCURVE",
"185 412 OFFCURVE",
"175 412 CURVE SMOOTH",
"163 412 OFFCURVE",
"160 409 OFFCURVE",
"157 400 CURVE SMOOTH",
"65 123 LINE SMOOTH",
"32 24 OFFCURVE",
"72 -12 OFFCURVE",
"123 -12 CURVE SMOOTH"
);
},
{
closed = 1;
nodes = (
"409 -12 OFFCURVE",
"456 41 OFFCURVE",
"477 71 CURVE SMOOTH",
"481 76 OFFCURVE",
"482 81 OFFCURVE",
"474 87 CURVE SMOOTH",
"468 92 OFFCURVE",
"464 92 OFFCURVE",
"458 85 CURVE SMOOTH",
"437 58 OFFCURVE",
"399 16 OFFCURVE",
"366 16 CURVE SMOOTH",
"344 16 OFFCURVE",
"344 37 OFFCURVE",
"359 82 CURVE SMOOTH",
"465 403 LINE",
"468 411 OFFCURVE",
"461 415 OFFCURVE",
"451 415 CURVE SMOOTH",
"439 415 OFFCURVE",
"436 412 OFFCURVE",
"433 403 CURVE SMOOTH",
"329 81 LINE SMOOTH",
"307 14 OFFCURVE",
"323 -12 OFFCURVE",
"360 -12 CURVE SMOOTH"
);
}
);
};
layerId = m004;
paths = (
{
closed = 1;
nodes = (
"190 -12 OFFCURVE",
"307 58 OFFCURVE",
"409 293 CURVE",
"421 365 LINE",
"307 87 OFFCURVE",
"191 16 OFFCURVE",
"127 16 CURVE SMOOTH",
"85 16 OFFCURVE",
"72 49 OFFCURVE",
"98 128 CURVE SMOOTH",
"188 398 LINE SMOOTH",
"191 406 OFFCURVE",
"185 412 OFFCURVE",
"175 412 CURVE SMOOTH",
"163 412 OFFCURVE",
"160 409 OFFCURVE",
"157 400 CURVE SMOOTH",
"65 123 LINE SMOOTH",
"32 24 OFFCURVE",
"72 -12 OFFCURVE",
"123 -12 CURVE SMOOTH"
);
},
{
closed = 1;
nodes = (
"409 -12 OFFCURVE",
"456 41 OFFCURVE",
"477 71 CURVE SMOOTH",
"481 76 OFFCURVE",
"482 81 OFFCURVE",
"474 87 CURVE SMOOTH",
"468 92 OFFCURVE",
"464 92 OFFCURVE",
"458 85 CURVE SMOOTH",
"437 58 OFFCURVE",
"399 16 OFFCURVE",
"366 16 CURVE SMOOTH",
"344 16 OFFCURVE",
"344 37 OFFCURVE",
"359 82 CURVE SMOOTH",
"465 403 LINE",
"468 411 OFFCURVE",
"461 415 OFFCURVE",
"451 415 CURVE SMOOTH",
"439 415 OFFCURVE",
"436 412 OFFCURVE",
"433 403 CURVE SMOOTH",
"329 81 LINE SMOOTH",
"307 14 OFFCURVE",
"323 -12 OFFCURVE",
"360 -12 CURVE SMOOTH"
);
}
);
width = 517;
}
);
rightMetricsKey = "=d";
unicode = 0075;
},
{
glyphname = v;
lastChange = "2022-09-28 14:24:54 +0000";
layers = (
{
background = {
paths = (
{
closed = 1;
nodes = (
"213 -12 OFFCURVE",
"214 -8 OFFCURVE",
"217 0 CURVE SMOOTH",
"375 394 LINE SMOOTH",
"380 406 OFFCURVE",
"374 412 OFFCURVE",
"361 412 CURVE SMOOTH",
"351 412 OFFCURVE",
"348 408 OFFCURVE",
"345 400 CURVE SMOOTH",
"204 36 LINE",
"61 400 LINE SMOOTH",
"58 408 OFFCURVE",
"55 412 OFFCURVE",
"45 412 CURVE SMOOTH",
"33 412 OFFCURVE",
"27 403 OFFCURVE",
"31 394 CURVE SMOOTH",
"189 0 LINE SMOOTH",
"192 -8 OFFCURVE",
"193 -12 OFFCURVE",
"203 -12 CURVE SMOOTH"
);
}
);
};
layerId = m01;
paths = (
{
closed = 1;
nodes = (
"213 -12 OFFCURVE",
"214 -8 OFFCURVE",
"217 0 CURVE SMOOTH",
"375 394 LINE SMOOTH",
"380 406 OFFCURVE",
"374 412 OFFCURVE",
"361 412 CURVE SMOOTH",
"351 412 OFFCURVE",
"348 408 OFFCURVE",
"345 400 CURVE SMOOTH",
"204 36 LINE",
"61 400 LINE SMOOTH",
"58 408 OFFCURVE",
"55 412 OFFCURVE",
"45 412 CURVE SMOOTH",
"33 412 OFFCURVE",
"27 403 OFFCURVE",
"31 394 CURVE SMOOTH",
"189 0 LINE SMOOTH",
"192 -8 OFFCURVE",
"193 -12 OFFCURVE",
"203 -12 CURVE SMOOTH"
);
}
);
width = 407;
},
{
background = {
paths = (
{
closed = 1;
nodes = (
"138 -12 OFFCURVE",
"142 -8 OFFCURVE",
"148 0 CURVE SMOOTH",
"430 393 LINE SMOOTH",
"437 402 OFFCURVE",
"427 412 OFFCURVE",
"415 412 CURVE SMOOTH",
"407 412 OFFCURVE",
"404 410 OFFCURVE",
"397 400 CURVE SMOOTH",
"142 36 LINE",
"114 400 LINE SMOOTH",
"113 408 OFFCURVE",
"112 412 OFFCURVE",
"101 412 CURVE SMOOTH",
"90 412 OFFCURVE",
"83 407 OFFCURVE",
"84 397 CURVE SMOOTH",
"116 0 LINE SMOOTH",
"117 -8 OFFCURVE",
"119 -12 OFFCURVE",
"128 -12 CURVE SMOOTH"
);
}
);
};
layerId = m002;
paths = (
{
closed = 1;
nodes = (
"138 -12 OFFCURVE",
"142 -8 OFFCURVE",
"148 0 CURVE SMOOTH",
"429 393 LINE SMOOTH",
"436 402 OFFCURVE",
"426 412 OFFCURVE",
"414 412 CURVE SMOOTH",
"406 412 OFFCURVE",
"403 410 OFFCURVE",
"396 400 CURVE SMOOTH",
"142 36 LINE",
"115 400 LINE SMOOTH",
"114 408 OFFCURVE",
"113 412 OFFCURVE",
"102 412 CURVE SMOOTH",
"91 412 OFFCURVE",
"84 407 OFFCURVE",
"85 397 CURVE SMOOTH",
"116 0 LINE SMOOTH",
"117 -8 OFFCURVE",
"119 -12 OFFCURVE",
"128 -12 CURVE SMOOTH"
);
}
);
width = 407;
},
{
background = {
paths = (
{
closed = 1;
nodes = (
"213 -12 OFFCURVE",
"214 -8 OFFCURVE",
"217 0 CURVE SMOOTH",
"375 394 LINE SMOOTH",
"380 406 OFFCURVE",
"374 412 OFFCURVE",
"361 412 CURVE SMOOTH",
"351 412 OFFCURVE",
"348 408 OFFCURVE",
"345 400 CURVE SMOOTH",
"204 36 LINE",
"61 400 LINE SMOOTH",
"58 408 OFFCURVE",
"55 412 OFFCURVE",
"45 412 CURVE SMOOTH",
"33 412 OFFCURVE",
"27 403 OFFCURVE",
"31 394 CURVE SMOOTH",
"189 0 LINE SMOOTH",
"192 -8 OFFCURVE",
"193 -12 OFFCURVE",
"203 -12 CURVE SMOOTH"
);
}
);
};
layerId = m003;
paths = (
{
closed = 1;
nodes = (
"213 -12 OFFCURVE",
"214 -8 OFFCURVE",
"217 0 CURVE SMOOTH",
"375 394 LINE SMOOTH",
"380 406 OFFCURVE",
"374 412 OFFCURVE",
"361 412 CURVE SMOOTH",
"351 412 OFFCURVE",
"348 408 OFFCURVE",
"345 400 CURVE SMOOTH",
"204 36 LINE",
"61 400 LINE SMOOTH",
"58 408 OFFCURVE",
"55 412 OFFCURVE",
"45 412 CURVE SMOOTH",
"33 412 OFFCURVE",
"27 403 OFFCURVE",
"31 394 CURVE SMOOTH",
"189 0 LINE SMOOTH",
"192 -8 OFFCURVE",
"193 -12 OFFCURVE",
"203 -12 CURVE SMOOTH"
);
}
);
width = 407;
},
{
background = {
paths = (
{
closed = 1;
nodes = (
"138 -12 OFFCURVE",
"142 -8 OFFCURVE",
"148 0 CURVE SMOOTH",
"430 393 LINE SMOOTH",
"437 402 OFFCURVE",
"427 412 OFFCURVE",
"415 412 CURVE SMOOTH",
"407 412 OFFCURVE",
"404 410 OFFCURVE",
"397 400 CURVE SMOOTH",
"142 36 LINE",
"114 400 LINE SMOOTH",
"113 408 OFFCURVE",
"112 412 OFFCURVE",
"101 412 CURVE SMOOTH",
"90 412 OFFCURVE",
"83 407 OFFCURVE",
"84 397 CURVE SMOOTH",
"116 0 LINE SMOOTH",
"117 -8 OFFCURVE",
"119 -12 OFFCURVE",
"128 -12 CURVE SMOOTH"
);
}
);
};
layerId = m004;
paths = (
{
closed = 1;
nodes = (
"138 -12 OFFCURVE",
"142 -8 OFFCURVE",
"148 0 CURVE SMOOTH",
"429 393 LINE SMOOTH",
"436 402 OFFCURVE",
"426 412 OFFCURVE",
"414 412 CURVE SMOOTH",
"406 412 OFFCURVE",
"403 410 OFFCURVE",
"396 400 CURVE SMOOTH",
"142 36 LINE",
"115 400 LINE SMOOTH",
"114 408 OFFCURVE",
"113 412 OFFCURVE",
"102 412 CURVE SMOOTH",
"91 412 OFFCURVE",
"84 407 OFFCURVE",
"85 397 CURVE SMOOTH",
"116 0 LINE SMOOTH",
"117 -8 OFFCURVE",
"119 -12 OFFCURVE",
"128 -12 CURVE SMOOTH"
);
}
);
width = 407;
}
);
unicode = 0076;
},
{
glyphname = w;
lastChange = "2022-08-29 06:03:06 +0000";
layers = (
{
background = {
paths = (
{
closed = 1;
nodes = (
"183 -12 OFFCURVE",
"186 -7 OFFCURVE",
"189 1 CURVE SMOOTH",
"322 365 LINE",
"456 1 LINE SMOOTH",
"459 -7 OFFCURVE",
"462 -12 OFFCURVE",
"472 -12 CURVE SMOOTH",
"481 -12 OFFCURVE",
"485 -7 OFFCURVE",
"488 1 CURVE SMOOTH",
"612 393 LINE SMOOTH",
"616 405 OFFCURVE",
"612 412 OFFCURVE",
"599 412 CURVE SMOOTH",
"589 412 OFFCURVE",
"585 408 OFFCURVE",
"583 400 CURVE SMOOTH",
"472 36 LINE",
"339 400 LINE SMOOTH",
"336 408 OFFCURVE",
"333 412 OFFCURVE",
"323 412 CURVE SMOOTH",
"312 412 OFFCURVE",
"309 409 OFFCURVE",
"305 399 CURVE SMOOTH",
"174 36 LINE",
"61 400 LINE SMOOTH",
"58 408 OFFCURVE",
"55 412 OFFCURVE",
"45 412 CURVE SMOOTH",
"33 412 OFFCURVE",
"28 403 OFFCURVE",
"31 394 CURVE SMOOTH",
"157 1 LINE SMOOTH",
"160 -7 OFFCURVE",
"163 -12 OFFCURVE",
"173 -12 CURVE SMOOTH"
);
}
);
};
layerId = m01;
paths = (
{
closed = 1;
nodes = (
"183 -12 OFFCURVE",
"186 -7 OFFCURVE",
"189 1 CURVE SMOOTH",
"322 365 LINE",
"456 1 LINE SMOOTH",
"459 -7 OFFCURVE",
"462 -12 OFFCURVE",
"472 -12 CURVE SMOOTH",
"481 -12 OFFCURVE",
"485 -7 OFFCURVE",
"488 1 CURVE SMOOTH",
"612 393 LINE SMOOTH",
"616 405 OFFCURVE",
"612 412 OFFCURVE",
"599 412 CURVE SMOOTH",
"589 412 OFFCURVE",
"585 408 OFFCURVE",
"583 400 CURVE SMOOTH",
"472 36 LINE",
"339 400 LINE SMOOTH",
"336 408 OFFCURVE",
"333 412 OFFCURVE",
"323 412 CURVE SMOOTH",
"312 412 OFFCURVE",
"309 409 OFFCURVE",
"305 399 CURVE SMOOTH",
"174 36 LINE",
"61 400 LINE SMOOTH",
"58 408 OFFCURVE",
"55 412 OFFCURVE",
"45 412 CURVE SMOOTH",
"33 412 OFFCURVE",
"28 403 OFFCURVE",
"31 394 CURVE SMOOTH",
"157 1 LINE SMOOTH",
"160 -7 OFFCURVE",
"163 -12 OFFCURVE",
"173 -12 CURVE SMOOTH"
);
}
);
width = 643;
},
{
background = {
paths = (
{
closed = 1;
nodes = (
"105 -12 OFFCURVE",
"112 -7 OFFCURVE",
"117 1 CURVE SMOOTH",
"368 365 LINE",
"384 3 LINE SMOOTH",
"384 -5 OFFCURVE",
"386 -12 OFFCURVE",
"396 -12 CURVE SMOOTH",
"405 -12 OFFCURVE",
"409 -7 OFFCURVE",
"414 1 CURVE SMOOTH",
"665 393 LINE SMOOTH",
"670 400 OFFCURVE",
"669 407 OFFCURVE",
"658 411 CURVE SMOOTH",
"648 415 OFFCURVE",
"643 408 OFFCURVE",
"638 400 CURVE SMOOTH",
"409 36 LINE",
"394 397 LINE SMOOTH",
"394 405 OFFCURVE",
"391 412 OFFCURVE",
"380 412 CURVE SMOOTH",
"370 412 OFFCURVE",
"367 409 OFFCURVE",
"360 399 CURVE SMOOTH",
"109 35 LINE",
"114 400 LINE SMOOTH",
"114 408 OFFCURVE",
"110 412 OFFCURVE",
"100 412 CURVE SMOOTH",
"88 412 OFFCURVE",
"85 405 OFFCURVE",
"85 396 CURVE SMOOTH",
"82 4 LINE SMOOTH",
"82 -4 OFFCURVE",
"85 -12 OFFCURVE",
"95 -12 CURVE SMOOTH"
);
}
);
};
layerId = m002;
paths = (
{
closed = 1;
nodes = (
"105 -12 OFFCURVE",
"112 -7 OFFCURVE",
"117 1 CURVE SMOOTH",
"368 365 LINE",
"384 3 LINE SMOOTH",
"384 -5 OFFCURVE",
"386 -12 OFFCURVE",
"396 -12 CURVE SMOOTH",
"405 -12 OFFCURVE",
"409 -7 OFFCURVE",
"414 1 CURVE SMOOTH",
"665 393 LINE SMOOTH",
"670 400 OFFCURVE",
"669 407 OFFCURVE",
"658 411 CURVE SMOOTH",
"648 415 OFFCURVE",
"643 408 OFFCURVE",
"638 400 CURVE SMOOTH",
"409 36 LINE",
"394 397 LINE SMOOTH",
"394 405 OFFCURVE",
"391 412 OFFCURVE",
"380 412 CURVE SMOOTH",
"370 412 OFFCURVE",
"367 409 OFFCURVE",
"360 399 CURVE SMOOTH",
"109 35 LINE",
"114 400 LINE SMOOTH",
"114 408 OFFCURVE",
"110 412 OFFCURVE",
"100 412 CURVE SMOOTH",
"88 412 OFFCURVE",
"85 405 OFFCURVE",
"85 396 CURVE SMOOTH",
"82 4 LINE SMOOTH",
"82 -4 OFFCURVE",
"85 -12 OFFCURVE",
"95 -12 CURVE SMOOTH"
);
}
);
width = 643;
},
{
background = {
paths = (
{
closed = 1;
nodes = (
"183 -12 OFFCURVE",
"186 -7 OFFCURVE",
"189 1 CURVE SMOOTH",
"322 365 LINE",
"456 1 LINE SMOOTH",
"459 -7 OFFCURVE",
"462 -12 OFFCURVE",
"472 -12 CURVE SMOOTH",
"481 -12 OFFCURVE",
"485 -7 OFFCURVE",
"488 1 CURVE SMOOTH",
"612 393 LINE SMOOTH",
"616 405 OFFCURVE",
"612 412 OFFCURVE",
"599 412 CURVE SMOOTH",
"589 412 OFFCURVE",
"585 408 OFFCURVE",
"583 400 CURVE SMOOTH",
"472 36 LINE",
"339 400 LINE SMOOTH",
"336 408 OFFCURVE",
"333 412 OFFCURVE",
"323 412 CURVE SMOOTH",
"312 412 OFFCURVE",
"309 409 OFFCURVE",
"305 399 CURVE SMOOTH",
"174 36 LINE",
"61 400 LINE SMOOTH",
"58 408 OFFCURVE",
"55 412 OFFCURVE",
"45 412 CURVE SMOOTH",
"33 412 OFFCURVE",
"28 403 OFFCURVE",
"31 394 CURVE SMOOTH",
"157 1 LINE SMOOTH",
"160 -7 OFFCURVE",
"163 -12 OFFCURVE",
"173 -12 CURVE SMOOTH"
);
}
);
};
layerId = m003;
paths = (
{
closed = 1;
nodes = (
"183 -12 OFFCURVE",
"186 -7 OFFCURVE",
"189 1 CURVE SMOOTH",
"322 365 LINE",
"456 1 LINE SMOOTH",
"459 -7 OFFCURVE",
"462 -12 OFFCURVE",
"472 -12 CURVE SMOOTH",
"481 -12 OFFCURVE",
"485 -7 OFFCURVE",
"488 1 CURVE SMOOTH",
"612 393 LINE SMOOTH",
"616 405 OFFCURVE",
"612 412 OFFCURVE",
"599 412 CURVE SMOOTH",
"589 412 OFFCURVE",
"585 408 OFFCURVE",
"583 400 CURVE SMOOTH",
"472 36 LINE",
"339 400 LINE SMOOTH",
"336 408 OFFCURVE",
"333 412 OFFCURVE",
"323 412 CURVE SMOOTH",
"312 412 OFFCURVE",
"309 409 OFFCURVE",
"305 399 CURVE SMOOTH",
"174 36 LINE",
"61 400 LINE SMOOTH",
"58 408 OFFCURVE",
"55 412 OFFCURVE",
"45 412 CURVE SMOOTH",
"33 412 OFFCURVE",
"28 403 OFFCURVE",
"31 394 CURVE SMOOTH",
"157 1 LINE SMOOTH",
"160 -7 OFFCURVE",
"163 -12 OFFCURVE",
"173 -12 CURVE SMOOTH"
);
}
);
width = 643;
},
{
background = {
paths = (
{
closed = 1;
nodes = (
"105 -12 OFFCURVE",
"112 -7 OFFCURVE",
"117 1 CURVE SMOOTH",
"368 365 LINE",
"384 3 LINE SMOOTH",
"384 -5 OFFCURVE",
"386 -12 OFFCURVE",
"396 -12 CURVE SMOOTH",
"405 -12 OFFCURVE",
"409 -7 OFFCURVE",
"414 1 CURVE SMOOTH",
"665 393 LINE SMOOTH",
"670 400 OFFCURVE",
"669 407 OFFCURVE",
"658 411 CURVE SMOOTH",
"648 415 OFFCURVE",
"643 408 OFFCURVE",
"638 400 CURVE SMOOTH",
"409 36 LINE",
"394 397 LINE SMOOTH",
"394 405 OFFCURVE",
"391 412 OFFCURVE",
"380 412 CURVE SMOOTH",
"370 412 OFFCURVE",
"367 409 OFFCURVE",
"360 399 CURVE SMOOTH",
"109 35 LINE",
"114 400 LINE SMOOTH",
"114 408 OFFCURVE",
"110 412 OFFCURVE",
"100 412 CURVE SMOOTH",
"88 412 OFFCURVE",
"85 405 OFFCURVE",
"85 396 CURVE SMOOTH",
"82 4 LINE SMOOTH",
"82 -4 OFFCURVE",
"85 -12 OFFCURVE",
"95 -12 CURVE SMOOTH"
);
}
);
};
layerId = m004;
paths = (
{
closed = 1;
nodes = (
"105 -12 OFFCURVE",
"112 -7 OFFCURVE",
"117 1 CURVE SMOOTH",
"368 365 LINE",
"384 3 LINE SMOOTH",
"384 -5 OFFCURVE",
"386 -12 OFFCURVE",
"396 -12 CURVE SMOOTH",
"405 -12 OFFCURVE",
"409 -7 OFFCURVE",
"414 1 CURVE SMOOTH",
"665 393 LINE SMOOTH",
"670 400 OFFCURVE",
"669 407 OFFCURVE",
"658 411 CURVE SMOOTH",
"648 415 OFFCURVE",
"643 408 OFFCURVE",
"638 400 CURVE SMOOTH",
"409 36 LINE",
"394 397 LINE SMOOTH",
"394 405 OFFCURVE",
"391 412 OFFCURVE",
"380 412 CURVE SMOOTH",
"370 412 OFFCURVE",
"367 409 OFFCURVE",
"360 399 CURVE SMOOTH",
"109 35 LINE",
"114 400 LINE SMOOTH",
"114 408 OFFCURVE",
"110 412 OFFCURVE",
"100 412 CURVE SMOOTH",
"88 412 OFFCURVE",
"85 405 OFFCURVE",
"85 396 CURVE SMOOTH",
"82 4 LINE SMOOTH",
"82 -4 OFFCURVE",
"85 -12 OFFCURVE",
"95 -12 CURVE SMOOTH"
);
}
);
width = 643;
}
);
leftMetricsKey = "=v";
rightMetricsKey = "=v";
unicode = 0077;
},
{
glyphname = x;
lastChange = "2022-08-29 06:03:06 +0000";
layers = (
{
background = {
paths = (
{
closed = 1;
nodes = (
"388 -4 OFFCURVE",
"387 4 OFFCURVE",
"381 11 CURVE SMOOTH",
"77 400 LINE SMOOTH",
"71 408 OFFCURVE",
"68 412 OFFCURVE",
"60 412 CURVE SMOOTH",
"48 412 OFFCURVE",
"38 403 OFFCURVE",
"47 392 CURVE SMOOTH",
"353 -2 LINE SMOOTH",
"357 -7 OFFCURVE",
"364 -15 OFFCURVE",
"377 -9 CURVE SMOOTH"
);
},
{
closed = 1;
nodes = (
"58 -12 OFFCURVE",
"65 -8 OFFCURVE",
"71 0 CURVE SMOOTH",
"220 188 LINE",
"203 211 LINE",
"45 14 LINE SMOOTH",
"37 4 OFFCURVE",
"35 -4 OFFCURVE",
"49 -9 CURVE SMOOTH"
);
},
{
closed = 1;
nodes = (
"382 392 LINE SMOOTH",
"391 403 OFFCURVE",
"383 412 OFFCURVE",
"371 412 CURVE SMOOTH",
"362 412 OFFCURVE",
"359 408 OFFCURVE",
"351 397 CURVE SMOOTH",
"208 217 LINE",
"224 192 LINE"
);
}
);
};
layerId = m01;
paths = (
{
closed = 1;
nodes = (
"388 -4 OFFCURVE",
"387 4 OFFCURVE",
"381 11 CURVE SMOOTH",
"77 400 LINE SMOOTH",
"71 408 OFFCURVE",
"68 412 OFFCURVE",
"60 412 CURVE SMOOTH",
"48 412 OFFCURVE",
"38 403 OFFCURVE",
"47 392 CURVE SMOOTH",
"353 -2 LINE SMOOTH",
"357 -7 OFFCURVE",
"364 -15 OFFCURVE",
"377 -9 CURVE SMOOTH"
);
},
{
closed = 1;
nodes = (
"58 -12 OFFCURVE",
"65 -8 OFFCURVE",
"71 0 CURVE SMOOTH",
"220 188 LINE",
"203 211 LINE",
"45 14 LINE SMOOTH",
"37 4 OFFCURVE",
"35 -4 OFFCURVE",
"49 -9 CURVE SMOOTH"
);
},
{
closed = 1;
nodes = (
"382 392 LINE SMOOTH",
"391 403 OFFCURVE",
"383 412 OFFCURVE",
"371 412 CURVE SMOOTH",
"362 412 OFFCURVE",
"359 408 OFFCURVE",
"351 397 CURVE SMOOTH",
"208 217 LINE",
"224 192 LINE"
);
}
);
width = 427;
},
{
background = {
paths = (
{
closed = 1;
nodes = (
"320 -5 OFFCURVE",
"322 2 OFFCURVE",
"319 9 CURVE SMOOTH",
"140 400 LINE SMOOTH",
"136 410 OFFCURVE",
"131 414 OFFCURVE",
"121 411 CURVE SMOOTH",
"112 408 OFFCURVE",
"107 402 OFFCURVE",
"112 391 CURVE SMOOTH",
"290 -2 LINE SMOOTH",
"292 -7 OFFCURVE",
"298 -15 OFFCURVE",
"312 -9 CURVE SMOOTH"
);
},
{
closed = 1;
nodes = (
"-9 -14 OFFCURVE",
"-4 -11 OFFCURVE",
"5 -3 CURVE SMOOTH",
"219 188 LINE",
"209 218 LINE",
"-17 16 LINE SMOOTH",
"-24 10 OFFCURVE",
"-28 0 OFFCURVE",
"-18 -7 CURVE SMOOTH"
);
},
{
closed = 1;
nodes = (
"443 388 LINE SMOOTH",
"450 395 OFFCURVE",
"449 401 OFFCURVE",
"441 408 CURVE SMOOTH",
"433 415 OFFCURVE",
"425 411 OFFCURVE",
"417 403 CURVE SMOOTH",
"217 223 LINE",
"224 192 LINE"
);
}
);
};
layerId = m002;
paths = (
{
closed = 1;
nodes = (
"320 -5 OFFCURVE",
"322 2 OFFCURVE",
"319 9 CURVE SMOOTH",
"140 400 LINE SMOOTH",
"136 410 OFFCURVE",
"131 414 OFFCURVE",
"121 411 CURVE SMOOTH",
"112 408 OFFCURVE",
"107 402 OFFCURVE",
"112 391 CURVE SMOOTH",
"290 -2 LINE SMOOTH",
"292 -7 OFFCURVE",
"298 -15 OFFCURVE",
"312 -9 CURVE SMOOTH"
);
},
{
closed = 1;
nodes = (
"-9 -14 OFFCURVE",
"-4 -11 OFFCURVE",
"5 -3 CURVE SMOOTH",
"219 188 LINE",
"209 218 LINE",
"-17 16 LINE SMOOTH",
"-24 10 OFFCURVE",
"-28 0 OFFCURVE",
"-18 -7 CURVE SMOOTH"
);
},
{
closed = 1;
nodes = (
"443 388 LINE SMOOTH",
"450 395 OFFCURVE",
"449 401 OFFCURVE",
"441 408 CURVE SMOOTH",
"433 415 OFFCURVE",
"425 411 OFFCURVE",
"417 403 CURVE SMOOTH",
"217 223 LINE",
"224 192 LINE"
);
}
);
width = 427;
},
{
background = {
paths = (
{
closed = 1;
nodes = (
"388 -4 OFFCURVE",
"387 4 OFFCURVE",
"381 11 CURVE SMOOTH",
"77 400 LINE SMOOTH",
"71 408 OFFCURVE",
"68 412 OFFCURVE",
"60 412 CURVE SMOOTH",
"48 412 OFFCURVE",
"38 403 OFFCURVE",
"47 392 CURVE SMOOTH",
"353 -2 LINE SMOOTH",
"357 -7 OFFCURVE",
"364 -15 OFFCURVE",
"377 -9 CURVE SMOOTH"
);
},
{
closed = 1;
nodes = (
"58 -12 OFFCURVE",
"65 -8 OFFCURVE",
"71 0 CURVE SMOOTH",
"220 188 LINE",
"203 211 LINE",
"45 14 LINE SMOOTH",
"37 4 OFFCURVE",
"35 -4 OFFCURVE",
"49 -9 CURVE SMOOTH"
);
},
{
closed = 1;
nodes = (
"382 392 LINE SMOOTH",
"391 403 OFFCURVE",
"383 412 OFFCURVE",
"371 412 CURVE SMOOTH",
"362 412 OFFCURVE",
"359 408 OFFCURVE",
"351 397 CURVE SMOOTH",
"208 217 LINE",
"224 192 LINE"
);
}
);
};
layerId = m003;
paths = (
{
closed = 1;
nodes = (
"388 -4 OFFCURVE",
"387 4 OFFCURVE",
"381 11 CURVE SMOOTH",
"77 400 LINE SMOOTH",
"71 408 OFFCURVE",
"68 412 OFFCURVE",
"60 412 CURVE SMOOTH",
"48 412 OFFCURVE",
"38 403 OFFCURVE",
"47 392 CURVE SMOOTH",
"353 -2 LINE SMOOTH",
"357 -7 OFFCURVE",
"364 -15 OFFCURVE",
"377 -9 CURVE SMOOTH"
);
},
{
closed = 1;
nodes = (
"58 -12 OFFCURVE",
"65 -8 OFFCURVE",
"71 0 CURVE SMOOTH",
"220 188 LINE",
"203 211 LINE",
"45 14 LINE SMOOTH",
"37 4 OFFCURVE",
"35 -4 OFFCURVE",
"49 -9 CURVE SMOOTH"
);
},
{
closed = 1;
nodes = (
"382 392 LINE SMOOTH",
"391 403 OFFCURVE",
"383 412 OFFCURVE",
"371 412 CURVE SMOOTH",
"362 412 OFFCURVE",
"359 408 OFFCURVE",
"351 397 CURVE SMOOTH",
"208 217 LINE",
"224 192 LINE"
);
}
);
width = 427;
},
{
background = {
paths = (
{
closed = 1;
nodes = (
"320 -5 OFFCURVE",
"322 2 OFFCURVE",
"319 9 CURVE SMOOTH",
"140 400 LINE SMOOTH",
"136 410 OFFCURVE",
"131 414 OFFCURVE",
"121 411 CURVE SMOOTH",
"112 408 OFFCURVE",
"107 402 OFFCURVE",
"112 391 CURVE SMOOTH",
"290 -2 LINE SMOOTH",
"292 -7 OFFCURVE",
"298 -15 OFFCURVE",
"312 -9 CURVE SMOOTH"
);
},
{
closed = 1;
nodes = (
"-9 -14 OFFCURVE",
"-4 -11 OFFCURVE",
"5 -3 CURVE SMOOTH",
"219 188 LINE",
"209 218 LINE",
"-17 16 LINE SMOOTH",
"-24 10 OFFCURVE",
"-28 0 OFFCURVE",
"-18 -7 CURVE SMOOTH"
);
},
{
closed = 1;
nodes = (
"443 388 LINE SMOOTH",
"450 395 OFFCURVE",
"449 401 OFFCURVE",
"441 408 CURVE SMOOTH",
"433 415 OFFCURVE",
"425 411 OFFCURVE",
"417 403 CURVE SMOOTH",
"217 223 LINE",
"224 192 LINE"
);
}
);
};
layerId = m004;
paths = (
{
closed = 1;
nodes = (
"320 -5 OFFCURVE",
"322 2 OFFCURVE",
"319 9 CURVE SMOOTH",
"140 400 LINE SMOOTH",
"136 410 OFFCURVE",
"131 414 OFFCURVE",
"121 411 CURVE SMOOTH",
"112 408 OFFCURVE",
"107 402 OFFCURVE",
"112 391 CURVE SMOOTH",
"290 -2 LINE SMOOTH",
"292 -7 OFFCURVE",
"298 -15 OFFCURVE",
"312 -9 CURVE SMOOTH"
);
},
{
closed = 1;
nodes = (
"-9 -14 OFFCURVE",
"-4 -11 OFFCURVE",
"5 -3 CURVE SMOOTH",
"219 188 LINE",
"209 218 LINE",
"-17 16 LINE SMOOTH",
"-24 10 OFFCURVE",
"-28 0 OFFCURVE",
"-18 -7 CURVE SMOOTH"
);
},
{
closed = 1;
nodes = (
"443 388 LINE SMOOTH",
"450 395 OFFCURVE",
"449 401 OFFCURVE",
"441 408 CURVE SMOOTH",
"433 415 OFFCURVE",
"425 411 OFFCURVE",
"417 403 CURVE SMOOTH",
"217 223 LINE",
"224 192 LINE"
);
}
);
width = 427;
}
);
unicode = 0078;
},
{
glyphname = y;
lastChange = "2022-08-29 06:03:06 +0000";
layers = (
{
background = {
paths = (
{
closed = 1;
nodes = (
"274 -15 OFFCURVE",
"352 8 OFFCURVE",
"381 123 CURVE",
"368 153 LINE",
"346 47 OFFCURVE",
"283 13 OFFCURVE",
"220 13 CURVE SMOOTH",
"149 13 OFFCURVE",
"119 60 OFFCURVE",
"119 139 CURVE SMOOTH",
"119 399 LINE SMOOTH",
"119 408 OFFCURVE",
"114 411 OFFCURVE",
"104 411 CURVE SMOOTH",
"94 411 OFFCURVE",
"90 408 OFFCURVE",
"90 399 CURVE SMOOTH",
"90 133 LINE SMOOTH",
"90 28 OFFCURVE",
"146 -15 OFFCURVE",
"216 -15 CURVE SMOOTH"
);
},
{
closed = 1;
nodes = (
"336 -315 OFFCURVE",
"397 -252 OFFCURVE",
"397 -127 CURVE SMOOTH",
"397 400 LINE SMOOTH",
"397 409 OFFCURVE",
"393 412 OFFCURVE",
"383 412 CURVE SMOOTH",
"373 412 OFFCURVE",
"368 409 OFFCURVE",
"368 400 CURVE SMOOTH",
"368 -125 LINE SMOOTH",
"368 -236 OFFCURVE",
"320 -287 OFFCURVE",
"241 -287 CURVE SMOOTH",
"176 -287 OFFCURVE",
"140 -264 OFFCURVE",
"117 -216 CURVE SMOOTH",
"114 -209 OFFCURVE",
"108 -206 OFFCURVE",
"99 -211 CURVE SMOOTH",
"90 -216 OFFCURVE",
"88 -221 OFFCURVE",
"92 -229 CURVE SMOOTH",
"118 -284 OFFCURVE",
"165 -315 OFFCURVE",
"237 -315 CURVE SMOOTH"
);
}
);
};
layerId = m01;
paths = (
{
closed = 1;
nodes = (
"274 -15 OFFCURVE",
"352 8 OFFCURVE",
"381 123 CURVE",
"368 153 LINE",
"346 47 OFFCURVE",
"283 13 OFFCURVE",
"220 13 CURVE SMOOTH",
"149 13 OFFCURVE",
"119 60 OFFCURVE",
"119 139 CURVE SMOOTH",
"119 399 LINE SMOOTH",
"119 408 OFFCURVE",
"114 411 OFFCURVE",
"104 411 CURVE SMOOTH",
"94 411 OFFCURVE",
"90 408 OFFCURVE",
"90 399 CURVE SMOOTH",
"90 133 LINE SMOOTH",
"90 28 OFFCURVE",
"146 -15 OFFCURVE",
"216 -15 CURVE SMOOTH"
);
},
{
closed = 1;
nodes = (
"336 -315 OFFCURVE",
"397 -252 OFFCURVE",
"397 -127 CURVE SMOOTH",
"397 400 LINE SMOOTH",
"397 409 OFFCURVE",
"393 412 OFFCURVE",
"383 412 CURVE SMOOTH",
"373 412 OFFCURVE",
"368 409 OFFCURVE",
"368 400 CURVE SMOOTH",
"368 -125 LINE SMOOTH",
"368 -236 OFFCURVE",
"320 -287 OFFCURVE",
"241 -287 CURVE SMOOTH",
"176 -287 OFFCURVE",
"140 -264 OFFCURVE",
"117 -216 CURVE SMOOTH",
"114 -209 OFFCURVE",
"108 -206 OFFCURVE",
"99 -211 CURVE SMOOTH",
"90 -216 OFFCURVE",
"88 -221 OFFCURVE",
"92 -229 CURVE SMOOTH",
"118 -284 OFFCURVE",
"165 -315 OFFCURVE",
"237 -315 CURVE SMOOTH"
);
}
);
width = 492;
},
{
background = {
paths = (
{
closed = 1;
nodes = (
"212 -14 OFFCURVE",
"298 7 OFFCURVE",
"358 124 CURVE",
"355 154 LINE",
"302 48 OFFCURVE",
"228 14 OFFCURVE",
"164 14 CURVE SMOOTH",
"94 14 OFFCURVE",
"75 62 OFFCURVE",
"98 132 CURVE SMOOTH",
"186 399 LINE",
"189 407 OFFCURVE",
"183 412 OFFCURVE",
"173 412 CURVE SMOOTH",
"161 412 OFFCURVE",
"157 409 OFFCURVE",
"154 400 CURVE",
"70 144 LINE SMOOTH",
"34 35 OFFCURVE",
"83 -14 OFFCURVE",
"160 -14 CURVE SMOOTH"
);
},
{
closed = 1;
nodes = (
"205 -315 OFFCURVE",
"252 -255 OFFCURVE",
"294 -127 CURVE SMOOTH",
"464 395 LINE SMOOTH",
"467 404 OFFCURVE",
"465 412 OFFCURVE",
"452 412 CURVE SMOOTH",
"441 412 OFFCURVE",
"437 409 OFFCURVE",
"434 400 CURVE SMOOTH",
"264 -125 LINE SMOOTH",
"228 -236 OFFCURVE",
"187 -287 OFFCURVE",
"104 -287 CURVE SMOOTH",
"49 -287 OFFCURVE",
"18 -270 OFFCURVE",
"-2 -211 CURVE SMOOTH",
"-4 -204 OFFCURVE",
"-9 -201 OFFCURVE",
"-19 -205 CURVE SMOOTH",
"-30 -209 OFFCURVE",
"-32 -215 OFFCURVE",
"-30 -223 CURVE SMOOTH",
"-10 -284 OFFCURVE",
"30 -315 OFFCURVE",
"101 -315 CURVE SMOOTH"
);
}
);
};
layerId = m002;
paths = (
{
closed = 1;
nodes = (
"212 -14 OFFCURVE",
"298 7 OFFCURVE",
"358 124 CURVE",
"355 154 LINE",
"302 48 OFFCURVE",
"228 14 OFFCURVE",
"164 14 CURVE SMOOTH",
"94 14 OFFCURVE",
"75 62 OFFCURVE",
"98 132 CURVE SMOOTH",
"186 399 LINE",
"189 407 OFFCURVE",
"183 412 OFFCURVE",
"173 412 CURVE SMOOTH",
"161 412 OFFCURVE",
"157 409 OFFCURVE",
"154 400 CURVE",
"70 144 LINE SMOOTH",
"34 35 OFFCURVE",
"83 -14 OFFCURVE",
"160 -14 CURVE SMOOTH"
);
},
{
closed = 1;
nodes = (
"205 -315 OFFCURVE",
"252 -255 OFFCURVE",
"294 -127 CURVE SMOOTH",
"464 395 LINE SMOOTH",
"467 404 OFFCURVE",
"465 412 OFFCURVE",
"452 412 CURVE SMOOTH",
"441 412 OFFCURVE",
"437 409 OFFCURVE",
"434 400 CURVE SMOOTH",
"264 -125 LINE SMOOTH",
"228 -236 OFFCURVE",
"187 -287 OFFCURVE",
"104 -287 CURVE SMOOTH",
"49 -287 OFFCURVE",
"18 -270 OFFCURVE",
"-2 -211 CURVE SMOOTH",
"-4 -204 OFFCURVE",
"-9 -201 OFFCURVE",
"-19 -205 CURVE SMOOTH",
"-30 -209 OFFCURVE",
"-32 -215 OFFCURVE",
"-30 -223 CURVE SMOOTH",
"-10 -284 OFFCURVE",
"30 -315 OFFCURVE",
"101 -315 CURVE SMOOTH"
);
}
);
width = 492;
},
{
background = {
paths = (
{
closed = 1;
nodes = (
"250 -14 OFFCURVE",
"352 54 OFFCURVE",
"378 289 CURVE",
"368 363 LINE",
"342 85 OFFCURVE",
"252 13 OFFCURVE",
"185 13 CURVE SMOOTH",
"139 13 OFFCURVE",
"122 49 OFFCURVE",
"122 124 CURVE SMOOTH",
"122 400 LINE SMOOTH",
"122 409 OFFCURVE",
"117 412 OFFCURVE",
"107 412 CURVE SMOOTH",
"97 412 OFFCURVE",
"92 409 OFFCURVE",
"92 400 CURVE SMOOTH",
"92 116 LINE SMOOTH",
"92 16 OFFCURVE",
"135 -14 OFFCURVE",
"184 -14 CURVE SMOOTH"
);
},
{
closed = 1;
nodes = (
"350 -315 OFFCURVE",
"397 -255 OFFCURVE",
"397 -130 CURVE SMOOTH",
"397 400 LINE SMOOTH",
"397 409 OFFCURVE",
"393 412 OFFCURVE",
"383 412 CURVE SMOOTH",
"373 412 OFFCURVE",
"368 409 OFFCURVE",
"368 400 CURVE SMOOTH",
"368 -128 LINE SMOOTH",
"368 -239 OFFCURVE",
"334 -287 OFFCURVE",
"265 -287 CURVE SMOOTH",
"201 -287 OFFCURVE",
"160 -262 OFFCURVE",
"124 -228 CURVE SMOOTH",
"118 -223 OFFCURVE",
"112 -221 OFFCURVE",
"105 -228 CURVE SMOOTH",
"98 -237 OFFCURVE",
"97 -242 OFFCURVE",
"104 -248 CURVE SMOOTH",
"145 -288 OFFCURVE",
"190 -315 OFFCURVE",
"261 -315 CURVE SMOOTH"
);
}
);
};
layerId = m003;
paths = (
{
closed = 1;
nodes = (
"250 -14 OFFCURVE",
"352 54 OFFCURVE",
"378 289 CURVE",
"368 363 LINE",
"342 85 OFFCURVE",
"252 13 OFFCURVE",
"185 13 CURVE SMOOTH",
"139 13 OFFCURVE",
"122 49 OFFCURVE",
"122 124 CURVE SMOOTH",
"122 400 LINE SMOOTH",
"122 409 OFFCURVE",
"117 412 OFFCURVE",
"107 412 CURVE SMOOTH",
"97 412 OFFCURVE",
"92 409 OFFCURVE",
"92 400 CURVE SMOOTH",
"92 116 LINE SMOOTH",
"92 16 OFFCURVE",
"135 -14 OFFCURVE",
"184 -14 CURVE SMOOTH"
);
},
{
closed = 1;
nodes = (
"350 -315 OFFCURVE",
"397 -255 OFFCURVE",
"397 -130 CURVE SMOOTH",
"397 400 LINE SMOOTH",
"397 409 OFFCURVE",
"393 412 OFFCURVE",
"383 412 CURVE SMOOTH",
"373 412 OFFCURVE",
"368 409 OFFCURVE",
"368 400 CURVE SMOOTH",
"368 -128 LINE SMOOTH",
"368 -239 OFFCURVE",
"334 -287 OFFCURVE",
"265 -287 CURVE SMOOTH",
"201 -287 OFFCURVE",
"160 -262 OFFCURVE",
"124 -228 CURVE SMOOTH",
"118 -223 OFFCURVE",
"112 -221 OFFCURVE",
"105 -228 CURVE SMOOTH",
"98 -237 OFFCURVE",
"97 -242 OFFCURVE",
"104 -248 CURVE SMOOTH",
"145 -288 OFFCURVE",
"190 -315 OFFCURVE",
"261 -315 CURVE SMOOTH"
);
}
);
width = 492;
},
{
background = {
paths = (
{
closed = 1;
nodes = (
"188 -12 OFFCURVE",
"307 58 OFFCURVE",
"409 293 CURVE",
"421 365 LINE",
"307 87 OFFCURVE",
"189 16 OFFCURVE",
"127 16 CURVE SMOOTH",
"85 16 OFFCURVE",
"72 49 OFFCURVE",
"98 128 CURVE SMOOTH",
"188 398 LINE SMOOTH",
"191 406 OFFCURVE",
"185 412 OFFCURVE",
"175 412 CURVE SMOOTH",
"163 412 OFFCURVE",
"160 409 OFFCURVE",
"157 400 CURVE SMOOTH",
"65 123 LINE SMOOTH",
"32 24 OFFCURVE",
"72 -12 OFFCURVE",
"123 -12 CURVE SMOOTH"
);
},
{
closed = 1;
nodes = (
"216 -315 OFFCURVE",
"250 -258 OFFCURVE",
"286 -148 CURVE SMOOTH",
"462 395 LINE SMOOTH",
"465 404 OFFCURVE",
"463 412 OFFCURVE",
"450 412 CURVE SMOOTH",
"439 412 OFFCURVE",
"435 409 OFFCURVE",
"432 400 CURVE SMOOTH",
"255 -146 LINE SMOOTH",
"225 -239 OFFCURVE",
"198 -287 OFFCURVE",
"130 -287 CURVE SMOOTH",
"80 -287 OFFCURVE",
"39 -262 OFFCURVE",
"-3 -216 CURVE SMOOTH",
"-8 -211 OFFCURVE",
"-13 -210 OFFCURVE",
"-21 -218 CURVE SMOOTH",
"-30 -225 OFFCURVE",
"-29 -233 OFFCURVE",
"-24 -239 CURVE SMOOTH",
"19 -286 OFFCURVE",
"68 -315 OFFCURVE",
"127 -315 CURVE SMOOTH"
);
}
);
};
layerId = m004;
paths = (
{
closed = 1;
nodes = (
"188 -12 OFFCURVE",
"307 58 OFFCURVE",
"409 293 CURVE",
"421 365 LINE",
"307 87 OFFCURVE",
"189 16 OFFCURVE",
"127 16 CURVE SMOOTH",
"85 16 OFFCURVE",
"72 49 OFFCURVE",
"98 128 CURVE SMOOTH",
"188 398 LINE SMOOTH",
"191 406 OFFCURVE",
"185 412 OFFCURVE",
"175 412 CURVE SMOOTH",
"163 412 OFFCURVE",
"160 409 OFFCURVE",
"157 400 CURVE SMOOTH",
"65 123 LINE SMOOTH",
"32 24 OFFCURVE",
"72 -12 OFFCURVE",
"123 -12 CURVE SMOOTH"
);
},
{
closed = 1;
nodes = (
"216 -315 OFFCURVE",
"250 -258 OFFCURVE",
"286 -148 CURVE SMOOTH",
"462 395 LINE SMOOTH",
"465 404 OFFCURVE",
"463 412 OFFCURVE",
"450 412 CURVE SMOOTH",
"439 412 OFFCURVE",
"435 409 OFFCURVE",
"432 400 CURVE SMOOTH",
"255 -146 LINE SMOOTH",
"225 -239 OFFCURVE",
"198 -287 OFFCURVE",
"130 -287 CURVE SMOOTH",
"80 -287 OFFCURVE",
"39 -262 OFFCURVE",
"-3 -216 CURVE SMOOTH",
"-8 -211 OFFCURVE",
"-13 -210 OFFCURVE",
"-21 -218 CURVE SMOOTH",
"-30 -225 OFFCURVE",
"-29 -233 OFFCURVE",
"-24 -239 CURVE SMOOTH",
"19 -286 OFFCURVE",
"68 -315 OFFCURVE",
"127 -315 CURVE SMOOTH"
);
}
);
width = 492;
}
);
rightMetricsKey = "=g";
unicode = 0079;
},
